<?xml version="1.0" standalone="no"?>
<!DOCTYPE svg PUBLIC "-//W3C//DTD SVG 20010904//EN"
 "http://www.w3.org/TR/2001/REC-SVG-20010904/DTD/svg10.dtd">
<svg version="1.0" xmlns="http://www.w3.org/2000/svg"
 width="260.000000pt" height="260.000000pt" viewBox="0 0 260.000000 260.000000"
 preserveAspectRatio="xMidYMid meet">
<metadata>
Created by potrace 1.11, written by Peter Selinger 2001-2013
</metadata>
<g transform="translate(0.000000,260.000000) scale(0.100000,-0.100000)"
fill="#000000" stroke="none">
<path d="M1160 2579 c-410 -51 -771 -310 -955 -684 -66 -135 -99 -240 -119
-377 -13 -86 -16 -210 -16 -679 0 -354 4 -588 10 -610 23 -83 102 -157 198
-185 140 -41 280 48 314 200 l13 56 36 -24 c57 -39 194 -105 269 -131 138 -47
224 -60 400 -59 145 0 178 3 270 26 179 45 315 110 460 219 144 109 288 285
361 444 18 39 47 87 64 107 50 59 55 92 55 344 0 251 -12 355 -56 496 -116
370 -406 671 -766 797 -162 56 -376 81 -538 60z m355 -173 c352 -75 647 -327
775 -660 62 -161 73 -235 74 -503 1 -239 1 -241 -22 -266 -13 -14 -37 -27 -53
-31 -33 -6 -91 13 -105 35 -5 8 -11 90 -14 182 l-5 169 -28 24 c-55 47 -118
16 -131 -65 -9 -60 -43 -91 -100 -91 -37 0 -48 5 -69 30 -22 25 -26 43 -32
127 -15 218 -110 369 -286 457 -267 134 -574 6 -692 -287 -19 -48 -22 -77 -27
-350 l-5 -299 -33 -29 c-36 -32 -69 -36 -111 -15 -47 25 -51 48 -51 300 0 260
-2 270 -67 282 -27 5 -37 1 -63 -24 l-30 -30 0 -555 c0 -543 0 -555 -20 -580
-28 -35 -78 -44 -125 -21 -70 33 -66 -5 -63 675 l4 614 32 118 c60 222 151
377 307 525 53 50 129 109 179 138 94 57 259 115 391 139 95 17 266 13 370 -9z
m-67 -732 c248 -121 270 -467 39 -619 -66 -43 -131 -59 -213 -52 -205 16 -351
209 -313 415 25 135 131 249 263 283 58 15 165 2 224 -27z m308 -585 c23 -39
166 -63 228 -39 24 9 26 7 26 -18 0 -88 84 -206 166 -232 21 -7 42 -16 47 -19
12 -12 -66 -124 -145 -207 -212 -224 -473 -336 -778 -335 -246 1 -437 65 -645
216 l-55 40 0 92 0 91 37 -10 c82 -22 183 10 243 78 44 50 60 93 67 175 l6 69
33 -30 c72 -63 163 -100 279 -115 66 -8 182 16 260 54 63 31 160 118 191 171
20 32 29 37 40 19z"/>
</g>
</svg>
