<?xml version="1.0" standalone="no"?>
<!DOCTYPE svg PUBLIC "-//W3C//DTD SVG 20010904//EN"
 "http://www.w3.org/TR/2001/REC-SVG-20010904/DTD/svg10.dtd">
<svg version="1.0" xmlns="http://www.w3.org/2000/svg"
 width="160.000000pt" height="160.000000pt" viewBox="0 0 160.000000 160.000000"
 preserveAspectRatio="xMidYMid meet">
<metadata>
Created by potrace 1.11, written by Peter Selinger 2001-2013
</metadata>
<g transform="translate(0.000000,160.000000) scale(0.100000,-0.100000)"
fill="#000000" stroke="none">
<path d="M605 1406 c-184 -48 -284 -100 -387 -204 -22 -21 -59 -72 -68 -93 -5
-13 -14 -31 -19 -39 -27 -49 -41 -80 -41 -97 0 -10 -4 -23 -10 -29 -16 -16
-23 -145 -10 -179 11 -30 12 -29 70 90 67 139 120 197 224 246 108 50 327 78
399 50 34 -13 34 -17 -3 -36 -31 -16 -80 -89 -80 -120 0 -10 -22 -42 -50 -71
-52 -55 -70 -105 -30 -84 17 9 20 8 20 -10 0 -23 4 -24 29 -11 16 9 17 6 2
-52 -8 -34 -17 -64 -18 -66 -2 -3 -22 -4 -44 -2 -52 3 -102 -14 -160 -54 -25
-17 -79 -41 -120 -53 -47 -14 -89 -34 -110 -53 l-34 -30 40 6 c39 7 39 6 22
-12 -15 -17 -23 -43 -13 -43 2 0 23 7 46 15 23 8 43 15 44 15 1 0 0 -16 -2
-36 l-5 -37 37 28 c59 45 52 22 -13 -44 -34 -34 -61 -66 -61 -70 0 -4 -22 -20
-49 -35 -57 -30 -72 -61 -68 -141 2 -42 6 -51 27 -62 46 -23 106 -14 277 43
145 47 184 56 283 64 115 9 186 27 268 69 52 26 119 85 127 112 7 22 41 43 56
33 7 -4 4 -13 -7 -25 -25 -27 -30 -109 -10 -159 9 -22 16 -64 16 -93 l0 -52
20 25 c11 14 20 31 20 38 0 6 4 12 9 12 9 0 27 -76 23 -92 -3 -13 16 -9 24 4
4 7 10 28 13 47 l6 34 20 -41 c11 -23 23 -42 26 -42 12 0 17 54 8 72 -13 24
-3 23 28 -2 15 -11 28 -18 31 -16 10 10 -10 57 -37 88 -29 34 -45 90 -33 120
4 9 32 34 62 55 61 43 80 71 80 121 0 42 -53 99 -99 108 -17 4 -31 8 -31 10 0
2 13 24 29 49 26 41 31 44 39 28 9 -16 11 -15 17 10 7 25 25 39 25 19 0 -5 9
-19 20 -32 21 -24 26 -20 32 28 3 22 5 21 28 -16 16 -25 28 -36 32 -28 14 20
8 76 -11 114 -10 20 -24 77 -30 125 -7 48 -16 100 -22 115 -22 58 -95 112
-153 112 -18 0 -31 11 -49 43 -81 137 -267 224 -497 233 -98 3 -129 0 -205
-20z"/>
</g>
</svg>
