<?xml version="1.0" encoding="UTF-8" standalone="no"?>
<!-- Generator: Adobe Illustrator 15.1.0, SVG Export Plug-In . SVG Version: 6.00 Build 0)  -->

<svg
   xmlns:dc="http://purl.org/dc/elements/1.1/"
   xmlns:cc="http://creativecommons.org/ns#"
   xmlns:rdf="http://www.w3.org/1999/02/22-rdf-syntax-ns#"
   xmlns:svg="http://www.w3.org/2000/svg"
   xmlns="http://www.w3.org/2000/svg"
   xmlns:sodipodi="http://sodipodi.sourceforge.net/DTD/sodipodi-0.dtd"
   xmlns:inkscape="http://www.inkscape.org/namespaces/inkscape"
   version="1.1"
   id="Layer_1"
   x="0px"
   y="0px"
   width="100px"
   height="90.113px"
   viewBox="0 0 100 90.113"
   enable-background="new 0 0 100 90.113"
   xml:space="preserve"
   inkscape:version="0.48.2 r9819"
   sodipodi:docname="icon_2678.svg"
   inkscape:export-filename="/Users/nexus/Public/eskimo/eskimo.png"
   inkscape:export-xdpi="180"
   inkscape:export-ydpi="180"><metadata
   id="metadata9"><rdf:RDF><cc:Work
       rdf:about=""><dc:format>image/svg+xml</dc:format><dc:type
         rdf:resource="http://purl.org/dc/dcmitype/StillImage" /><dc:title></dc:title></cc:Work></rdf:RDF></metadata><defs
   id="defs7" /><sodipodi:namedview
   pagecolor="#ffffff"
   bordercolor="#666666"
   borderopacity="1"
   objecttolerance="10"
   gridtolerance="10"
   guidetolerance="10"
   inkscape:pageopacity="0"
   inkscape:pageshadow="2"
   inkscape:window-width="721"
   inkscape:window-height="480"
   id="namedview5"
   showgrid="false"
   inkscape:zoom="2.618934"
   inkscape:cx="50"
   inkscape:cy="45.056499"
   inkscape:window-x="0"
   inkscape:window-y="0"
   inkscape:window-maximized="0"
   inkscape:current-layer="Layer_1" />
<path
   fill="#010101"
   d="M98.608,6.212c-0.104-0.431-0.146-0.803-0.184-1.16c-0.168-1.486-0.451-2.567-2.771-3.979  c-2.341-1.433-3.433-1.187-4.835-0.651c-0.341,0.131-0.688,0.262-1.117,0.367c-2.247,0.546-15.622,6.488-17.644,7.549  c-2.608,1.375-10.314,9.333-13.391,18.504c-1.774,5.275-2.552,13.764-3.244,21.254c-0.468,5.108-0.914,9.938-1.554,11.586  c-0.389,0.992-0.788,2.089-1.21,3.244c-0.801,2.188-1.667,4.54-2.657,6.803c-0.987-2.257-1.848-4.604-2.646-6.787  c-0.425-1.16-0.83-2.263-1.218-3.26c-0.651-1.659-1.097-6.51-1.57-11.638c-0.688-7.476-1.467-15.942-3.228-21.208  c-3.079-9.176-10.78-17.124-13.389-18.499C25.921,7.272,12.53,1.325,10.302,0.784c-0.43-0.1-0.779-0.236-1.121-0.367  C7.782-0.113,6.69-0.36,4.373,1.068C2.042,2.48,1.756,3.561,1.588,5.047c-0.042,0.357-0.084,0.729-0.189,1.16  C0.853,8.417-0.002,22.952,0,25.346c0.021,2.95,3.538,13.449,10.275,20.398c3.879,3.995,11.118,8.552,17.504,12.572  c4.36,2.746,8.478,5.339,9.646,6.667c0.722,0.824,1.535,1.711,2.396,2.646c2.323,2.535,4.914,5.354,6.898,8.257l-6.898,11.339  l1.898,1.155l6.328-10.404c0.212,0.347,0.43,0.703,0.656,1.076c-2.737,4.488-6.026,9.905-6.026,9.905l1.897,1.155  c0,0,2.834-4.667,5.431-8.93c2.595,4.263,5.433,8.93,5.433,8.93l1.895-1.155c0,0-3.291-5.417-6.028-9.905  c0.226-0.373,0.443-0.729,0.653-1.071l6.341,10.399l1.896-1.155l-6.913-11.333c1.983-2.903,4.577-5.728,6.897-8.258  c0.866-0.934,1.68-1.826,2.404-2.65c1.165-1.328,5.291-3.927,9.647-6.672c6.384-4.021,13.617-8.577,17.491-12.567  c6.756-6.96,10.268-17.454,10.278-20.404C100.011,23.047,99.149,8.422,98.608,6.212z M41.832,42.727l-1.202-0.704  c-0.181-0.1-0.326-0.341-0.331-0.546l-0.071-1.254c-0.011-0.2,0.121-0.284,0.307-0.173l1.076,0.625  C41.688,41.362,41.761,42.044,41.832,42.727z M41.467,39.419l-1.005-0.588c-0.163-0.1-0.32-0.347-0.328-0.546l-0.068-1.25  c-0.01-0.199,0.129-0.289,0.289-0.184l0.855,0.504C41.302,38.034,41.386,38.727,41.467,39.419z M41.034,36.07l-0.73-0.425  c-0.181-0.105-0.317-0.352-0.336-0.556l-0.063-1.244c-0.01-0.205,0.116-0.278,0.294-0.184l0.509,0.294  C40.821,34.643,40.932,35.351,41.034,36.07z M40.034,30.475c0.157,0.693,0.304,1.422,0.443,2.178l-0.346-0.199  c-0.163-0.1-0.315-0.347-0.326-0.546l-0.063-1.26C39.74,30.454,39.863,30.364,40.034,30.475z M39.409,44.055  c0.013,0.194-0.115,0.278-0.286,0.173l-1.089-0.625c-0.176-0.1-0.331-0.341-0.339-0.551l-0.058-1.239  c-0.01-0.21,0.126-0.289,0.299-0.184l1.079,0.635c0.176,0.1,0.328,0.336,0.336,0.546L39.409,44.055z M39.25,40.868  c0.016,0.2-0.118,0.284-0.297,0.179l-1.076-0.63c-0.184-0.1-0.325-0.347-0.333-0.551l-0.068-1.25  c-0.005-0.194,0.118-0.278,0.299-0.178l1.079,0.625c0.173,0.105,0.325,0.357,0.338,0.557L39.25,40.868z M39.089,37.677  c0.008,0.199-0.124,0.278-0.302,0.184l-1.073-0.64c-0.179-0.095-0.336-0.341-0.336-0.546l-0.065-1.244  c-0.011-0.2,0.128-0.284,0.291-0.179l1.089,0.63c0.173,0.1,0.317,0.347,0.333,0.546L39.089,37.677z M38.932,34.485  c0,0.2-0.121,0.278-0.307,0.184l-1.073-0.63c-0.173-0.1-0.323-0.347-0.339-0.557l-0.073-1.244c0-0.205,0.128-0.278,0.302-0.189  l1.089,0.641c0.173,0.1,0.317,0.346,0.325,0.551L38.932,34.485z M38.767,31.299c0.013,0.205-0.126,0.278-0.297,0.178l-1.092-0.64  c-0.17-0.095-0.315-0.341-0.326-0.536l-0.071-1.249c0-0.205,0.129-0.289,0.305-0.189l1.076,0.635c0.184,0.1,0.331,0.341,0.336,0.546  L38.767,31.299z M38.535,26.858l0.061,1.254c0.016,0.2-0.115,0.278-0.292,0.184l-1.084-0.635c-0.168-0.1-0.323-0.352-0.336-0.546  l-0.063-1.265c-0.005-0.189,0.126-0.278,0.302-0.173l1.079,0.63C38.38,26.412,38.533,26.653,38.535,26.858z M36.958,22.49  l0.055,0.026c0.459,0.855,0.887,1.727,1.275,2.62c-0.044,0.005-0.092-0.005-0.149-0.042l-1.087-0.63  c-0.173-0.1-0.32-0.347-0.336-0.546l-0.052-1.244C36.646,22.469,36.782,22.391,36.958,22.49z M36.816,45.64  c0.005,0.199-0.131,0.278-0.297,0.173l-1.071-0.619c-0.176-0.1-0.328-0.352-0.344-0.557l-0.063-1.249  c-0.008-0.205,0.121-0.278,0.305-0.184l1.073,0.63c0.179,0.105,0.325,0.352,0.331,0.546L36.816,45.64z M36.664,42.443  c0.002,0.2-0.129,0.278-0.297,0.184l-1.089-0.63c-0.181-0.105-0.328-0.352-0.333-0.546l-0.061-1.25  c-0.01-0.205,0.118-0.278,0.292-0.184l1.082,0.63c0.176,0.1,0.325,0.346,0.333,0.546L36.664,42.443z M36.499,39.262  c0.005,0.194-0.131,0.278-0.299,0.173l-1.086-0.619c-0.176-0.11-0.315-0.357-0.333-0.562l-0.058-1.239  c-0.016-0.205,0.11-0.289,0.297-0.184l1.068,0.63c0.184,0.095,0.333,0.347,0.333,0.546L36.499,39.262z M36.323,36.065  c0.011,0.205-0.118,0.284-0.289,0.184l-1.084-0.635c-0.171-0.089-0.326-0.347-0.333-0.551l-0.063-1.244  c-0.005-0.189,0.131-0.278,0.294-0.178l1.082,0.635c0.178,0.1,0.328,0.347,0.341,0.546L36.323,36.065z M36.168,32.879  c0.01,0.199-0.126,0.278-0.299,0.184l-1.071-0.64c-0.189-0.1-0.341-0.341-0.344-0.551l-0.065-1.244  c-0.016-0.2,0.126-0.278,0.296-0.184l1.082,0.635c0.181,0.1,0.325,0.347,0.336,0.546L36.168,32.879z M36,29.682  c0.008,0.215-0.124,0.289-0.302,0.184l-1.074-0.63c-0.17-0.105-0.325-0.347-0.336-0.551l-0.063-1.25  c-0.002-0.199,0.131-0.283,0.294-0.184l1.087,0.641c0.168,0.1,0.333,0.341,0.333,0.535L36,29.682z M35.848,26.501  c0,0.205-0.126,0.283-0.304,0.184l-1.076-0.635c-0.179-0.1-0.328-0.346-0.333-0.551l-0.065-1.254  c-0.011-0.194,0.118-0.284,0.296-0.184l1.079,0.64c0.171,0.1,0.315,0.341,0.323,0.546L35.848,26.501z M32.575,41.587l1.095,0.641  c0.165,0.094,0.32,0.352,0.328,0.546l0.071,1.26c0,0.194-0.139,0.283-0.302,0.178l-1.089-0.64c-0.173-0.095-0.318-0.341-0.323-0.536  l-0.079-1.26C32.275,41.572,32.407,41.493,32.575,41.587z M32.184,39.834l-0.063-1.239c-0.01-0.205,0.118-0.289,0.297-0.189  l1.081,0.635c0.179,0.1,0.331,0.341,0.339,0.551l0.063,1.244c0,0.199-0.124,0.278-0.305,0.178l-1.073-0.635  C32.341,40.28,32.189,40.028,32.184,39.834z M32.74,44.779l1.089,0.63c0.168,0.11,0.315,0.351,0.325,0.556l0.068,1.249  c0.002,0.21-0.118,0.284-0.299,0.179l-1.084-0.635c-0.17-0.095-0.317-0.342-0.333-0.541l-0.06-1.254  C32.436,44.763,32.567,44.685,32.74,44.779z M35.677,23.309c0.016,0.205-0.126,0.289-0.294,0.184l-1.084-0.635  c-0.168-0.1-0.318-0.347-0.326-0.541L33.9,21.062c-0.008-0.199,0.123-0.278,0.296-0.184l1.082,0.635  c0.181,0.1,0.325,0.341,0.336,0.546L35.677,23.309z M33.929,17.656c0.533,0.729,1.063,1.491,1.572,2.294l0.01,0.168  c0.013,0.205-0.113,0.278-0.296,0.184l-1.079-0.635c-0.173-0.094-0.328-0.346-0.344-0.546l-0.052-1.249  C33.735,17.713,33.813,17.64,33.929,17.656z M33.732,37.645c0.008,0.2-0.126,0.284-0.297,0.184l-1.081-0.635  c-0.179-0.1-0.328-0.347-0.339-0.546l-0.058-1.25c-0.005-0.199,0.118-0.283,0.289-0.184l1.087,0.64  c0.178,0.095,0.317,0.341,0.336,0.546L33.732,37.645z M33.572,34.454c0.008,0.205-0.124,0.283-0.294,0.184l-1.095-0.64  c-0.165-0.095-0.323-0.336-0.328-0.53l-0.06-1.255c-0.011-0.205,0.128-0.283,0.291-0.189l1.089,0.646  c0.17,0.089,0.323,0.341,0.336,0.546L33.572,34.454z M33.407,31.267c0.008,0.2-0.124,0.284-0.299,0.184l-1.081-0.63  c-0.171-0.105-0.323-0.347-0.333-0.551l-0.071-1.255c-0.008-0.199,0.128-0.278,0.307-0.178L33,29.467  c0.181,0.105,0.333,0.352,0.346,0.556L33.407,31.267z M33.244,28.081c0.018,0.205-0.11,0.278-0.292,0.184l-1.092-0.641  c-0.17-0.094-0.326-0.341-0.326-0.546l-0.071-1.26c-0.016-0.199,0.129-0.278,0.305-0.173l1.084,0.635  c0.166,0.1,0.315,0.347,0.328,0.541L33.244,28.081z M26.412,25.619l1.065,0.63c0.189,0.105,0.349,0.346,0.349,0.546l0.068,1.254  c0.013,0.2-0.128,0.284-0.299,0.184l-1.079-0.64c-0.011-0.005-0.019-0.011-0.029-0.021c-0.074-0.614-0.194-1.255-0.357-1.9  C26.173,25.572,26.281,25.545,26.412,25.619z M26.013,23.86l-0.066-1.254c-0.005-0.205,0.129-0.278,0.302-0.189l1.084,0.646  c0.168,0.095,0.325,0.341,0.333,0.541l0.061,1.25c0.005,0.2-0.121,0.289-0.292,0.184l-1.089-0.63  C26.178,24.301,26.019,24.06,26.013,23.86z M27.995,29.992l0.058,1.244c0.011,0.215-0.115,0.283-0.302,0.184l-1.076-0.646  c-0.084-0.042-0.165-0.126-0.226-0.221c0.095-0.541,0.139-1.123,0.129-1.743l1.081,0.625C27.827,29.54,27.981,29.797,27.995,29.992z   M26.74,32.007l1.086,0.625c0.176,0.1,0.326,0.346,0.326,0.551l0.058,1.244c0.021,0.2-0.121,0.289-0.292,0.184l-1.084-0.63  c-0.176-0.105-0.317-0.352-0.325-0.556l-0.066-1.239C26.425,31.981,26.562,31.892,26.74,32.007z M26.897,35.188l1.084,0.635  c0.179,0.1,0.328,0.352,0.328,0.551l0.082,1.233c0,0.215-0.134,0.284-0.302,0.189l-1.087-0.635c-0.178-0.1-0.325-0.341-0.336-0.546  l-0.063-1.249C26.593,35.167,26.722,35.089,26.897,35.188z M27.058,38.375l1.084,0.635c0.179,0.1,0.331,0.346,0.331,0.546  l0.079,1.26c0,0.194-0.121,0.278-0.302,0.178l-1.089-0.635c-0.168-0.1-0.318-0.346-0.336-0.551l-0.058-1.255  C26.758,38.354,26.89,38.27,27.058,38.375z M27.223,41.561l1.086,0.641c0.171,0.1,0.315,0.347,0.328,0.546l0.076,1.25  c0.005,0.194-0.128,0.273-0.302,0.178l-1.079-0.625c-0.173-0.105-0.326-0.347-0.344-0.551l-0.063-1.265  C26.918,41.551,27.05,41.472,27.223,41.561z M30.019,23.461l-1.074-0.625c-0.17-0.105-0.32-0.357-0.328-0.551l-0.063-1.26  c-0.013-0.194,0.116-0.284,0.294-0.184l1.084,0.63c0.168,0.1,0.318,0.346,0.326,0.546l0.06,1.265  C30.331,23.477,30.197,23.561,30.019,23.461z M30.431,25.215l0.05,1.254c0.01,0.2-0.121,0.278-0.289,0.184l-1.086-0.635  c-0.168-0.105-0.323-0.352-0.331-0.546l-0.061-1.255c-0.01-0.205,0.113-0.278,0.289-0.178l1.084,0.63  C30.257,24.763,30.412,25.015,30.431,25.215z M27.401,44.748l1.071,0.646c0.17,0.089,0.333,0.336,0.333,0.541l0.071,1.249  c0.011,0.199-0.128,0.283-0.302,0.179l-1.089-0.63c-0.163-0.1-0.317-0.342-0.325-0.546l-0.068-1.26  C27.092,44.727,27.22,44.653,27.401,44.748z M27.557,47.934l1.071,0.641c0.189,0.104,0.331,0.346,0.341,0.546l0.068,1.254  c0.016,0.2-0.126,0.273-0.302,0.184l-1.076-0.64c-0.178-0.095-0.325-0.347-0.336-0.546l-0.068-1.25  C27.25,47.923,27.375,47.839,27.557,47.934z M28.937,28.658l-0.061-1.249c-0.018-0.194,0.126-0.278,0.302-0.179l1.061,0.625  c0.184,0.105,0.341,0.352,0.341,0.551l0.071,1.244c0.008,0.205-0.126,0.278-0.299,0.184l-1.081-0.63  C29.089,29.104,28.945,28.863,28.937,28.658z M29.331,30.427l1.082,0.625c0.173,0.1,0.328,0.352,0.336,0.546l0.058,1.249  c0.011,0.2-0.11,0.284-0.289,0.184l-1.082-0.635c-0.184-0.1-0.328-0.352-0.333-0.546l-0.066-1.25  C29.021,30.401,29.168,30.322,29.331,30.427z M29.496,33.603l1.084,0.635c0.168,0.1,0.317,0.352,0.333,0.551l0.065,1.244  c0.008,0.21-0.128,0.283-0.305,0.189l-1.076-0.635c-0.179-0.105-0.318-0.341-0.336-0.556l-0.073-1.239  C29.184,33.587,29.317,33.509,29.496,33.603z M29.662,36.8l1.086,0.63c0.176,0.105,0.317,0.346,0.336,0.546l0.063,1.254  c0.005,0.194-0.131,0.273-0.307,0.173l-1.076-0.635c-0.176-0.094-0.328-0.341-0.331-0.546l-0.066-1.244  C29.347,36.784,29.483,36.7,29.662,36.8z M29.819,39.986l1.086,0.63c0.166,0.1,0.323,0.347,0.336,0.546l0.063,1.26  c0,0.194-0.118,0.273-0.302,0.179l-1.076-0.625c-0.178-0.11-0.328-0.357-0.336-0.551l-0.065-1.26  C29.52,39.96,29.648,39.892,29.819,39.986z M29.989,43.173l1.076,0.635c0.176,0.094,0.326,0.346,0.333,0.551l0.068,1.244  c0.005,0.199-0.121,0.283-0.299,0.184l-1.082-0.629c-0.173-0.1-0.323-0.347-0.338-0.546l-0.055-1.265  C29.677,43.157,29.811,43.073,29.989,43.173z M30.145,46.354l1.089,0.641c0.173,0.094,0.32,0.341,0.336,0.54l0.053,1.266  c0.008,0.194-0.126,0.278-0.292,0.168l-1.089-0.625c-0.163-0.104-0.31-0.347-0.328-0.546l-0.061-1.26  C29.845,46.338,29.966,46.259,30.145,46.354z M33.094,24.889c0,0.2-0.131,0.284-0.307,0.179l-1.084-0.63  c-0.168-0.1-0.323-0.347-0.326-0.551l-0.074-1.254c-0.005-0.205,0.124-0.278,0.307-0.184l1.074,0.646  c0.178,0.1,0.328,0.346,0.336,0.546L33.094,24.889z M32.926,21.708c0.008,0.194-0.126,0.273-0.304,0.173l-1.087-0.64  c-0.168-0.089-0.317-0.341-0.325-0.536l-0.076-1.25c0-0.21,0.134-0.283,0.307-0.184l1.086,0.63c0.168,0.105,0.326,0.357,0.326,0.551  L32.926,21.708z M32.31,15.561c0.173,0.21,0.344,0.415,0.517,0.635c-0.016,0.005-0.029,0.016-0.044,0.016  c-0.079,0.005-0.134,0.104-0.124,0.226c0,0.121-0.021,0.262-0.039,0.31c-0.029,0.042-0.029,0.1,0.002,0.126  c0.029,0.011,0.063,0.189,0.073,0.389l0.063,1.249c0.005,0.2-0.128,0.278-0.296,0.184l-1.082-0.641  c-0.181-0.1-0.315-0.21-0.325-0.247c0-0.032-0.037-0.058-0.103-0.058c-0.05,0.005-0.17-0.042-0.283-0.105  c-0.1-0.058-0.231-0.052-0.26,0.016c-0.05,0.073-0.142,0.126-0.231,0.142c-0.081,0-0.136,0.105-0.136,0.22  c0.019,0.126,0,0.263-0.034,0.305c-0.019,0.047-0.013,0.105,0.011,0.115c0.023,0.016,0.068,0.2,0.076,0.394l0.061,1.26  c0.005,0.189-0.128,0.273-0.292,0.173l-1.081-0.63c-0.168-0.1-0.31-0.205-0.31-0.242c0-0.042-0.05-0.063-0.1-0.063  c-0.063,0.016-0.191-0.042-0.296-0.105c-0.1-0.063-0.223-0.052-0.268,0.016c-0.042,0.079-0.134,0.131-0.215,0.131  c-0.082,0.005-0.139,0.11-0.139,0.231c0.01,0.121-0.003,0.263-0.029,0.31c-0.024,0.037-0.024,0.079,0.01,0.1  c0.019,0.021,0.047,0.199,0.061,0.404l0.071,1.244c0.011,0.2-0.124,0.284-0.302,0.189l-1.087-0.64  c-0.165-0.095-0.312-0.205-0.312-0.242c0-0.031-0.045-0.052-0.103-0.058c-0.044,0.005-0.176-0.042-0.278-0.11  c-0.11-0.052-0.231-0.052-0.262,0.021c-0.042,0.068-0.15,0.126-0.215,0.131c-0.086,0-0.149,0.105-0.136,0.236  c0,0.11-0.016,0.241-0.042,0.294c-0.029,0.047-0.024,0.094,0.008,0.121c0.021,0.011,0.071,0.189,0.071,0.389l0.013,0.262  c-0.257-0.562-0.538-1.123-0.848-1.68L32.31,15.561z M21.737,7.908c0.034,0.073,0.061,0.147,0.068,0.221l0.053,1.244  c0.008,0.205-0.126,0.278-0.302,0.173l-1.079-0.625c-0.173-0.1-0.325-0.352-0.336-0.551l-0.058-1.191  C20.648,7.425,21.205,7.671,21.737,7.908z M19.275,10.963c0,0.189-0.128,0.278-0.304,0.178l-1.087-0.63  c-0.165-0.11-0.325-0.352-0.336-0.556l-0.06-1.25c-0.013-0.205,0.121-0.283,0.299-0.184l1.079,0.63  c0.176,0.1,0.336,0.362,0.336,0.551L19.275,10.963z M19.052,6.727l0.045,1.04c0.005,0.194-0.126,0.278-0.294,0.178l-1.082-0.64  c-0.173-0.084-0.328-0.341-0.333-0.536l-0.042-0.782C17.914,6.228,18.483,6.475,19.052,6.727z M16.662,12.538  c0.008,0.194-0.124,0.278-0.305,0.173l-1.065-0.63c-0.168-0.095-0.328-0.352-0.328-0.541l-0.071-1.254  c-0.008-0.205,0.126-0.289,0.296-0.184l1.076,0.63c0.176,0.105,0.325,0.352,0.333,0.551L16.662,12.538z M16.501,9.341  c0.013,0.205-0.126,0.283-0.297,0.189L15.128,8.9c-0.176-0.11-0.325-0.357-0.333-0.551l-0.071-1.254  c-0.011-0.2,0.126-0.284,0.302-0.184l1.071,0.635c0.189,0.095,0.336,0.347,0.341,0.546L16.501,9.341z M16.315,5.54l0.032,0.614  c0.002,0.194-0.131,0.278-0.297,0.179L14.96,5.698c-0.173-0.1-0.32-0.352-0.336-0.536l-0.013-0.341  C15.16,5.047,15.729,5.288,16.315,5.54z M14.068,14.107c0.005,0.2-0.121,0.284-0.294,0.184l-1.089-0.63  c-0.166-0.1-0.317-0.341-0.331-0.551l-0.05-1.25c-0.013-0.199,0.113-0.273,0.286-0.184l1.084,0.635  c0.168,0.105,0.323,0.346,0.333,0.551L14.068,14.107z M13.905,10.921c0.013,0.205-0.121,0.278-0.302,0.178l-1.079-0.625  c-0.17-0.1-0.323-0.346-0.323-0.546l-0.076-1.26c-0.005-0.189,0.126-0.273,0.296-0.173l1.087,0.625  c0.176,0.105,0.325,0.347,0.331,0.551L13.905,10.921z M13.748,7.74c0.01,0.194-0.137,0.278-0.302,0.178l-1.079-0.635  c-0.179-0.1-0.315-0.347-0.326-0.546l-0.084-1.255c0-0.199,0.131-0.283,0.31-0.178l1.084,0.625c0.173,0.1,0.323,0.357,0.326,0.551  L13.748,7.74z M13.578,4.385l0.008,0.158c0,0.199-0.131,0.278-0.299,0.178l-1.079-0.619c-0.129-0.079-0.25-0.236-0.305-0.394  C12.407,3.908,12.968,4.139,13.578,4.385z M11.483,15.682c0,0.21-0.126,0.289-0.307,0.184l-1.084-0.625  c-0.168-0.1-0.317-0.352-0.323-0.546L9.69,13.44c0-0.205,0.128-0.283,0.31-0.178l1.071,0.63c0.179,0.1,0.323,0.346,0.331,0.546  L11.483,15.682z M11.305,12.501c0.016,0.194-0.124,0.273-0.292,0.184L9.929,12.06c-0.16-0.11-0.307-0.352-0.333-0.551l-0.052-1.26  c-0.016-0.2,0.115-0.284,0.281-0.179l1.094,0.63c0.171,0.1,0.315,0.347,0.326,0.551L11.305,12.501z M11.152,9.309  c0,0.205-0.118,0.284-0.305,0.184l-1.073-0.63c-0.179-0.1-0.328-0.352-0.344-0.541L9.373,7.068c0-0.21,0.124-0.284,0.297-0.184  l1.079,0.63c0.176,0.1,0.323,0.346,0.333,0.546L11.152,9.309z M9.509,3.687l1.086,0.63c0.171,0.11,0.326,0.352,0.326,0.551  l0.065,1.25c0.011,0.2-0.139,0.289-0.299,0.184L9.604,5.677c-0.176-0.1-0.325-0.347-0.333-0.551l-0.055-1.25  C9.197,3.677,9.333,3.598,9.509,3.687z M8.879,17.272c0.016,0.194-0.121,0.284-0.307,0.173l-1.071-0.62  c-0.179-0.1-0.326-0.352-0.333-0.556l-0.061-1.239c-0.016-0.205,0.121-0.284,0.294-0.184l1.071,0.63  c0.181,0.1,0.333,0.347,0.333,0.546L8.879,17.272z M8.714,14.07c0.016,0.205-0.124,0.284-0.294,0.189l-1.082-0.64  c-0.17-0.095-0.325-0.341-0.325-0.541l-0.076-1.249c-0.011-0.194,0.136-0.289,0.31-0.184l1.071,0.635  c0.181,0.1,0.32,0.347,0.333,0.541L8.714,14.07z M8.551,10.889c0,0.2-0.121,0.278-0.302,0.184l-1.082-0.625  c-0.166-0.115-0.315-0.357-0.326-0.556L6.788,8.637C6.785,8.438,6.905,8.359,7.082,8.454l1.081,0.641  c0.158,0.1,0.318,0.341,0.328,0.551L8.551,10.889z M8.396,7.698c0.005,0.21-0.121,0.278-0.31,0.178l-1.073-0.63  C6.842,7.152,6.69,6.9,6.685,6.706l-0.058-1.25c-0.019-0.205,0.11-0.283,0.289-0.173l1.076,0.619  c0.176,0.105,0.325,0.352,0.325,0.551L8.396,7.698z M7.055,2.259l0.771,0.457c0.181,0.1,0.331,0.341,0.336,0.551l0.068,1.255  c0.01,0.194-0.126,0.273-0.294,0.173L6.858,4.06C6.685,3.965,6.536,3.719,6.522,3.514L6.462,2.454  C6.69,2.354,6.882,2.291,7.055,2.259z M6.286,18.863c0.008,0.194-0.124,0.278-0.292,0.178L4.9,18.401  c-0.163-0.1-0.315-0.346-0.331-0.546l-0.058-1.26c-0.005-0.189,0.129-0.273,0.294-0.173l1.087,0.635  c0.17,0.095,0.331,0.347,0.336,0.551L6.286,18.863z M6.126,15.661c0.002,0.205-0.121,0.283-0.296,0.178l-1.092-0.635  c-0.181-0.1-0.325-0.341-0.331-0.546l-0.063-1.244c-0.008-0.205,0.129-0.283,0.294-0.184l1.089,0.625  c0.168,0.116,0.326,0.357,0.336,0.557L6.126,15.661z M5.958,12.464c0.016,0.205-0.118,0.289-0.296,0.189l-1.092-0.635  c-0.17-0.095-0.31-0.357-0.317-0.546l-0.079-1.244c-0.005-0.205,0.128-0.284,0.31-0.184l1.071,0.63  c0.192,0.094,0.339,0.346,0.341,0.541L5.958,12.464z M5.803,9.288c0.01,0.189-0.124,0.278-0.299,0.173L4.415,8.826  C4.252,8.732,4.097,8.49,4.089,8.28L4.019,7.026C4.011,6.832,4.142,6.748,4.31,6.842l1.089,0.64c0.173,0.1,0.331,0.352,0.336,0.551  L5.803,9.288z M5.457,3.01C5.433,3.099,5.368,3.141,5.278,3.125C5.336,3.083,5.391,3.047,5.457,3.01z M4.38,3.797l0.856,0.499  c0.178,0.105,0.317,0.352,0.328,0.546l0.076,1.249c0.013,0.205-0.129,0.284-0.31,0.184L4.26,5.645  C4.079,5.54,3.935,5.293,3.918,5.099L3.895,4.627C3.969,4.328,4.103,4.076,4.38,3.797z M3.157,9.981l0.047,0.877  c0.005,0.136-0.052,0.21-0.142,0.215C3.095,10.695,3.126,10.328,3.157,9.981z M2.966,12.254l0.008,0.005  c0.171,0.1,0.315,0.341,0.331,0.546l0.058,1.25c0.008,0.2-0.121,0.284-0.294,0.184L2.83,14.097  C2.874,13.467,2.921,12.853,2.966,12.254z M2.75,15.23l0.368,0.215c0.181,0.1,0.333,0.346,0.338,0.556l0.082,1.239  c0.008,0.205-0.128,0.278-0.305,0.184l-0.606-0.352C2.667,16.459,2.708,15.845,2.75,15.23z M2.557,18.202l0.732,0.436  c0.176,0.1,0.326,0.347,0.333,0.546l0.076,1.25c0,0.2-0.126,0.284-0.305,0.184L2.446,20.06C2.48,19.461,2.517,18.837,2.557,18.202z   M2.386,21.199l1.071,0.619c0.166,0.105,0.312,0.215,0.32,0.247c0,0.037,0.04,0.058,0.097,0.053c0.047-0.005,0.184,0.047,0.278,0.11  c0.107,0.063,0.226,0.052,0.262-0.011c0.061-0.063,0.142-0.126,0.226-0.136c0.084-0.005,0.149-0.105,0.131-0.226  c-0.005-0.121,0.013-0.262,0.047-0.304c0.019-0.042,0.019-0.095-0.019-0.116c-0.029-0.016-0.058-0.194-0.063-0.394l-0.068-1.254  c-0.008-0.2,0.121-0.278,0.302-0.179l1.082,0.63c0.184,0.1,0.32,0.215,0.32,0.252c0.005,0.037,0.04,0.063,0.097,0.053  c0.053,0,0.173,0.037,0.286,0.105c0.103,0.068,0.223,0.052,0.26-0.011c0.042-0.068,0.139-0.126,0.234-0.131  c0.073-0.011,0.131-0.11,0.121-0.236c0-0.121,0.01-0.252,0.031-0.299c0.024-0.047,0.032-0.1,0-0.11  c-0.021-0.026-0.06-0.194-0.071-0.399l-0.063-1.25c-0.016-0.199,0.118-0.283,0.297-0.184l1.086,0.63  c0.168,0.105,0.315,0.215,0.315,0.247c0.005,0.031,0.04,0.063,0.1,0.058c0.053-0.005,0.184,0.047,0.276,0.105  c0.115,0.068,0.241,0.058,0.283-0.011c0.034-0.068,0.145-0.131,0.215-0.136c0.074-0.005,0.134-0.1,0.134-0.226  c-0.008-0.126,0.011-0.263,0.032-0.299c0.023-0.053,0.029-0.105-0.005-0.116c-0.026-0.016-0.061-0.199-0.068-0.394l-0.058-1.26  c-0.019-0.2,0.118-0.278,0.283-0.173l1.079,0.625c0.17,0.1,0.317,0.215,0.317,0.247c0,0.031,0.053,0.068,0.108,0.052  c0.055,0,0.178,0.047,0.289,0.116c0.092,0.063,0.21,0.052,0.265-0.021c0.034-0.068,0.126-0.126,0.218-0.131  c0.084-0.005,0.134-0.11,0.134-0.231c-0.013-0.116,0.008-0.257,0.042-0.299c0.026-0.047,0.026-0.1-0.019-0.115  c-0.023-0.021-0.063-0.2-0.063-0.399l-0.065-1.255c-0.008-0.194,0.121-0.278,0.299-0.173l1.076,0.63  c0.178,0.095,0.312,0.215,0.312,0.247c0,0.031,0.055,0.058,0.103,0.052c0.053,0,0.184,0.053,0.296,0.105  c0.103,0.068,0.221,0.063,0.268-0.005c0.037-0.079,0.131-0.126,0.21-0.131c0.079-0.011,0.144-0.11,0.139-0.236  c-0.019-0.126,0.005-0.252,0.034-0.305c0.026-0.037,0.016-0.1-0.002-0.11c-0.031-0.016-0.068-0.205-0.068-0.394l-0.076-1.244  c-0.008-0.205,0.126-0.289,0.302-0.184l1.086,0.625c0.166,0.1,0.307,0.221,0.312,0.247c-0.005,0.042,0.044,0.073,0.094,0.063  c0.055,0,0.189,0.042,0.294,0.11c0.105,0.062,0.223,0.047,0.268-0.021c0.039-0.068,0.131-0.131,0.212-0.131s0.145-0.116,0.145-0.236  c-0.026-0.126,0-0.257,0.023-0.31c0.023-0.037,0.023-0.084-0.005-0.1c-0.026-0.021-0.06-0.199-0.063-0.399l-0.068-1.254  c-0.016-0.2,0.121-0.278,0.297-0.173l1.086,0.625c0.166,0.1,0.318,0.22,0.307,0.252c0.011,0.031,0.053,0.063,0.103,0.052  c0.06,0,0.189,0.047,0.294,0.105c0.102,0.063,0.215,0.053,0.26-0.01c0.04-0.068,0.134-0.131,0.218-0.131  c0.079-0.011,0.134-0.105,0.134-0.231c-0.005-0.121,0.013-0.257,0.032-0.31c0.031-0.042,0.031-0.094-0.008-0.11  c-0.024-0.011-0.055-0.189-0.063-0.389l-0.071-1.265c-0.01-0.194,0.124-0.268,0.305-0.173l1.079,0.64  c0.181,0.095,0.32,0.21,0.326,0.242c0.008,0.031,0.047,0.052,0.1,0.052c0.04,0,0.168,0.053,0.273,0.11  c0.108,0.058,0.223,0.052,0.265-0.016c0.047-0.063,0.137-0.126,0.215-0.126c0.086-0.016,0.155-0.116,0.144-0.236  c-0.01-0.126,0-0.257,0.032-0.305c0.031-0.042,0.031-0.105-0.008-0.115c-0.024-0.016-0.058-0.2-0.066-0.404l-0.063-1.239  c-0.016-0.2,0.121-0.278,0.284-0.184l1.089,0.635c0.176,0.1,0.32,0.215,0.31,0.242c0.011,0.042,0.055,0.068,0.103,0.068  c0.065-0.011,0.194,0.042,0.294,0.094c0.102,0.074,0.231,0.058,0.262-0.005c0.019-0.031,0.05-0.052,0.082-0.079  c0.126,0.058,0.244,0.116,0.359,0.168L2.257,23.897C2.286,23.162,2.331,22.238,2.386,21.199z M6.956,37.598  c-0.48-0.819-0.927-1.643-1.336-2.452l0.953,0.551c0.178,0.105,0.331,0.352,0.333,0.551l0.063,1.249  C6.971,37.54,6.963,37.572,6.956,37.598z M7.785,33.666c-0.008-0.189,0.124-0.273,0.289-0.168l1.087,0.625  c0.173,0.1,0.325,0.346,0.336,0.546l0.063,1.26c0.005,0.194-0.121,0.273-0.289,0.178l-1.084-0.63  c-0.179-0.1-0.331-0.346-0.341-0.556L7.785,33.666z M8.008,38.107l-0.063-1.254c0-0.194,0.128-0.273,0.296-0.168l1.084,0.625  c0.17,0.095,0.333,0.347,0.336,0.541l0.063,1.265c0.01,0.199-0.121,0.273-0.294,0.178l-1.076-0.646  C8.168,38.553,8.016,38.307,8.008,38.107z M8.375,39.855c0.008,0.005,0.016,0.005,0.026,0.011l1.095,0.63  c0.17,0.105,0.323,0.352,0.323,0.551l0.05,0.855C9.344,41.236,8.848,40.553,8.375,39.855z M10.375,32.091  c-0.003-0.205,0.123-0.283,0.31-0.184l1.073,0.635c0.171,0.094,0.323,0.341,0.331,0.541l0.071,1.254  c0.019,0.2-0.129,0.284-0.302,0.179l-1.089-0.635c-0.16-0.089-0.315-0.346-0.326-0.535L10.375,32.091z M10.538,35.283  c-0.005-0.205,0.131-0.284,0.294-0.184l1.089,0.63c0.176,0.1,0.325,0.352,0.331,0.551l0.071,1.255  c0.011,0.199-0.121,0.283-0.307,0.184l-1.079-0.635c-0.168-0.1-0.32-0.352-0.328-0.551L10.538,35.283z M10.704,38.464  c-0.016-0.194,0.126-0.278,0.299-0.179l1.079,0.635c0.184,0.1,0.328,0.346,0.336,0.541l0.068,1.255c0,0.205-0.126,0.278-0.302,0.184  l-1.076-0.635c-0.184-0.1-0.325-0.336-0.336-0.546L10.704,38.464z M12.354,44.097l-1.089-0.641  c-0.176-0.105-0.326-0.346-0.344-0.551l-0.047-1.244c-0.016-0.21,0.113-0.289,0.286-0.184l1.089,0.63  c0.173,0.105,0.325,0.347,0.333,0.551l0.066,1.255C12.653,44.112,12.525,44.191,12.354,44.097z M12.887,28.884  c0-0.042-0.047-0.068-0.1-0.058c-0.042,0-0.173-0.052-0.273-0.121c-0.113-0.058-0.234-0.058-0.276,0.011  c-0.037,0.084-0.142,0.142-0.212,0.142c-0.089,0.005-0.15,0.1-0.137,0.231c0.005,0.115-0.013,0.252-0.042,0.304  c-0.021,0.042-0.021,0.084,0.011,0.105c0.031,0.021,0.063,0.194,0.071,0.399l0.063,1.255c0.008,0.199-0.121,0.283-0.294,0.178  l-1.082-0.63c-0.181-0.1-0.315-0.215-0.328-0.241c0-0.032-0.034-0.063-0.081-0.058c-0.063,0.005-0.184-0.042-0.297-0.104  c-0.1-0.068-0.223-0.058-0.265,0.005c-0.042,0.074-0.136,0.131-0.215,0.142c-0.092,0-0.145,0.1-0.137,0.226  c0.011,0.121-0.016,0.262-0.042,0.304c-0.016,0.042-0.023,0.095,0.011,0.11c0.031,0.016,0.052,0.189,0.071,0.394l0.065,1.25  c0.011,0.2-0.121,0.284-0.302,0.184l-1.068-0.63c-0.184-0.105-0.325-0.215-0.325-0.241c0-0.037-0.045-0.058-0.092-0.058  c-0.055,0-0.186-0.052-0.289-0.115c-0.11-0.058-0.231-0.053-0.273,0.016c-0.044,0.068-0.145,0.137-0.212,0.137  c-0.082,0.005-0.134,0.105-0.131,0.215c0,0.121-0.013,0.252-0.042,0.31c-0.037,0.047-0.037,0.105,0.008,0.126  c0.032,0.016,0.061,0.194,0.079,0.399l0.053,1.249c0.01,0.194-0.116,0.278-0.294,0.179l-1.092-0.63  c-0.163-0.11-0.315-0.226-0.315-0.252c0-0.037-0.045-0.068-0.103-0.068c-0.034,0.011-0.097-0.016-0.168-0.042  c-0.147-0.32-0.289-0.635-0.422-0.95l7.987-4.861c0.386,0.578,0.787,1.129,1.205,1.648l-0.383-0.226  C13.037,29.021,12.897,28.905,12.887,28.884z M12.979,30.496c-0.013-0.194,0.118-0.268,0.289-0.173l1.089,0.635  c0.163,0.1,0.32,0.341,0.326,0.551l0.071,1.25c0,0.194-0.129,0.278-0.299,0.178l-1.082-0.625c-0.173-0.1-0.32-0.352-0.336-0.551  L12.979,30.496z M13.131,33.698c0-0.2,0.128-0.278,0.312-0.179l1.061,0.63c0.189,0.105,0.328,0.347,0.341,0.546l0.071,1.25  c0.01,0.2-0.121,0.284-0.299,0.179l-1.081-0.63c-0.179-0.095-0.32-0.347-0.336-0.541L13.131,33.698z M13.294,36.884  c0-0.194,0.131-0.284,0.31-0.184l1.074,0.635c0.173,0.1,0.317,0.352,0.333,0.551l0.066,1.254c0.002,0.194-0.121,0.278-0.294,0.184  l-1.089-0.635c-0.168-0.105-0.32-0.341-0.32-0.551L13.294,36.884z M13.459,40.07c-0.005-0.194,0.126-0.278,0.299-0.173l1.087,0.63  c0.165,0.105,0.317,0.347,0.331,0.541l0.058,1.26c0.008,0.205-0.121,0.283-0.296,0.179l-1.068-0.63  c-0.184-0.1-0.333-0.352-0.333-0.551L13.459,40.07z M13.685,44.517l-0.065-1.25c-0.016-0.205,0.128-0.283,0.302-0.189l1.081,0.635  c0.173,0.105,0.318,0.347,0.333,0.551l0.063,1.254c0.011,0.199-0.124,0.278-0.294,0.174l-1.079-0.63  C13.84,44.963,13.693,44.721,13.685,44.517z M14.233,46.359l0.929,0.546c0.158,0.09,0.289,0.284,0.328,0.468  C15.055,47.031,14.635,46.695,14.233,46.359z M12.365,22.69c-0.632,1.013-0.821,1.974-0.564,2.761l-8.231,5.013  c-0.609-1.627-1.013-3.034-1.21-4.026l25.467-15.501c0.79,0.63,1.848,1.627,3.019,2.918l-8.475,5.16  c-0.504-0.509-1.286-0.787-2.26-0.787c-1.37,0-3.034,0.535-4.572,1.475C14.173,20.538,13.044,21.598,12.365,22.69z M15.732,32.123  c-0.008-0.21,0.123-0.289,0.302-0.184l0.142,0.084c0.41,0.347,0.824,0.667,1.239,0.95c0.016,0.047,0.029,0.095,0.032,0.142  l0.06,1.26c0.008,0.194-0.128,0.278-0.291,0.184l-1.082-0.635c-0.181-0.105-0.328-0.346-0.333-0.551L15.732,32.123z M15.903,35.309  c-0.01-0.205,0.118-0.283,0.299-0.178l1.073,0.625c0.171,0.1,0.323,0.352,0.331,0.546l0.063,1.255  c0.01,0.199-0.121,0.278-0.294,0.178l-1.089-0.635c-0.171-0.094-0.315-0.341-0.326-0.541L15.903,35.309z M16.068,38.501  c-0.013-0.205,0.118-0.289,0.289-0.184l1.082,0.63c0.17,0.1,0.32,0.352,0.325,0.551l0.066,1.25c0.013,0.2-0.124,0.278-0.292,0.184  l-1.079-0.63c-0.171-0.1-0.326-0.346-0.333-0.551L16.068,38.501z M16.223,41.682c-0.019-0.194,0.124-0.289,0.296-0.173l1.071,0.625  c0.181,0.1,0.331,0.352,0.344,0.546l0.068,1.255c0,0.199-0.126,0.283-0.302,0.178l-1.076-0.625c-0.184-0.1-0.325-0.352-0.336-0.541  L16.223,41.682z M16.375,44.874c-0.011-0.199,0.139-0.278,0.302-0.179l1.086,0.625c0.171,0.105,0.323,0.356,0.326,0.551l0.065,1.255  c0.016,0.205-0.118,0.283-0.296,0.179l-1.079-0.625c-0.165-0.1-0.32-0.347-0.333-0.557L16.375,44.874z M16.554,48.18l-0.005-0.115  c-0.01-0.199,0.121-0.283,0.292-0.184l1.082,0.635c0.178,0.101,0.325,0.342,0.341,0.547l0.018,0.378  C17.688,49.02,17.113,48.6,16.554,48.18z M18.496,33.729c0-0.031,0.008-0.058,0.013-0.079c0.514,0.278,1.026,0.509,1.527,0.683  c0.092,0.115,0.158,0.262,0.163,0.394l0.071,1.254c0,0.205-0.121,0.284-0.302,0.184L18.89,35.53c-0.16-0.1-0.32-0.347-0.336-0.551  L18.496,33.729z M18.659,36.921c-0.013-0.2,0.118-0.289,0.302-0.179l1.071,0.625c0.181,0.105,0.318,0.352,0.333,0.551l0.061,1.25  c0.016,0.205-0.113,0.278-0.297,0.179l-1.068-0.63c-0.184-0.1-0.331-0.341-0.331-0.551L18.659,36.921z M18.819,40.107  c-0.008-0.199,0.124-0.273,0.305-0.178l1.076,0.63c0.166,0.105,0.32,0.352,0.328,0.551l0.066,1.244  c0.01,0.21-0.121,0.283-0.297,0.189l-1.081-0.635c-0.173-0.105-0.326-0.341-0.339-0.551L18.819,40.107z M18.977,43.293  c-0.005-0.194,0.128-0.283,0.299-0.178l1.087,0.63c0.173,0.1,0.325,0.352,0.331,0.551l0.065,1.244  c0.011,0.2-0.131,0.273-0.296,0.184l-1.092-0.625c-0.168-0.105-0.318-0.352-0.328-0.546L18.977,43.293z M19.147,46.491  c-0.011-0.205,0.128-0.284,0.294-0.189l1.079,0.641c0.176,0.095,0.323,0.347,0.333,0.546l0.073,1.255  c0,0.199-0.128,0.277-0.304,0.184l-1.079-0.641c-0.173-0.1-0.328-0.347-0.333-0.546L19.147,46.491z M19.331,50.18l-0.026-0.514  c-0.003-0.189,0.121-0.273,0.302-0.179l1.079,0.641c0.168,0.1,0.323,0.346,0.341,0.551l0.029,0.678  C20.475,50.962,19.897,50.575,19.331,50.18z M21.254,35.335c-0.016-0.205,0.118-0.283,0.297-0.184l1.076,0.635  c0.176,0.094,0.328,0.346,0.336,0.551l0.06,1.255c0.011,0.199-0.118,0.283-0.291,0.184l-1.082-0.635  c-0.17-0.105-0.326-0.352-0.333-0.546L21.254,35.335z M21.409,38.527c-0.016-0.199,0.124-0.283,0.302-0.178l1.081,0.63  c0.171,0.1,0.323,0.352,0.333,0.551l0.071,1.244c0,0.21-0.124,0.283-0.307,0.184l-1.086-0.635c-0.16-0.1-0.312-0.346-0.323-0.546  L21.409,38.527z M21.575,41.719c-0.008-0.21,0.129-0.284,0.299-0.184l1.082,0.635c0.165,0.095,0.325,0.347,0.333,0.546l0.066,1.254  c0.005,0.199-0.124,0.289-0.299,0.184l-1.089-0.635c-0.16-0.1-0.315-0.346-0.323-0.546L21.575,41.719z M21.735,44.9  c-0.013-0.2,0.131-0.273,0.302-0.173l1.079,0.63c0.176,0.095,0.323,0.341,0.341,0.551l0.063,1.249  c0.013,0.2-0.126,0.273-0.302,0.179l-1.076-0.625c-0.184-0.11-0.336-0.352-0.336-0.551L21.735,44.9z M21.9,48.096  c-0.019-0.199,0.131-0.283,0.296-0.184l1.095,0.636c0.17,0.1,0.317,0.352,0.325,0.54l0.066,1.26  c0.005,0.194-0.124,0.273-0.297,0.179l-1.089-0.63c-0.173-0.1-0.317-0.347-0.333-0.546L21.9,48.096z M22.103,52.054l-0.037-0.776  c-0.005-0.194,0.121-0.273,0.299-0.184l1.086,0.641c0.173,0.094,0.318,0.346,0.333,0.556l0.045,0.888  C23.252,52.805,22.677,52.432,22.103,52.054z M23.866,34.286c0.144-0.063,0.286-0.131,0.422-0.215  c0.11-0.068,0.202-0.152,0.305-0.226l0.63,0.367c0.184,0.095,0.325,0.341,0.331,0.546l0.063,1.249  c0.016,0.194-0.121,0.278-0.294,0.179l-1.076-0.635c-0.184-0.1-0.325-0.347-0.344-0.546L23.866,34.286z M24.016,36.942  c-0.016-0.194,0.121-0.278,0.294-0.184l1.079,0.635c0.165,0.105,0.323,0.352,0.341,0.546l0.058,1.265  c0,0.194-0.129,0.278-0.302,0.173l-1.076-0.63c-0.17-0.1-0.32-0.347-0.336-0.541L24.016,36.942z M24.176,40.139  c-0.016-0.205,0.118-0.278,0.297-0.184l1.076,0.63c0.171,0.1,0.318,0.352,0.326,0.551l0.071,1.249  c0.005,0.194-0.115,0.284-0.31,0.184l-1.066-0.635c-0.16-0.1-0.312-0.347-0.331-0.551L24.176,40.139z M24.336,43.325  c0-0.2,0.128-0.273,0.302-0.184l1.079,0.63c0.166,0.1,0.32,0.347,0.32,0.551l0.068,1.25c0.019,0.205-0.116,0.294-0.292,0.184  l-1.081-0.63c-0.173-0.1-0.326-0.347-0.339-0.546L24.336,43.325z M24.494,46.511c-0.005-0.199,0.115-0.278,0.299-0.179l1.082,0.63  c0.17,0.105,0.32,0.342,0.328,0.552l0.065,1.249c0.011,0.205-0.123,0.278-0.296,0.179l-1.066-0.63  c-0.184-0.1-0.336-0.347-0.336-0.541L24.494,46.511z M24.664,49.703c-0.005-0.199,0.128-0.283,0.289-0.178l1.084,0.624  c0.176,0.1,0.323,0.347,0.336,0.546l0.066,1.266c0.008,0.199-0.129,0.283-0.307,0.173l-1.079-0.625  c-0.173-0.104-0.32-0.356-0.328-0.546L24.664,49.703z M26.026,54.59c-0.381-0.242-0.764-0.488-1.147-0.735l-0.05-0.966  c-0.016-0.194,0.123-0.278,0.299-0.168l1.538,0.903c0.176,0.094,0.352,0.1,0.407,0.016c0.058-0.079,0.179-0.152,0.278-0.157  c0.1-0.011,0.168-0.174,0.163-0.379l-0.097-1.784c-0.008-0.205,0.131-0.283,0.294-0.184l1.541,0.897  c0.181,0.1,0.365,0.115,0.412,0.031c0.063-0.089,0.176-0.162,0.278-0.168c0.1-0.011,0.176-0.173,0.155-0.378l-0.089-1.79  c-0.002-0.199,0.118-0.278,0.302-0.184l1.551,0.913c0.173,0.095,0.352,0.116,0.412,0.021c0.042-0.084,0.163-0.157,0.257-0.168  c0.1-0.006,0.173-0.168,0.173-0.367l-0.095-1.796c-0.005-0.21,0.126-0.283,0.292-0.184l1.089,0.641  c0.163,0.095,0.31,0.173,0.31,0.173s0,0,0,0.011c0,0,0.11,0.062,0.239,0.131c0.128,0.074,0.281,0.068,0.317-0.016  c0.063-0.094,0.179-0.168,0.284-0.168c0.089,0,0.155-0.173,0.155-0.372L35.21,46.58c-0.016-0.21,0.118-0.289,0.296-0.184  l1.546,0.908c0.171,0.1,0.354,0.104,0.399,0.026c0.066-0.095,0.176-0.174,0.278-0.174c0.095-0.005,0.171-0.173,0.171-0.367  l-0.092-1.795c-0.019-0.199,0.118-0.283,0.294-0.184l1.538,0.903c0.178,0.1,0.357,0.121,0.409,0.037  c0.053-0.1,0.173-0.163,0.268-0.168c0.11-0.01,0.179-0.178,0.168-0.378l-0.092-1.79c-0.013-0.194,0.126-0.278,0.299-0.184  l1.263,0.74c0.029,0.294,0.058,0.583,0.084,0.872L26.026,54.59z M34.317,59.13l-1.084-0.63c-0.163-0.11-0.315-0.352-0.333-0.556  l-0.061-1.244c-0.008-0.2,0.124-0.273,0.302-0.174l1.071,0.625c0.179,0.095,0.326,0.347,0.336,0.546l0.058,1.255  C34.617,59.147,34.488,59.231,34.317,59.13z M35.443,55.121c-0.013-0.2,0.118-0.278,0.294-0.179l1.079,0.635  c0.173,0.105,0.315,0.342,0.323,0.552l0.076,1.244c0.008,0.194-0.118,0.272-0.299,0.178l-1.082-0.63  c-0.17-0.1-0.317-0.352-0.328-0.546L35.443,55.121z M37.079,60.737L36,60.107c-0.176-0.1-0.326-0.347-0.326-0.551l-0.071-1.244  c-0.008-0.199,0.118-0.283,0.289-0.184l1.089,0.635c0.166,0.105,0.32,0.352,0.331,0.552l0.06,1.233  C37.389,60.758,37.247,60.836,37.079,60.737z M38.026,53.541c-0.008-0.2,0.128-0.278,0.296-0.179l1.086,0.625  c0.179,0.104,0.331,0.352,0.331,0.556l0.065,1.25c0.013,0.194-0.118,0.278-0.299,0.184l-1.081-0.636  c-0.173-0.1-0.323-0.346-0.333-0.551L38.026,53.541z M38.187,56.737c0-0.21,0.131-0.288,0.304-0.188l1.076,0.635  c0.173,0.1,0.328,0.347,0.338,0.546l0.063,1.239c0.019,0.21-0.115,0.288-0.296,0.184l-1.082-0.63  c-0.173-0.095-0.325-0.342-0.341-0.546L38.187,56.737z M38.357,59.923c-0.005-0.205,0.116-0.272,0.294-0.184l1.089,0.635  c0.165,0.1,0.315,0.347,0.325,0.546l0.068,1.255c0.011,0.199-0.128,0.273-0.294,0.179l-1.089-0.641  c-0.16-0.1-0.315-0.347-0.333-0.546L38.357,59.923z M39.092,63.519c-0.152-0.173-0.338-0.356-0.551-0.551  c0.047-0.095,0.147-0.121,0.273-0.048l1.082,0.636c0.189,0.095,0.328,0.341,0.333,0.546l0.034,0.729  C39.853,64.38,39.459,63.939,39.092,63.519z M40.535,50.328c0-0.031-0.034-0.063-0.086-0.053c-0.047-0.011-0.187-0.058-0.289-0.131  c-0.11-0.053-0.231-0.042-0.273,0.031c-0.034,0.058-0.134,0.121-0.226,0.121c-0.071,0.01-0.128,0.11-0.128,0.23  c0.008,0.121-0.01,0.263-0.026,0.31c-0.034,0.048-0.034,0.095,0,0.116c0.026,0.021,0.061,0.194,0.068,0.394l0.066,1.249  c0.01,0.205-0.131,0.278-0.294,0.189l-1.082-0.641c-0.173-0.1-0.32-0.216-0.32-0.247s-0.044-0.053-0.092-0.053  c-0.066,0-0.181-0.047-0.294-0.109c-0.097-0.059-0.229-0.053-0.257,0.016c-0.044,0.073-0.139,0.131-0.223,0.131  c-0.081,0.011-0.136,0.105-0.136,0.236c0.005,0.126-0.013,0.252-0.045,0.299c-0.018,0.053-0.018,0.105,0.011,0.121  c0.034,0.016,0.071,0.199,0.081,0.394l0.063,1.249c0,0.2-0.128,0.284-0.299,0.179l-1.079-0.63c-0.168-0.1-0.312-0.215-0.312-0.246  c-0.008-0.032-0.061-0.063-0.11-0.063c-0.053,0-0.189-0.037-0.286-0.1c-0.107-0.063-0.22-0.058-0.265,0.016  c-0.031,0.068-0.134,0.126-0.212,0.131c-0.087,0.006-0.147,0.11-0.139,0.227c0.008,0.126-0.016,0.262-0.042,0.31  c-0.024,0.042-0.016,0.094,0.013,0.11c0.021,0.021,0.055,0.199,0.073,0.398l0.061,1.249c0.002,0.189-0.118,0.278-0.299,0.174  l-1.082-0.63c-0.173-0.095-0.312-0.205-0.323-0.241c0.011-0.037-0.039-0.059-0.1-0.059c-0.047,0-0.187-0.047-0.281-0.115  c-0.103-0.053-0.215-0.047-0.265,0.016c-0.029,0.074-0.142,0.132-0.215,0.137c-0.079,0.011-0.155,0.11-0.144,0.236  c0.013,0.121-0.011,0.257-0.032,0.305c-0.021,0.052-0.021,0.1,0.008,0.11c0.024,0.016,0.055,0.204,0.074,0.398l0.06,1.249  c0.005,0.2-0.123,0.284-0.294,0.185l-1.097-0.636c-0.163-0.104-0.302-0.21-0.307-0.252c0-0.031-0.052-0.053-0.097-0.053  c-0.055,0.006-0.179-0.042-0.286-0.11c-0.11-0.062-0.226-0.047-0.263,0.017c-0.044,0.073-0.147,0.136-0.22,0.136  c-0.008,0-0.013,0.011-0.021,0.011c-0.103-0.062-0.205-0.126-0.31-0.194c-0.275-0.173-0.556-0.352-0.84-0.53l14.15-8.614  c0.029,0.32,0.06,0.641,0.086,0.95c0.016,0.147,0.029,0.289,0.042,0.431c-0.044,0.031-0.089,0.053-0.131,0.053  c-0.081,0-0.144,0.1-0.136,0.226c0.01,0.121-0.008,0.252-0.032,0.299c-0.029,0.048-0.029,0.101,0,0.121  c0.032,0.011,0.063,0.189,0.076,0.389l0.071,1.254c0.005,0.2-0.131,0.278-0.291,0.185l-1.103-0.636  C40.693,50.458,40.541,50.354,40.535,50.328z M40.625,51.96c-0.01-0.2,0.121-0.278,0.289-0.174l1.089,0.63  c0.168,0.095,0.318,0.342,0.336,0.541l0.063,1.255c0.005,0.194-0.126,0.278-0.302,0.173l-1.076-0.63  c-0.178-0.104-0.331-0.352-0.341-0.546L40.625,51.96z M40.79,55.152c-0.016-0.205,0.121-0.283,0.296-0.184l1.087,0.63  c0.165,0.1,0.323,0.347,0.325,0.546l0.063,1.255c0.008,0.193-0.128,0.277-0.294,0.178l-1.086-0.635  c-0.176-0.1-0.328-0.336-0.328-0.541L40.79,55.152z M40.96,58.338c-0.018-0.2,0.118-0.284,0.294-0.184l1.076,0.63  c0.176,0.104,0.326,0.352,0.326,0.551l0.073,1.244c0.011,0.199-0.123,0.289-0.304,0.188l-1.079-0.63  c-0.17-0.1-0.336-0.352-0.341-0.551L40.96,58.338z M41.113,61.535c0-0.21,0.126-0.288,0.296-0.188l1.087,0.635  c0.165,0.1,0.323,0.347,0.333,0.552l0.047,1.244c0.019,0.199-0.107,0.277-0.281,0.178l-1.089-0.63  c-0.165-0.1-0.315-0.346-0.325-0.551L41.113,61.535z M42.748,67.147l-0.798-0.473c-0.166-0.179-0.331-0.362-0.494-0.541  c-0.034-0.037-0.065-0.068-0.097-0.104c-0.002-0.021-0.01-0.042-0.013-0.063l-0.071-1.255c-0.008-0.194,0.129-0.278,0.297-0.178  l1.084,0.63c0.173,0.109,0.325,0.352,0.328,0.54l0.076,1.26C43.061,67.167,42.929,67.247,42.748,67.147z M43.703,59.939  c-0.005-0.115,0.047-0.184,0.124-0.204c0.076,0.283,0.158,0.535,0.244,0.756c0.197,0.504,0.396,1.039,0.601,1.59l-0.569-0.336  c-0.176-0.1-0.323-0.352-0.326-0.546L43.703,59.939z M43.882,63.136c-0.013-0.2,0.116-0.284,0.294-0.184l1.05,0.63  c0.013,0.042,0.029,0.084,0.045,0.126c0.113,0.304,0.228,0.624,0.344,0.934l0.034,0.74c0.01,0.21-0.116,0.289-0.297,0.179  l-1.089-0.63c-0.163-0.1-0.317-0.347-0.317-0.546L43.882,63.136z M44.1,67.572l-0.071-1.249c0-0.2,0.128-0.284,0.302-0.185  l1.082,0.641c0.184,0.1,0.323,0.342,0.333,0.541l0.071,1.26c0,0.205-0.124,0.278-0.302,0.184l-1.084-0.635  C44.262,68.029,44.103,67.777,44.1,67.572z M44.315,69.298c0.05-0.01,0.107-0.005,0.178,0.037l1.079,0.63  c0.181,0.1,0.336,0.347,0.344,0.551l0.034,0.698C45.415,70.569,44.869,69.928,44.315,69.298z M53.197,67.808  c0.01,0.036,0.021,0.073,0.016,0.126l-0.063,1.254c-0.016,0.2-0.152,0.452-0.333,0.547l-0.53,0.31  C52.604,69.298,52.905,68.553,53.197,67.808z M51.336,72.155c0.079-0.168,0.155-0.331,0.233-0.499  c0.034-0.031,0.068-0.058,0.107-0.079l1.079-0.641c0.168-0.094,0.305-0.016,0.294,0.185l-0.062,1.26  c-0.017,0.194-0.163,0.446-0.345,0.546l-0.837,0.488c-0.165-0.3-0.328-0.604-0.488-0.914L51.336,72.155z M48.43,71.651  c0.082,0.173,0.163,0.346,0.244,0.52l0.016,0.32c-0.163,0.31-0.328,0.619-0.496,0.918l-0.837-0.482  c-0.055-0.032-0.107-0.084-0.155-0.137c-0.029-0.037-0.055-0.073-0.084-0.11c-0.061-0.1-0.1-0.205-0.103-0.299l-0.06-1.26  c-0.011-0.2,0.128-0.278,0.294-0.185l1.089,0.641C48.37,71.598,48.401,71.625,48.43,71.651z M46.811,67.819  c0.289,0.739,0.59,1.485,0.905,2.22l-0.527-0.304c-0.173-0.095-0.326-0.347-0.333-0.547l-0.063-1.26  C46.79,67.886,46.798,67.85,46.811,67.819z M49.916,76.785l-0.042-0.866c-0.005-0.126,0.05-0.2,0.128-0.216  c0.079,0.016,0.129,0.09,0.118,0.216l-0.037,0.871c-0.026,0.047-0.055,0.089-0.082,0.137C49.974,76.878,49.945,76.827,49.916,76.785  z M96.851,10.007c0.026,0.341,0.058,0.698,0.089,1.066c-0.089-0.011-0.142-0.079-0.137-0.215L96.851,10.007z M96.703,12.805  c0.011-0.205,0.157-0.446,0.331-0.546c0.047,0.593,0.095,1.213,0.142,1.843l-0.236,0.136c-0.173,0.095-0.299,0.016-0.299-0.184  L96.703,12.805z M96.541,16.002c0.016-0.21,0.162-0.457,0.33-0.556l0.378-0.221c0.042,0.614,0.084,1.234,0.126,1.853l-0.604,0.347  c-0.168,0.1-0.31,0.021-0.305-0.184L96.541,16.002z M96.367,19.183c0.021-0.199,0.168-0.446,0.347-0.546l0.729-0.436  c0.037,0.641,0.079,1.26,0.11,1.858l-0.95,0.556c-0.163,0.1-0.299,0.016-0.294-0.189L96.367,19.183z M94.74,3.12  c-0.105,0.021-0.174-0.026-0.199-0.126C94.614,3.042,94.672,3.078,94.74,3.12z M94.431,4.842c0.016-0.194,0.162-0.441,0.33-0.546  l0.872-0.499c0.268,0.268,0.398,0.515,0.472,0.809l-0.021,0.488c-0.016,0.199-0.157,0.446-0.336,0.551l-1.092,0.63  c-0.163,0.1-0.305,0.021-0.283-0.184L94.431,4.842z M94.272,8.034c0-0.2,0.152-0.452,0.342-0.551l1.07-0.64  c0.189-0.095,0.305-0.011,0.305,0.184L95.916,8.28c-0.011,0.21-0.157,0.452-0.325,0.546l-1.087,0.635  c-0.184,0.105-0.315,0.016-0.299-0.173L94.272,8.034z M94.104,11.215c0.006-0.194,0.163-0.446,0.342-0.541l1.081-0.63  c0.174-0.1,0.31-0.021,0.294,0.184l-0.058,1.244c-0.016,0.189-0.157,0.451-0.331,0.546l-1.097,0.635  c-0.173,0.1-0.299,0.016-0.294-0.189L94.104,11.215z M93.932,14.417c0.021-0.205,0.173-0.446,0.341-0.557l1.098-0.63  c0.168-0.1,0.299-0.021,0.294,0.184l-0.063,1.244c-0.01,0.205-0.168,0.446-0.336,0.546l-1.086,0.635  c-0.179,0.105-0.31,0.026-0.294-0.178L93.932,14.417z M93.779,17.608c0.006-0.205,0.152-0.457,0.331-0.551l1.092-0.635  c0.168-0.1,0.299-0.021,0.294,0.173l-0.063,1.26c-0.01,0.194-0.168,0.446-0.336,0.546l-1.081,0.641  c-0.179,0.1-0.299,0.016-0.299-0.184L93.779,17.608z M91.837,3.267c0.016-0.21,0.163-0.451,0.347-0.551l0.767-0.457  c0.173,0.032,0.367,0.089,0.593,0.194l-0.058,1.061c-0.016,0.205-0.162,0.451-0.33,0.551l-1.087,0.63  c-0.174,0.1-0.3,0.021-0.3-0.168L91.837,3.267z M91.675,6.454c0.01-0.199,0.162-0.446,0.336-0.551l1.081-0.619  c0.173-0.11,0.294-0.032,0.294,0.173l-0.062,1.255c-0.011,0.189-0.168,0.441-0.331,0.541l-1.076,0.625  c-0.179,0.1-0.31,0.032-0.294-0.178L91.675,6.454z M91.517,9.645c0.011-0.21,0.158-0.451,0.336-0.551l1.071-0.641  c0.179-0.094,0.305-0.016,0.305,0.184l-0.073,1.255c0,0.199-0.147,0.446-0.326,0.556l-1.081,0.625  c-0.179,0.1-0.305,0.016-0.294-0.179L91.517,9.645z M91.359,12.821c0.011-0.194,0.152-0.441,0.325-0.536l1.082-0.641  c0.162-0.1,0.31-0.01,0.299,0.184l-0.058,1.249c-0.016,0.2-0.168,0.446-0.341,0.546l-1.087,0.635c-0.173,0.1-0.3,0.016-0.294-0.184  L91.359,12.821z M91.191,16.023c0-0.199,0.152-0.451,0.336-0.546l1.071-0.635c0.178-0.095,0.314-0.016,0.304,0.189L92.84,16.27  c-0.011,0.199-0.163,0.457-0.341,0.556l-1.071,0.62c-0.184,0.11-0.32,0.021-0.299-0.173L91.191,16.023z M89.081,4.868  c0.011-0.199,0.168-0.441,0.326-0.551l1.092-0.63c0.173-0.089,0.314-0.01,0.294,0.189l-0.059,1.25  c-0.005,0.205-0.162,0.452-0.341,0.551l-1.07,0.625c-0.179,0.105-0.311,0.016-0.305-0.184L89.081,4.868z M88.924,8.06  c0.005-0.2,0.152-0.446,0.336-0.546l1.071-0.63c0.178-0.1,0.299-0.026,0.294,0.184l-0.053,1.254  c-0.021,0.189-0.174,0.441-0.336,0.541l-1.081,0.63c-0.179,0.1-0.305,0.021-0.295-0.184L88.924,8.06z M88.761,11.251  c0.011-0.205,0.152-0.451,0.331-0.551l1.071-0.63c0.188-0.105,0.314-0.021,0.314,0.179l-0.073,1.254  c-0.011,0.205-0.157,0.446-0.336,0.551l-1.076,0.63c-0.179,0.089-0.31,0.011-0.3-0.184L88.761,11.251z M88.599,14.438  c0.01-0.2,0.152-0.446,0.325-0.546l1.092-0.63c0.157-0.105,0.299-0.026,0.289,0.178l-0.058,1.255  c-0.011,0.194-0.168,0.446-0.336,0.546l-1.082,0.625c-0.179,0.105-0.299,0.026-0.299-0.184L88.599,14.438z M86.425,4.391  c0.609-0.252,1.171-0.478,1.67-0.677c-0.053,0.152-0.168,0.31-0.294,0.383l-1.082,0.62c-0.173,0.105-0.31,0.026-0.304-0.173  L86.425,4.391z M86.32,6.485c0.021-0.2,0.168-0.457,0.336-0.551l1.081-0.63c0.174-0.105,0.31-0.021,0.305,0.184l-0.073,1.25  c-0.011,0.199-0.163,0.446-0.326,0.546l-1.076,0.635c-0.184,0.1-0.31,0.016-0.31-0.178L86.32,6.485z M86.163,9.671  c0.01-0.205,0.157-0.446,0.325-0.551l1.087-0.625c0.178-0.1,0.31-0.016,0.288,0.173l-0.058,1.26c0,0.2-0.152,0.446-0.325,0.546  l-1.087,0.625c-0.168,0.1-0.305,0.026-0.294-0.178L86.163,9.671z M85.995,12.863c0.01-0.205,0.168-0.446,0.346-0.551l1.071-0.635  c0.179-0.089,0.299-0.016,0.299,0.184l-0.058,1.25c-0.011,0.21-0.162,0.451-0.336,0.551l-1.081,0.63  c-0.179,0.1-0.315,0.016-0.3-0.184L85.995,12.863z M83.695,5.54c0.583-0.252,1.155-0.493,1.701-0.719l-0.016,0.336  c-0.017,0.189-0.163,0.441-0.347,0.541l-1.076,0.635c-0.168,0.1-0.305,0.016-0.294-0.179L83.695,5.54z M83.569,8.091  c0.011-0.199,0.157-0.451,0.336-0.546l1.061-0.635c0.189-0.1,0.314-0.016,0.31,0.184l-0.068,1.249  c-0.005,0.2-0.157,0.446-0.33,0.551L83.801,9.53c-0.179,0.094-0.305,0.016-0.3-0.189L83.569,8.091z M83.401,11.283  c0.011-0.2,0.168-0.446,0.336-0.551l1.081-0.63c0.168-0.105,0.305-0.021,0.294,0.184L85.05,11.54  c-0.016,0.189-0.168,0.446-0.331,0.541l-1.076,0.63c-0.178,0.105-0.304,0.021-0.299-0.173L83.401,11.283z M80.961,6.721  c0.562-0.247,1.134-0.493,1.695-0.74l-0.042,0.788c-0.011,0.194-0.157,0.446-0.336,0.536l-1.076,0.64  c-0.174,0.1-0.31,0.016-0.3-0.184L80.961,6.721z M80.809,9.703c0.01-0.189,0.157-0.452,0.33-0.551l1.076-0.63  c0.179-0.1,0.315-0.021,0.3,0.184l-0.068,1.25c0,0.205-0.157,0.446-0.325,0.556l-1.093,0.63c-0.168,0.1-0.294,0.011-0.294-0.178  L80.809,9.703z M78.21,8.128c0-0.074,0.021-0.147,0.053-0.221c0.54-0.242,1.092-0.483,1.658-0.735l-0.058,1.202  c-0.011,0.199-0.162,0.451-0.336,0.546l-1.087,0.63c-0.178,0.1-0.304,0.026-0.299-0.179L78.21,8.128z M67.695,15.566l8.231,5.008  c-0.305,0.551-0.583,1.103-0.835,1.659l0.016-0.236c0-0.2,0.031-0.378,0.063-0.389c0.031-0.026,0.042-0.073,0.005-0.121  c-0.026-0.053-0.037-0.184-0.037-0.299c0-0.126-0.052-0.231-0.136-0.231c-0.074-0.005-0.179-0.063-0.221-0.131  c-0.031-0.073-0.157-0.073-0.258-0.021c-0.104,0.063-0.23,0.11-0.288,0.105c-0.053,0.005-0.095,0.032-0.095,0.063  c-0.011,0.037-0.146,0.147-0.32,0.236l-1.081,0.646c-0.174,0.095-0.31,0.011-0.3-0.189l0.059-1.249  c0.016-0.2,0.052-0.378,0.078-0.399c0.021-0.021,0.021-0.068,0-0.105c-0.021-0.047-0.036-0.184-0.036-0.305  c0.01-0.121-0.048-0.226-0.132-0.236c-0.084,0-0.168-0.047-0.21-0.126c-0.053-0.068-0.168-0.079-0.272-0.016  c-0.11,0.063-0.231,0.116-0.294,0.105c-0.048,0-0.095,0.021-0.095,0.063c0,0.037-0.147,0.142-0.32,0.242l-1.065,0.63  c-0.184,0.1-0.305,0.016-0.305-0.173l0.063-1.26c0.005-0.194,0.042-0.378,0.073-0.394c0.031-0.01,0.031-0.068,0.011-0.115  c-0.032-0.042-0.059-0.179-0.042-0.31c0.01-0.11-0.053-0.215-0.137-0.221c-0.079-0.01-0.179-0.063-0.221-0.136  c-0.042-0.068-0.168-0.074-0.263-0.016c-0.11,0.063-0.241,0.105-0.283,0.1c-0.062,0-0.105,0.026-0.105,0.063  c0,0.037-0.146,0.147-0.314,0.247l-1.087,0.641c-0.173,0.094-0.304,0.016-0.294-0.184l0.063-1.249c0-0.2,0.031-0.378,0.078-0.389  c0.021-0.026,0.026-0.084,0-0.126c-0.021-0.047-0.047-0.189-0.047-0.31c0.011-0.121-0.037-0.221-0.121-0.226  c-0.01,0-0.026-0.011-0.042-0.016C67.349,15.981,67.522,15.776,67.695,15.566z M69.921,45.157l-1.081,0.629  c-0.179,0.1-0.305,0.016-0.294-0.184l0.058-1.244c0-0.205,0.152-0.457,0.336-0.551l1.076-0.635c0.168-0.1,0.305-0.016,0.294,0.173  l-0.053,1.265C70.247,44.811,70.089,45.057,69.921,45.157z M70.157,46.538l-0.068,1.26c-0.01,0.199-0.157,0.441-0.336,0.546  l-1.086,0.625c-0.168,0.11-0.305,0.026-0.294-0.168l0.067-1.266c0.011-0.199,0.158-0.446,0.336-0.54l1.082-0.641  C70.037,46.259,70.163,46.338,70.157,46.538z M70.089,41.976l-1.081,0.625c-0.188,0.1-0.315,0.016-0.299-0.179l0.058-1.26  c0.021-0.199,0.162-0.446,0.336-0.546l1.081-0.63c0.179-0.094,0.31-0.026,0.294,0.179l-0.062,1.26  C70.415,41.619,70.257,41.866,70.089,41.976z M70.247,38.769l-1.087,0.635c-0.163,0.1-0.31,0.021-0.3-0.179l0.063-1.254  c0.016-0.194,0.168-0.436,0.336-0.541l1.087-0.63c0.162-0.1,0.31-0.016,0.294,0.178l-0.063,1.244  C70.572,38.427,70.415,38.674,70.247,38.769z M70.415,35.587l-1.092,0.635c-0.168,0.094-0.305,0.021-0.295-0.189l0.063-1.244  c0.016-0.199,0.168-0.452,0.336-0.551l1.081-0.635c0.179-0.094,0.311-0.016,0.311,0.184l-0.074,1.244  C70.729,35.246,70.572,35.482,70.415,35.587z M70.572,32.396l-1.081,0.635c-0.174,0.1-0.315,0.016-0.305-0.184l0.073-1.249  c0.011-0.194,0.157-0.446,0.336-0.546l1.065-0.625c0.194-0.105,0.31-0.026,0.31,0.173l-0.062,1.25  C70.897,32.044,70.745,32.296,70.572,32.396z M69.921,24.669l1.076-0.63c0.174-0.1,0.31-0.026,0.3,0.178l-0.068,1.255  c-0.006,0.194-0.152,0.441-0.331,0.546l-1.081,0.635c-0.179,0.094-0.305,0.016-0.305-0.184l0.073-1.254  C69.596,25.015,69.743,24.763,69.921,24.669z M69.685,23.283l0.059-1.265c0.01-0.2,0.168-0.446,0.341-0.541l1.076-0.635  c0.179-0.1,0.305-0.011,0.294,0.184l-0.063,1.26c0,0.199-0.162,0.446-0.33,0.551l-1.087,0.625  C69.816,23.561,69.68,23.477,69.685,23.283z M69.764,27.855l1.071-0.625c0.168-0.1,0.31-0.016,0.294,0.179l-0.053,1.249  c-0.016,0.205-0.168,0.446-0.336,0.546l-1.092,0.635c-0.179,0.089-0.294,0.016-0.294-0.189l0.073-1.244  C69.428,28.207,69.585,27.96,69.764,27.855z M71.039,49.121c0.011-0.2,0.152-0.441,0.336-0.546l1.087-0.641  c0.157-0.095,0.294-0.011,0.283,0.188l-0.053,1.25c-0.021,0.199-0.178,0.451-0.346,0.546l-1.071,0.635  c-0.188,0.095-0.314,0.021-0.305-0.179L71.039,49.121z M72.509,46.732l-1.076,0.63c-0.178,0.104-0.314,0.021-0.304-0.179  l0.073-1.249c0-0.205,0.146-0.452,0.336-0.541l1.07-0.646c0.179-0.095,0.315-0.021,0.305,0.179l-0.073,1.26  C72.835,46.39,72.692,46.632,72.509,46.732z M72.683,43.551l-1.092,0.625c-0.168,0.095-0.305,0.016-0.294-0.178l0.062-1.25  c0.016-0.199,0.168-0.446,0.336-0.551l1.087-0.635c0.173-0.094,0.289-0.01,0.289,0.173L73.019,43  C72.997,43.199,72.84,43.446,72.683,43.551z M72.84,40.364l-1.081,0.63c-0.189,0.1-0.305,0.016-0.294-0.178l0.062-1.26  c0.011-0.2,0.157-0.446,0.336-0.541l1.081-0.64c0.174-0.105,0.305-0.021,0.295,0.178l-0.063,1.26  C73.155,40.013,73.019,40.259,72.84,40.364z M73.008,37.162l-1.081,0.635c-0.179,0.095-0.305,0.026-0.305-0.189l0.073-1.233  c0-0.2,0.152-0.452,0.325-0.546l1.087-0.641c0.179-0.1,0.3-0.021,0.294,0.179l-0.062,1.254  C73.323,36.821,73.176,37.062,73.008,37.162z M73.165,33.981l-1.081,0.63c-0.168,0.105-0.31,0.016-0.294-0.184l0.058-1.244  c0.005-0.205,0.157-0.446,0.325-0.551l1.087-0.625c0.179-0.11,0.325-0.026,0.294,0.179l-0.053,1.239  C73.491,33.629,73.339,33.876,73.165,33.981z M73.323,30.774l-1.071,0.646c-0.173,0.1-0.31,0.032-0.299-0.184l0.062-1.244  c0-0.194,0.163-0.446,0.331-0.557l1.081-0.625c-0.011,0.614,0.037,1.191,0.131,1.727C73.496,30.637,73.417,30.727,73.323,30.774z   M73.517,27.572c-0.01,0.005-0.016,0.016-0.025,0.021l-1.082,0.64c-0.168,0.1-0.305,0.016-0.294-0.184l0.068-1.254  c0-0.2,0.157-0.441,0.331-0.546l1.081-0.63c0.126-0.074,0.231-0.047,0.273,0.052C73.711,26.317,73.591,26.952,73.517,27.572z   M73.659,24.406l-1.082,0.63c-0.179,0.105-0.314,0.016-0.299-0.184l0.062-1.25c0.006-0.199,0.158-0.446,0.336-0.541l1.087-0.646  c0.168-0.089,0.299-0.016,0.289,0.189l-0.058,1.254C73.984,24.06,73.832,24.301,73.659,24.406z M67.155,20.454  c0.005-0.194,0.157-0.446,0.325-0.551l1.086-0.63c0.179-0.1,0.305-0.026,0.305,0.184l-0.073,1.25  c-0.011,0.194-0.168,0.441-0.336,0.536l-1.087,0.64c-0.173,0.1-0.31,0.021-0.299-0.178L67.155,20.454z M66.981,23.64  c0.011-0.2,0.163-0.446,0.347-0.546l1.07-0.646c0.179-0.094,0.311-0.021,0.294,0.184l-0.062,1.254  c-0.011,0.205-0.157,0.452-0.325,0.551l-1.092,0.63c-0.179,0.1-0.305,0.021-0.3-0.179L66.981,23.64z M66.824,26.821  c0.021-0.194,0.157-0.446,0.336-0.541l1.087-0.64c0.168-0.1,0.31-0.021,0.304,0.178l-0.073,1.26  c-0.011,0.205-0.157,0.452-0.341,0.546l-1.076,0.635c-0.189,0.1-0.32,0.021-0.3-0.178L66.824,26.821z M66.656,30.023  c0.021-0.205,0.168-0.451,0.336-0.556l1.092-0.63c0.157-0.1,0.294-0.021,0.289,0.178l-0.059,1.255  c-0.01,0.205-0.168,0.446-0.33,0.551l-1.098,0.63c-0.168,0.1-0.304,0.016-0.288-0.184L66.656,30.023z M66.488,33.215  c0.011-0.205,0.168-0.457,0.341-0.551l1.076-0.641c0.184-0.1,0.315-0.016,0.305,0.189l-0.063,1.25  c-0.016,0.2-0.157,0.441-0.325,0.53l-1.092,0.646c-0.168,0.1-0.314,0.021-0.294-0.184L66.488,33.215z M66.336,36.401  c0.011-0.199,0.152-0.451,0.341-0.546l1.082-0.64c0.178-0.1,0.294-0.016,0.288,0.189l-0.062,1.244c0,0.199-0.152,0.446-0.342,0.551  l-1.07,0.63c-0.179,0.1-0.305,0.016-0.3-0.184L66.336,36.401z M67.328,43.572l-1.092,0.64c-0.168,0.1-0.305,0.016-0.294-0.178  l0.073-1.26c0-0.194,0.147-0.452,0.325-0.546l1.092-0.641c0.168-0.094,0.305-0.016,0.294,0.189l-0.067,1.255  C67.643,43.23,67.507,43.477,67.328,43.572z M67.554,44.963l-0.047,1.254c-0.021,0.199-0.179,0.446-0.347,0.541l-1.081,0.635  c-0.168,0.105-0.305,0.031-0.289-0.179l0.047-1.249c0.021-0.205,0.179-0.446,0.336-0.556l1.092-0.63  C67.438,44.685,67.569,44.763,67.554,44.963z M67.485,40.38l-1.076,0.635c-0.184,0.1-0.31,0.021-0.31-0.178l0.073-1.244  c0-0.21,0.158-0.452,0.336-0.551l1.071-0.635c0.179-0.1,0.31-0.016,0.305,0.189l-0.063,1.239  C67.801,40.028,67.664,40.28,67.485,40.38z M64.504,19.95c0.515-0.803,1.039-1.564,1.575-2.294c0.115-0.016,0.188,0.063,0.178,0.215  l-0.052,1.249c-0.021,0.2-0.163,0.457-0.336,0.546l-1.076,0.641c-0.185,0.094-0.315,0.016-0.3-0.189L64.504,19.95z M64.383,22.06  c0.016-0.205,0.158-0.446,0.342-0.546l1.076-0.635c0.178-0.095,0.304-0.016,0.299,0.184l-0.062,1.254  c-0.011,0.194-0.168,0.441-0.331,0.541l-1.087,0.635c-0.168,0.105-0.299,0.021-0.299-0.184L64.383,22.06z M64.23,25.246  c0.006-0.205,0.158-0.446,0.336-0.546l1.076-0.64c0.163-0.1,0.3-0.011,0.3,0.184l-0.068,1.254c-0.005,0.21-0.163,0.452-0.331,0.551  l-1.081,0.635c-0.173,0.1-0.305,0.021-0.305-0.184L64.23,25.246z M64.073,28.427c0-0.194,0.147-0.436,0.325-0.535l1.076-0.641  c0.179-0.1,0.315-0.016,0.305,0.184l-0.068,1.25c-0.01,0.205-0.157,0.446-0.346,0.551l-1.061,0.63  c-0.179,0.105-0.315,0.031-0.31-0.184L64.073,28.427z M63.905,31.624c0-0.199,0.157-0.446,0.331-0.546l1.087-0.635  c0.168-0.094,0.304-0.016,0.294,0.184l-0.068,1.244c-0.006,0.21-0.152,0.451-0.336,0.551l-1.076,0.64  c-0.179,0.095-0.315,0.016-0.3-0.184L63.905,31.624z M63.737,34.821c0-0.199,0.157-0.446,0.336-0.546l1.071-0.635  c0.188-0.1,0.314-0.011,0.314,0.178l-0.073,1.244c-0.016,0.205-0.157,0.462-0.336,0.551l-1.081,0.635  c-0.168,0.1-0.31,0.021-0.294-0.184L63.737,34.821z M63.585,38.007c0-0.199,0.152-0.451,0.336-0.546l1.071-0.63  c0.173-0.105,0.299-0.021,0.289,0.184l-0.053,1.239c-0.016,0.205-0.157,0.452-0.336,0.562l-1.092,0.619  c-0.158,0.105-0.305,0.021-0.289-0.173L63.585,38.007z M63.737,40.653l1.082-0.635c0.188-0.095,0.314-0.021,0.304,0.184l-0.062,1.25  c-0.021,0.199-0.157,0.441-0.336,0.546l-1.082,0.635c-0.168,0.089-0.304,0.016-0.299-0.189l0.068-1.244  C63.423,40.994,63.58,40.748,63.737,40.653z M64.955,43.388l-0.062,1.249c-0.011,0.205-0.157,0.457-0.326,0.557l-1.075,0.619  c-0.174,0.105-0.311,0.026-0.3-0.173l0.073-1.26c0-0.194,0.147-0.441,0.32-0.546l1.065-0.635  C64.84,43.11,64.966,43.183,64.955,43.388z M62.992,22.517l0.053-0.026c0.178-0.1,0.31-0.021,0.299,0.184l-0.053,1.244  c-0.026,0.2-0.173,0.452-0.336,0.546l-1.086,0.635c-0.059,0.032-0.105,0.042-0.152,0.037C62.11,24.244,62.53,23.372,62.992,22.517z   M61.465,26.858c0.01-0.205,0.162-0.446,0.341-0.551l1.071-0.63c0.178-0.105,0.314-0.016,0.304,0.173l-0.068,1.265  c-0.005,0.194-0.151,0.446-0.33,0.546l-1.087,0.635c-0.173,0.095-0.31,0.016-0.288-0.184L61.465,26.858z M61.312,30.044  c0-0.21,0.146-0.446,0.325-0.546l1.087-0.635c0.173-0.1,0.299-0.016,0.299,0.184l-0.073,1.254c-0.011,0.194-0.152,0.441-0.325,0.536  l-1.082,0.64c-0.178,0.1-0.314,0.026-0.314-0.178L61.312,30.044z M61.149,33.241c0.006-0.205,0.152-0.452,0.325-0.551l1.098-0.641  c0.157-0.089,0.294-0.016,0.294,0.189l-0.068,1.244c-0.016,0.21-0.173,0.457-0.336,0.557l-1.092,0.63  c-0.173,0.094-0.299,0.016-0.289-0.184L61.149,33.241z M60.977,36.427c0.011-0.199,0.157-0.446,0.336-0.546l1.081-0.63  c0.179-0.105,0.315-0.021,0.294,0.179l-0.062,1.239c0,0.21-0.158,0.457-0.336,0.551l-1.076,0.64  c-0.179,0.095-0.305,0.016-0.305-0.184L60.977,36.427z M60.813,39.619c0.006-0.2,0.163-0.452,0.336-0.557l1.087-0.625  c0.168-0.1,0.299-0.016,0.294,0.178l-0.063,1.25c-0.005,0.205-0.162,0.451-0.336,0.551l-1.081,0.63  c-0.173,0.105-0.305,0.021-0.294-0.179L60.813,39.619z M60.651,42.811c0.01-0.21,0.162-0.446,0.336-0.546l1.081-0.641  c0.173-0.1,0.31-0.021,0.305,0.189l-0.074,1.234c0,0.21-0.152,0.457-0.336,0.551l-1.081,0.63c-0.168,0.1-0.294,0.021-0.294-0.173  L60.651,42.811z M59.969,30.475c0.168-0.11,0.314-0.021,0.294,0.173l-0.063,1.26c-0.016,0.199-0.157,0.446-0.341,0.546l-0.331,0.194  C59.664,31.897,59.811,31.167,59.969,30.475z M59.297,33.955l0.504-0.294c0.168-0.1,0.304-0.021,0.294,0.184l-0.053,1.244  c-0.021,0.205-0.168,0.451-0.336,0.556l-0.74,0.431C59.071,35.351,59.181,34.648,59.297,33.955z M58.793,37.351l0.845-0.499  c0.184-0.105,0.31-0.016,0.299,0.184l-0.067,1.25c-0.017,0.199-0.152,0.446-0.336,0.546l-1.003,0.588  C58.614,38.721,58.698,38.034,58.793,37.351z M58.389,40.685l1.086-0.635c0.179-0.11,0.305-0.026,0.3,0.173l-0.058,1.254  c-0.011,0.205-0.163,0.446-0.336,0.546l-1.213,0.709C58.236,42.049,58.31,41.367,58.389,40.685z M54.058,71.214l0.031-0.698  c0.011-0.204,0.158-0.451,0.336-0.551l1.071-0.63c0.073-0.042,0.137-0.047,0.188-0.037C55.139,69.928,54.593,70.564,54.058,71.214z   M55.916,67.572c-0.011,0.205-0.173,0.457-0.347,0.557l-1.081,0.64c-0.179,0.09-0.3,0.017-0.294-0.188l0.062-1.26  c0.011-0.199,0.158-0.436,0.347-0.541l1.076-0.641c0.163-0.1,0.299-0.016,0.283,0.185L55.916,67.572z M56.062,64.385  c0,0.199-0.146,0.446-0.33,0.546l-1.071,0.63c-0.194,0.11-0.32,0.031-0.31-0.179l0.042-0.75c0.115-0.315,0.236-0.636,0.347-0.945  c0.016-0.031,0.026-0.062,0.042-0.1l1.05-0.635c0.179-0.101,0.305-0.017,0.305,0.184L56.062,64.385z M56.221,61.199  c0,0.194-0.147,0.446-0.315,0.546l-0.572,0.336c0.205-0.551,0.404-1.086,0.604-1.59c0.084-0.221,0.168-0.473,0.242-0.756  c0.073,0.021,0.115,0.094,0.115,0.204L56.221,61.199z M58.656,65.965c0,0.021-0.005,0.042-0.011,0.063  c-0.031,0.036-0.062,0.067-0.1,0.109c-0.163,0.179-0.331,0.357-0.493,0.541l-0.804,0.468c-0.178,0.1-0.294,0.021-0.294-0.185  l0.063-1.26c0.01-0.188,0.168-0.431,0.325-0.54l1.092-0.63c0.168-0.101,0.3-0.017,0.294,0.173L58.656,65.965z M58.824,62.774  c-0.005,0.205-0.157,0.451-0.336,0.551l-1.081,0.625c-0.174,0.104-0.305,0.021-0.294-0.173l0.062-1.244  c0.011-0.205,0.157-0.457,0.341-0.552l1.076-0.635c0.179-0.1,0.305-0.021,0.305,0.188L58.824,62.774z M58.992,59.592  c-0.011,0.2-0.168,0.446-0.336,0.546l-1.081,0.63c-0.168,0.101-0.305,0.011-0.289-0.184l0.058-1.249c0-0.199,0.157-0.44,0.325-0.551  l1.082-0.625c0.178-0.105,0.314-0.016,0.299,0.179L58.992,59.592z M59.149,56.401c0,0.205-0.146,0.441-0.33,0.541l-1.066,0.635  c-0.188,0.1-0.314,0.016-0.304-0.178l0.052-1.255c0.016-0.199,0.168-0.446,0.326-0.546l1.086-0.63c0.174-0.1,0.31-0.021,0.3,0.184  L59.149,56.401z M59.312,53.209c0,0.194-0.152,0.441-0.331,0.546l-1.081,0.63c-0.174,0.11-0.305,0.021-0.294-0.168l0.062-1.26  c0-0.199,0.158-0.446,0.336-0.541l1.082-0.63c0.168-0.104,0.31-0.026,0.294,0.174L59.312,53.209z M60.913,63.525  c-0.367,0.42-0.767,0.855-1.176,1.307l0.037-0.729c0.005-0.205,0.152-0.457,0.325-0.546l1.087-0.641  c0.126-0.068,0.23-0.042,0.272,0.058C61.249,63.167,61.065,63.351,60.913,63.525z M61.575,61.167c0,0.199-0.147,0.446-0.331,0.546  l-1.087,0.635c-0.157,0.101-0.299,0.026-0.283-0.173l0.062-1.255c0.006-0.199,0.158-0.446,0.347-0.546l1.071-0.635  c0.179-0.089,0.305-0.021,0.305,0.184L61.575,61.167z M61.753,57.976c-0.01,0.204-0.168,0.451-0.325,0.546l-1.092,0.63  c-0.179,0.104-0.315,0.026-0.294-0.184l0.053-1.239c0.01-0.199,0.168-0.446,0.336-0.546l1.076-0.635  c0.184-0.1,0.31-0.021,0.299,0.188L61.753,57.976z M61.916,54.794c-0.011,0.205-0.163,0.446-0.341,0.546l-1.082,0.636  c-0.179,0.1-0.31,0.016-0.294-0.184l0.063-1.25c0.01-0.204,0.157-0.451,0.336-0.556l1.081-0.625c0.168-0.1,0.31-0.021,0.294,0.179  L61.916,54.794z M64.336,59.561c-0.011,0.199-0.152,0.446-0.331,0.546l-1.076,0.63c-0.178,0.1-0.314,0.021-0.304-0.184l0.067-1.238  c0.017-0.2,0.163-0.446,0.336-0.552l1.076-0.635c0.185-0.1,0.315-0.016,0.305,0.184L64.336,59.561z M64.499,56.375  c-0.006,0.194-0.163,0.446-0.32,0.546l-1.103,0.63c-0.157,0.101-0.294,0.017-0.278-0.178l0.068-1.244  c0.005-0.21,0.152-0.446,0.325-0.552l1.071-0.635c0.188-0.1,0.304-0.021,0.299,0.179L64.499,56.375z M67.097,57.945  c0,0.204-0.146,0.445-0.33,0.556l-1.076,0.63c-0.179,0.101-0.315,0.017-0.305-0.184l0.073-1.254  c0.011-0.194,0.147-0.446,0.336-0.546l1.065-0.62c0.185-0.1,0.311-0.026,0.311,0.174L67.097,57.945z M71.05,56.438  c-0.11,0.068-0.215,0.131-0.32,0.199c-0.005-0.005-0.011-0.011-0.016-0.016c-0.079,0-0.173-0.058-0.215-0.131  c-0.042-0.063-0.168-0.079-0.269-0.017c-0.109,0.063-0.23,0.116-0.294,0.11c-0.036,0-0.089,0.021-0.089,0.053  c0,0.042-0.146,0.147-0.314,0.247l-1.093,0.641c-0.157,0.094-0.304,0.016-0.294-0.189l0.068-1.244  c0.006-0.194,0.037-0.383,0.068-0.398c0.037-0.011,0.037-0.059,0.011-0.11c-0.031-0.048-0.047-0.184-0.031-0.305  c0.005-0.126-0.063-0.226-0.147-0.236c-0.084-0.005-0.173-0.062-0.221-0.137c-0.042-0.062-0.146-0.068-0.262-0.016  c-0.095,0.063-0.226,0.115-0.294,0.115c-0.048,0-0.09,0.021-0.09,0.059c0,0.036-0.152,0.146-0.32,0.241l-1.081,0.63  c-0.173,0.104-0.305,0.016-0.294-0.174l0.053-1.249c0.011-0.199,0.053-0.378,0.084-0.398c0.021-0.017,0.031-0.068,0-0.11  c-0.016-0.048-0.042-0.184-0.042-0.31c0.021-0.116-0.048-0.221-0.137-0.227c-0.073-0.005-0.173-0.062-0.205-0.131  c-0.047-0.073-0.173-0.079-0.272-0.016c-0.105,0.062-0.236,0.1-0.289,0.1s-0.095,0.031-0.1,0.063c0,0.031-0.146,0.146-0.314,0.246  l-1.071,0.63c-0.194,0.1-0.32,0.021-0.299-0.184l0.052-1.244c0.011-0.194,0.042-0.383,0.084-0.394c0.021-0.016,0.021-0.068,0-0.121  c-0.031-0.047-0.052-0.173-0.042-0.299c0.006-0.131-0.042-0.226-0.131-0.236c-0.079,0-0.184-0.058-0.221-0.131  c-0.036-0.068-0.152-0.074-0.252-0.016c-0.11,0.062-0.236,0.109-0.299,0.109c-0.042,0-0.095,0.021-0.095,0.053  s-0.152,0.147-0.32,0.247l-1.081,0.641c-0.163,0.089-0.3,0.016-0.289-0.189l0.063-1.249c0-0.199,0.042-0.373,0.073-0.394  c0.031-0.021,0.031-0.068,0-0.121c-0.016-0.042-0.042-0.184-0.037-0.305c0-0.12-0.058-0.221-0.131-0.23  c-0.084,0-0.179-0.063-0.221-0.121c-0.047-0.073-0.168-0.084-0.272-0.031c-0.105,0.073-0.236,0.12-0.284,0.126  c-0.047-0.006-0.094,0.021-0.094,0.053c0,0.031-0.158,0.136-0.32,0.246l-1.098,0.63c-0.157,0.1-0.294,0.016-0.288-0.179l0.068-1.254  c0.005-0.205,0.052-0.378,0.073-0.394c0.026-0.021,0.026-0.068,0.005-0.121c-0.026-0.047-0.036-0.173-0.026-0.294  c0-0.131-0.062-0.23-0.136-0.23c-0.048,0-0.101-0.021-0.143-0.053c0.011-0.126,0.021-0.247,0.037-0.373  c0.026-0.331,0.058-0.672,0.089-1.008l14.158,8.614C71.601,56.086,71.323,56.264,71.05,56.438z M75.129,53.85  c-0.389,0.246-0.767,0.493-1.155,0.734l-16.011-9.748c0.021-0.289,0.053-0.572,0.079-0.861l1.265-0.746  c0.179-0.094,0.311-0.01,0.305,0.184l-0.1,1.795c0,0.2,0.073,0.362,0.168,0.373c0.1,0.01,0.226,0.074,0.278,0.168  c0.047,0.084,0.23,0.062,0.398-0.032l1.544-0.908c0.168-0.1,0.31-0.016,0.305,0.184l-0.084,1.795  c-0.011,0.199,0.052,0.367,0.146,0.373c0.11,0,0.226,0.078,0.283,0.168c0.048,0.078,0.231,0.073,0.399-0.026l1.543-0.908  c0.189-0.105,0.305-0.021,0.305,0.184l-0.089,1.785c-0.011,0.204,0.062,0.372,0.162,0.378c0.105,0,0.21,0.068,0.268,0.162  c0.053,0.084,0.2,0.095,0.331,0.016c0.126-0.068,0.236-0.126,0.236-0.126c-0.005-0.01-0.005-0.01-0.005-0.01  s0.136-0.084,0.314-0.174l1.081-0.646c0.179-0.1,0.311-0.021,0.305,0.184l-0.095,1.796c0,0.199,0.063,0.367,0.168,0.367  c0.095,0.016,0.21,0.084,0.263,0.168c0.053,0.095,0.241,0.078,0.399-0.021l1.564-0.908c0.173-0.1,0.299-0.016,0.294,0.179  l-0.095,1.79c-0.011,0.205,0.062,0.373,0.157,0.378c0.11,0.006,0.221,0.079,0.283,0.168c0.053,0.084,0.231,0.068,0.404-0.031  l1.549-0.897c0.168-0.095,0.305-0.016,0.294,0.188l-0.095,1.785c-0.016,0.199,0.063,0.362,0.163,0.373  c0.11,0.005,0.215,0.078,0.268,0.157c0.063,0.089,0.231,0.078,0.415-0.016l1.543-0.903c0.184-0.104,0.299-0.026,0.294,0.174  L75.129,53.85z M75.275,50.962c-0.011,0.194-0.152,0.441-0.325,0.546l-1.087,0.625c-0.162,0.11-0.31,0.031-0.288-0.173l0.052-1.266  c0.011-0.199,0.158-0.446,0.347-0.546l1.076-0.624c0.173-0.105,0.305-0.021,0.294,0.178L75.275,50.962z M75.443,47.771  c-0.011,0.194-0.157,0.441-0.336,0.541l-1.07,0.63c-0.179,0.104-0.305,0.026-0.305-0.174l0.073-1.254  c0.011-0.21,0.147-0.446,0.325-0.552l1.082-0.63c0.168-0.1,0.304-0.021,0.299,0.179L75.443,47.771z M75.606,44.58  c-0.006,0.199-0.157,0.446-0.336,0.546l-1.076,0.63c-0.179,0.11-0.315,0.021-0.294-0.184l0.062-1.25  c0.011-0.205,0.158-0.451,0.331-0.551l1.076-0.63c0.179-0.089,0.31-0.016,0.305,0.184L75.606,44.58z M75.769,41.383  c-0.01,0.205-0.162,0.451-0.325,0.551l-1.081,0.635c-0.184,0.1-0.305,0.011-0.3-0.184l0.068-1.249  c0.011-0.2,0.152-0.452,0.326-0.551l1.081-0.63c0.168-0.095,0.31-0.021,0.294,0.184L75.769,41.383z M75.927,38.202  c-0.011,0.199-0.158,0.446-0.326,0.546l-1.076,0.63c-0.188,0.105-0.319,0.021-0.299-0.173l0.058-1.265  c0.016-0.194,0.163-0.441,0.336-0.546l1.076-0.635c0.179-0.095,0.315-0.011,0.294,0.184L75.927,38.202z M76.104,35.005  c-0.021,0.199-0.178,0.446-0.346,0.546l-1.082,0.635c-0.168,0.1-0.299,0.016-0.288-0.179l0.058-1.249  c0.011-0.205,0.162-0.452,0.325-0.546l0.641-0.373c0.104,0.079,0.199,0.158,0.31,0.226c0.131,0.084,0.273,0.152,0.415,0.215  L76.104,35.005z M77.9,52.044c-0.567,0.383-1.145,0.756-1.722,1.128l0.047-0.882c0.005-0.21,0.152-0.462,0.331-0.556l1.086-0.641  c0.174-0.09,0.3-0.011,0.3,0.184L77.9,52.044z M78.042,49.351c-0.016,0.199-0.163,0.446-0.331,0.546l-1.092,0.63  c-0.173,0.1-0.314,0.016-0.294-0.179l0.063-1.26c0.005-0.188,0.152-0.44,0.33-0.54l1.082-0.636c0.178-0.1,0.32-0.016,0.299,0.184  L78.042,49.351z M78.205,46.16c-0.011,0.205-0.163,0.44-0.342,0.551l-1.076,0.625c-0.179,0.1-0.31,0.021-0.305-0.179l0.068-1.249  c0.016-0.21,0.168-0.457,0.336-0.551l1.087-0.63c0.168-0.1,0.299-0.026,0.294,0.173L78.205,46.16z M78.356,42.973  c-0.005,0.2-0.146,0.441-0.33,0.546l-1.076,0.635c-0.179,0.105-0.31,0.016-0.31-0.184l0.078-1.254  c0.006-0.2,0.152-0.452,0.331-0.546l1.081-0.635c0.179-0.1,0.31-0.026,0.305,0.184L78.356,42.973z M78.52,39.776  c-0.005,0.2-0.163,0.446-0.325,0.546l-1.082,0.635c-0.178,0.1-0.294,0.026-0.294-0.184l0.059-1.244  c0.016-0.2,0.162-0.452,0.33-0.551l1.082-0.63c0.178-0.105,0.314-0.021,0.304,0.178L78.52,39.776z M78.688,36.595  c-0.005,0.194-0.157,0.441-0.336,0.546l-1.071,0.635c-0.178,0.1-0.31,0.016-0.304-0.184l0.062-1.255  c0.011-0.21,0.163-0.457,0.336-0.551l1.076-0.635c0.184-0.1,0.31-0.021,0.3,0.184L78.688,36.595z M80.672,50.17  c-0.562,0.394-1.134,0.787-1.722,1.176l0.037-0.667c0.016-0.205,0.157-0.451,0.33-0.551l1.081-0.641  c0.174-0.095,0.315-0.011,0.305,0.179L80.672,50.17z M80.798,47.74c-0.011,0.194-0.163,0.44-0.336,0.546l-1.081,0.635  c-0.168,0.1-0.31,0.016-0.3-0.184l0.063-1.249c0.016-0.199,0.157-0.451,0.341-0.552l1.081-0.635c0.179-0.1,0.305-0.016,0.294,0.184  L80.798,47.74z M80.966,44.553c-0.011,0.194-0.157,0.441-0.336,0.546l-1.081,0.625c-0.179,0.095-0.31,0.016-0.305-0.184l0.073-1.244  c0-0.199,0.152-0.451,0.331-0.551l1.076-0.63c0.168-0.105,0.31-0.016,0.294,0.178L80.966,44.553z M81.123,41.362  c-0.011,0.205-0.157,0.441-0.336,0.546l-1.076,0.635c-0.178,0.094-0.31,0.021-0.299-0.189l0.058-1.244  c0.016-0.2,0.163-0.446,0.336-0.551l1.087-0.63c0.173-0.095,0.304-0.021,0.294,0.178L81.123,41.362z M81.28,38.165  c0,0.21-0.157,0.451-0.336,0.551l-1.07,0.63c-0.179,0.1-0.305,0.026-0.299-0.179l0.058-1.25c0.016-0.199,0.168-0.446,0.341-0.551  l1.071-0.625c0.184-0.11,0.31-0.021,0.31,0.179L81.28,38.165z M81.438,34.979c0,0.21-0.158,0.452-0.326,0.551l-1.07,0.635  c-0.189,0.1-0.315,0.021-0.31-0.184l0.078-1.254c0-0.131,0.063-0.278,0.158-0.394c0.504-0.168,1.019-0.399,1.532-0.683  c0.011,0.026,0.016,0.047,0.016,0.079L81.438,34.979z M83.454,48.175c-0.557,0.42-1.134,0.835-1.722,1.26l0.016-0.372  c0.011-0.205,0.157-0.446,0.336-0.547l1.076-0.635c0.179-0.1,0.305-0.016,0.299,0.184L83.454,48.175z M83.549,46.123  c-0.006,0.21-0.152,0.457-0.326,0.557l-1.081,0.625c-0.168,0.104-0.305,0.026-0.289-0.179l0.053-1.255  c0.016-0.194,0.168-0.446,0.336-0.551l1.087-0.625c0.168-0.1,0.299-0.021,0.294,0.179L83.549,46.123z M83.717,42.947  c-0.006,0.189-0.158,0.441-0.336,0.541l-1.071,0.625c-0.184,0.105-0.305,0.021-0.305-0.178l0.068-1.255  c0.016-0.194,0.163-0.446,0.336-0.546l1.071-0.625c0.179-0.116,0.32-0.021,0.299,0.173L83.717,42.947z M83.874,39.75  c-0.005,0.205-0.147,0.452-0.331,0.551l-1.076,0.63c-0.178,0.095-0.304,0.016-0.288-0.184l0.062-1.25  c0.006-0.205,0.152-0.451,0.336-0.551l1.065-0.635c0.179-0.1,0.305-0.021,0.3,0.184L83.874,39.75z M84.042,36.559  c0,0.2-0.168,0.446-0.331,0.541l-1.076,0.635c-0.178,0.1-0.314,0.021-0.304-0.178l0.073-1.255c0-0.199,0.146-0.446,0.325-0.546  l1.081-0.625c0.168-0.105,0.294-0.026,0.294,0.178L84.042,36.559z M84.199,33.372c-0.011,0.205-0.146,0.446-0.33,0.551l-1.076,0.635  c-0.168,0.094-0.305,0.01-0.294-0.184l0.062-1.26c0-0.042,0.011-0.089,0.031-0.137c0.42-0.289,0.835-0.614,1.25-0.966l0.126-0.074  c0.184-0.105,0.314-0.026,0.304,0.184L84.199,33.372z M84.524,47.357c0.042-0.179,0.158-0.368,0.326-0.452l0.902-0.535  C85.364,46.695,84.944,47.026,84.524,47.357z M86.32,44.517c-0.021,0.205-0.157,0.446-0.342,0.546l-1.081,0.63  c-0.173,0.104-0.299,0.025-0.289-0.174l0.059-1.254c0.016-0.205,0.162-0.446,0.33-0.551l1.087-0.635  c0.173-0.094,0.31-0.016,0.299,0.189L86.32,44.517z M86.473,41.325c0,0.199-0.152,0.451-0.331,0.551l-1.07,0.63  c-0.179,0.104-0.305,0.026-0.305-0.179l0.062-1.26c0.021-0.194,0.168-0.436,0.336-0.541l1.071-0.63  c0.173-0.105,0.314-0.021,0.31,0.173L86.473,41.325z M86.641,38.139c-0.006,0.21-0.158,0.446-0.342,0.551l-1.07,0.635  c-0.179,0.094-0.305,0.01-0.294-0.184l0.062-1.254c0-0.205,0.147-0.452,0.336-0.551l1.076-0.635c0.174-0.1,0.31-0.01,0.294,0.184  L86.641,38.139z M86.803,34.952c-0.01,0.194-0.157,0.446-0.33,0.541l-1.087,0.63c-0.179,0.105-0.305,0.021-0.294-0.179l0.063-1.25  c0.021-0.199,0.157-0.441,0.336-0.546l1.081-0.635c0.157-0.095,0.305-0.016,0.294,0.184L86.803,34.952z M86.961,31.761  c-0.011,0.199-0.152,0.451-0.326,0.551l-1.092,0.625c-0.162,0.1-0.304,0.016-0.283-0.184l0.063-1.244  c0.01-0.21,0.157-0.452,0.33-0.551l1.076-0.635c0.189-0.094,0.31-0.021,0.305,0.173L86.961,31.761z M89.076,42.905  c-0.005,0.205-0.163,0.446-0.331,0.551l-1.092,0.641c-0.173,0.094-0.299,0.016-0.294-0.184l0.053-1.255  c0.016-0.21,0.168-0.446,0.341-0.551l1.092-0.63c0.174-0.105,0.3-0.026,0.289,0.184L89.076,42.905z M89.239,39.719  c-0.011,0.21-0.163,0.446-0.337,0.546L87.821,40.9c-0.179,0.094-0.314,0.021-0.305-0.184l0.074-1.255  c0.01-0.194,0.146-0.436,0.336-0.541l1.086-0.635c0.163-0.1,0.305-0.016,0.289,0.179L89.239,39.719z M89.407,36.532  c-0.021,0.205-0.158,0.452-0.336,0.551l-1.087,0.635c-0.179,0.1-0.31,0.016-0.31-0.184l0.078-1.255  c0.006-0.199,0.152-0.451,0.331-0.551l1.087-0.63c0.173-0.1,0.31-0.021,0.31,0.184L89.407,36.532z M89.559,33.346  c0,0.189-0.151,0.441-0.33,0.535l-1.092,0.63c-0.168,0.11-0.305,0.021-0.294-0.173l0.073-1.254c0.011-0.199,0.157-0.446,0.336-0.541  l1.071-0.635c0.173-0.1,0.314-0.021,0.304,0.184L89.559,33.346z M90.137,41.897l0.036-0.85c0.011-0.2,0.168-0.446,0.336-0.551  l1.092-0.63c0.011-0.005,0.021-0.005,0.026-0.011C91.16,40.548,90.656,41.23,90.137,41.897z M91.989,38.107  c-0.011,0.2-0.152,0.446-0.336,0.541l-1.07,0.646c-0.185,0.095-0.305,0.021-0.305-0.178l0.073-1.265  c0-0.194,0.157-0.446,0.331-0.541l1.086-0.625c0.168-0.105,0.294-0.026,0.294,0.168L91.989,38.107z M92.157,34.921  c-0.011,0.21-0.157,0.457-0.336,0.556l-1.087,0.625c-0.162,0.1-0.299,0.021-0.288-0.173l0.058-1.26  c0.011-0.2,0.168-0.446,0.341-0.546l1.082-0.63c0.168-0.1,0.304-0.016,0.294,0.173L92.157,34.921z M93.05,37.598  c-0.011-0.026-0.011-0.058-0.011-0.1l0.063-1.249c0.01-0.2,0.157-0.446,0.325-0.551l0.961-0.557  C93.979,35.955,93.532,36.774,93.05,37.598z M95.176,33.503c-0.068,0.032-0.142,0.053-0.184,0.042c-0.037,0-0.09,0.032-0.09,0.068  c0,0.026-0.142,0.147-0.319,0.252l-1.092,0.63c-0.168,0.1-0.305,0.016-0.284-0.179l0.053-1.249c0.011-0.205,0.047-0.383,0.079-0.399  c0.031-0.021,0.036-0.079,0.01-0.126c-0.036-0.053-0.047-0.189-0.042-0.305c0-0.115-0.058-0.215-0.131-0.22  c-0.084,0-0.168-0.063-0.221-0.137c-0.042-0.068-0.168-0.073-0.272-0.016c-0.105,0.063-0.231,0.115-0.284,0.115  c-0.052,0-0.084,0.021-0.084,0.058c-0.021,0.026-0.157,0.136-0.336,0.241l-1.07,0.63c-0.179,0.1-0.31,0.016-0.3-0.184l0.063-1.25  c0.011-0.205,0.037-0.373,0.068-0.394c0.036-0.016,0.036-0.068,0.011-0.11c-0.032-0.042-0.042-0.184-0.042-0.304  s-0.042-0.226-0.126-0.226c-0.084-0.01-0.189-0.068-0.231-0.142c-0.031-0.063-0.157-0.073-0.263-0.005  c-0.104,0.062-0.23,0.11-0.283,0.104c-0.053-0.005-0.095,0.026-0.104,0.058c0,0.026-0.137,0.147-0.315,0.241l-1.076,0.635  c-0.173,0.1-0.305,0.016-0.299-0.184l0.062-1.255c0.011-0.205,0.042-0.378,0.079-0.399c0.021-0.021,0.031-0.063,0.005-0.105  c-0.031-0.052-0.053-0.184-0.042-0.304c0-0.131-0.053-0.226-0.131-0.231c-0.079,0-0.179-0.058-0.221-0.137  c-0.042-0.073-0.163-0.073-0.268-0.016c-0.105,0.068-0.236,0.121-0.283,0.121c-0.053-0.01-0.095,0.016-0.101,0.058  c0,0.021-0.151,0.136-0.319,0.236l-0.389,0.226c0.42-0.52,0.818-1.076,1.207-1.654l7.989,4.861  C95.465,32.868,95.323,33.183,95.176,33.503z M96.436,30.464l-8.226-5.008c0.546-1.674-0.961-4.052-3.743-5.753  c-1.538-0.94-3.196-1.475-4.572-1.475c-0.976,0-1.753,0.283-2.257,0.792l-8.478-5.16c1.171-1.291,2.23-2.294,3.023-2.924  l25.459,15.496C97.448,27.425,97.045,28.832,96.436,30.464z M74.383,9.677c0.11-0.058,0.231-0.11,0.357-0.168  c0.031,0.021,0.062,0.047,0.084,0.079c0.031,0.063,0.157,0.074,0.263,0.005c0.094-0.058,0.23-0.11,0.283-0.1  c0.053,0,0.095-0.021,0.095-0.063c0-0.032,0.142-0.142,0.325-0.242l1.081-0.635c0.179-0.1,0.3-0.016,0.294,0.184l-0.062,1.239  c-0.011,0.205-0.042,0.388-0.074,0.399c-0.031,0.016-0.031,0.079-0.01,0.115c0.042,0.047,0.042,0.184,0.042,0.31  c-0.011,0.121,0.058,0.22,0.136,0.231c0.084,0.005,0.179,0.063,0.221,0.126c0.032,0.073,0.152,0.079,0.263,0.016  c0.105-0.058,0.231-0.105,0.283-0.105c0.048,0,0.095-0.026,0.095-0.053c0.011-0.037,0.152-0.147,0.32-0.247l1.087-0.635  c0.178-0.1,0.304-0.026,0.294,0.173l-0.063,1.265c0,0.199-0.036,0.373-0.062,0.383c-0.042,0.021-0.042,0.073-0.011,0.115  c0.016,0.053,0.042,0.189,0.037,0.305c-0.011,0.126,0.058,0.226,0.126,0.231c0.089,0,0.184,0.063,0.226,0.131  c0.031,0.068,0.157,0.079,0.268,0.016c0.1-0.058,0.23-0.105,0.278-0.105c0.052,0.005,0.094-0.021,0.104-0.058  c0-0.026,0.147-0.152,0.31-0.247l1.082-0.625c0.173-0.11,0.32-0.026,0.299,0.168l-0.062,1.26c-0.011,0.2-0.042,0.378-0.063,0.399  c-0.031,0.016-0.031,0.063-0.011,0.1c0.026,0.053,0.042,0.184,0.026,0.31c0,0.121,0.058,0.236,0.142,0.236s0.179,0.063,0.216,0.131  c0.036,0.063,0.162,0.079,0.268,0.021c0.104-0.073,0.241-0.115,0.283-0.115c0.063,0.01,0.105-0.021,0.105-0.063  c0.01-0.026,0.142-0.142,0.314-0.242l1.081-0.625c0.168-0.105,0.315-0.021,0.305,0.184l-0.078,1.239  c0,0.194-0.026,0.383-0.063,0.394c-0.026,0.016-0.037,0.079-0.011,0.115c0.037,0.047,0.053,0.179,0.048,0.305  c-0.011,0.121,0.042,0.226,0.126,0.231c0.084,0.005,0.179,0.058,0.21,0.136c0.042,0.068,0.168,0.068,0.272,0.005  c0.116-0.053,0.236-0.105,0.294-0.105c0.053,0,0.1-0.026,0.105-0.053c-0.011-0.037,0.137-0.157,0.314-0.252l1.087-0.63  c0.163-0.1,0.289-0.021,0.278,0.179l-0.047,1.254c-0.011,0.194-0.048,0.378-0.079,0.394c-0.031,0.016-0.031,0.068,0,0.115  c0.016,0.047,0.031,0.184,0.031,0.305c-0.016,0.121,0.048,0.22,0.132,0.226c0.078,0.005,0.178,0.068,0.215,0.136  c0.047,0.068,0.168,0.079,0.272,0.016c0.11-0.063,0.231-0.11,0.273-0.11c0.073,0.016,0.115-0.021,0.104-0.053  c0.011-0.031,0.158-0.152,0.326-0.252l1.07-0.619c0.184-0.105,0.315-0.032,0.3,0.173l-0.068,1.26  c-0.006,0.194-0.037,0.373-0.058,0.388c-0.042,0.016-0.037,0.068-0.006,0.121c0.016,0.037,0.032,0.173,0.026,0.299  c-0.005,0.121,0.058,0.221,0.132,0.226c0.084,0.005,0.184,0.063,0.22,0.136c0.037,0.063,0.168,0.079,0.278,0.011  c0.1-0.058,0.226-0.11,0.278-0.105c0.058,0.005,0.1-0.026,0.11-0.063c0-0.026,0.142-0.137,0.305-0.242l1.086-0.63  c0.179-0.105,0.305-0.016,0.284,0.178l-0.063,1.255c0,0.205-0.036,0.373-0.062,0.399c-0.032,0.01-0.021,0.063-0.011,0.11  c0.031,0.047,0.047,0.178,0.047,0.294c-0.01,0.131,0.048,0.231,0.132,0.241c0.084,0.005,0.178,0.063,0.22,0.131  c0.032,0.063,0.158,0.074,0.263,0.011c0.11-0.068,0.231-0.105,0.283-0.105c0.053,0.005,0.084-0.016,0.101-0.058  c0-0.031,0.136-0.152,0.314-0.247l1.092-0.63c0.163-0.1,0.3-0.021,0.289,0.173l-0.058,1.26c-0.011,0.194-0.058,0.378-0.068,0.394  c-0.031,0.021-0.031,0.074-0.016,0.11c0.026,0.042,0.042,0.189,0.026,0.31c0,0.116,0.073,0.221,0.142,0.226  c0.089,0.005,0.184,0.068,0.226,0.137c0.053,0.063,0.168,0.073,0.268,0.01s0.236-0.115,0.289-0.115  c0.052,0.01,0.084-0.016,0.084-0.047c0.005-0.037,0.146-0.142,0.325-0.247l1.07-0.625c0.053,1.039,0.095,1.963,0.127,2.698  L74.383,9.677z"
   id="path3"
   style="fill:#630ea0;fill-opacity:1" />
</svg>