<?xml version="1.0" encoding="UTF-8" standalone="no"?>
<svg width="19px" height="20px" viewBox="0 0 19 20" version="1.1" xmlns="http://www.w3.org/2000/svg" xmlns:xlink="http://www.w3.org/1999/xlink">
    <!-- Generator: Sketch Beta 3.7.2 (28276) - http://www.bohemiancoding.com/sketch -->
    <title>Group 2</title>
    <desc>Created with Sketch Beta.</desc>
    <defs></defs>
    <g id="Page-1" stroke="none" stroke-width="1" fill="none" fill-rule="evenodd">
        <g id="Group-2">
            <g id="glaze-logo" transform="translate(0.000000, 0.066667)">
                <polygon id="Path-6" fill="#F8CAB9" points="3.4 13.775 3.4 16.5716146 5.24713542 17.5617188 8.40755208 18.7455729 11.9541667 18.3085938 15.8885417 16.3716146 17.6372396 13.1398438 16.1145833 13.0731771 15.5096354 11.1101563 14.4932292 11.6661458 13.3466146 10.7333333 12.709375 10.7333333 11.4153646 12.1460938 9.34505208 12.9455729 7.50078125 12.4822917 6.44375 11.353125 6.37708333 12.7200521 5.65026042 14.0143229 4.24296875 13.9447917"></polygon>
                <g id="noun_163279_cc">
                    <g id="Group">
                        <polygon id="Path-5" fill="#3EA1A0" points="0.890364583 8.75546875 0.679166667 18.3145833 1.78802083 18.8242188 3.45260417 18.2914063 3.59166667 15.7033854 3.59166667 13.971875 4.32421875 14.0877604 5.49140625 14.0877604 6.43515625 12.79375 6.13125 8.81041667 7.56171875 6.79817708 9.48723958 6.03046875 11.3231771 6.62994792 12.9127604 8.86145833 12.6403646 10.3528646 13.5611979 11.0854167 14.3947917 11.3255208 15.5127604 11.1661458 15.5822917 12.9697917 16.6651042 13.2190104 17.9796875 13.0335938 18.4658854 11.9453125 18.2861979 7.42291667 16.6763021 4.02682292 13.4361979 1.15807292 9.95052083 0.6484375 6.53411458 1.25078125 3.82447917 2.79947917 2.13671875 4.88385417 0.935416667 7.00885417"></polygon>
                        <path d="M18.8638667,9.29612 C18.6820667,4.093895 14.5602667,0.0320205556 9.44166667,0.0320205556 C4.57966667,0.0320205556 0.460466667,3.88919056 0.0474666667,8.82003944 C0.0228666667,8.94747 0.0102666667,9.07428889 0.0102666667,9.19764167 L0.0102666667,17.7173428 C0.0102666667,18.8754317 1.12706667,19.6826278 2.12946667,19.6826278 C3.19206667,19.6826278 4.05646667,18.8010122 4.05646667,17.7173428 L4.05646667,17.5878733 C5.63726667,18.7147672 7.52026667,19.3264339 9.47346667,19.3264339 C13.3008667,19.3264339 16.6990667,17.0175961 18.1852667,13.4336372 C18.6054667,13.0648022 18.8728667,12.5204189 18.8728667,11.9120144 L18.8728667,9.40051111 C18.8728667,9.36483056 18.8698667,9.33016944 18.8638667,9.29612 L18.8638667,9.29612 Z M2.89226667,17.7173428 C2.89226667,18.1465289 2.55026667,18.4953828 2.12946667,18.4953828 C1.66546667,18.4953828 1.17446667,18.0955567 1.17446667,17.7173428 L1.17446667,9.19764167 C1.17446667,8.79455333 1.31726667,8.33356056 1.39926667,7.93964722 C1.48426667,7.53064611 1.58666667,7.12490722 1.71846667,6.728955 C1.97786667,5.94989556 2.35626667,5.21875 2.84346667,4.56263556 C3.81646667,3.25163 5.16846667,2.21607833 6.71066667,1.71614278 C7.55346667,1.44293167 8.55346667,1.21906167 9.44186667,1.21906167 C13.9536667,1.21906167 17.5822667,4.81973944 17.7030667,9.41661833 C17.7034667,9.44067722 17.7058667,9.46392056 17.7090667,9.48716389 L17.7090667,11.9124222 C17.7090667,12.9608189 16.0958667,12.9842661 16.0958667,11.9124222 L16.0958667,9.94897222 C16.0958667,9.62132278 15.8352667,9.35585944 15.5138667,9.35585944 C15.1924667,9.35585944 14.9318667,9.62132278 14.9318667,9.94897222 C14.9318667,10.4024211 14.5700667,10.7712561 14.1252667,10.7712561 C13.6808667,10.7712561 13.3194667,10.4024211 13.3194667,9.94897222 C13.3194667,9.56321444 13.3222667,9.18357333 13.2520667,8.80291278 C13.2510667,8.79822333 13.2506667,8.79333 13.2498667,8.78864056 C12.9128667,6.97525278 11.3492667,5.59879889 9.47386667,5.59879889 C7.39586667,5.59879889 5.69746667,7.28781444 5.63046667,9.38990889 C5.63046667,9.38990889 5.62226667,9.554855 5.62226667,9.646605 L5.62226667,12.8847683 C5.62226667,13.3113039 5.23286667,13.6581189 4.81446667,13.6581189 C4.45366667,13.6581189 4.15206667,13.3989761 4.07626667,13.0535883 C4.06426667,12.9985383 4.05686667,12.9428767 4.05686667,12.8847683 L4.05686667,9.64640111 C4.05686667,9.31875167 3.79626667,9.05288056 3.47486667,9.05288056 C3.15346667,9.05288056 2.89266667,9.31875167 2.89266667,9.64640111 L2.89266667,12.8845644 L2.89266667,12.9593917 C2.89226667,14.5452394 2.89226667,16.1312911 2.89226667,17.7173428 L2.89226667,17.7173428 Z M6.79666667,9.52834944 C6.79506667,9.41029778 6.80126667,9.29285778 6.81566667,9.17602944 C6.98186667,7.83036278 8.10906667,6.78543222 9.47346667,6.78543222 C10.7546667,6.78543222 11.8274667,7.70660222 12.0910667,8.93279 C12.1650667,9.27715833 12.1438667,9.71817 12.0974667,10.0655967 C12.0566667,10.3718378 11.9528667,10.65769 11.7860667,10.9158133 C11.4768667,11.39536 11.0098667,11.8488089 10.4816667,12.061465 C10.1730667,12.1856333 9.80546667,12.252305 9.47346667,12.252305 C8.39306667,12.252305 7.24526667,11.4989356 6.93246667,10.4113922 C6.85066667,10.1259478 6.80006667,9.82704667 6.79666667,9.52834944 L6.79666667,9.52834944 Z M9.47346667,18.1393928 C7.47666667,18.1393928 5.56286667,17.4131406 4.05646667,16.0878628 L4.05646667,15.9357617 L4.05646667,14.6857189 C4.28906667,14.7880711 4.54506667,14.8445483 4.81426667,14.8445483 C5.87466667,14.8445483 6.73726667,13.9653794 6.73726667,12.8845644 L6.73726667,12.2686161 C7.43486667,12.9901789 8.40366667,13.4389383 9.47366667,13.4389383 C10.9062667,13.4389383 12.1560667,12.6345967 12.8176667,11.4473517 C13.1660667,11.7631756 13.6230667,11.9574817 14.1250667,11.9574817 C14.4122667,11.9574817 14.6852667,11.89448 14.9316667,11.7811178 L14.9316667,11.9122183 C14.9316667,12.9025067 15.6388667,13.72581 16.5648667,13.8897367 C16.5974667,13.8960572 16.6300667,13.9027856 16.6636667,13.9068633 C15.1966667,16.5115439 12.4846667,18.1393928 9.47346667,18.1393928 L9.47346667,18.1393928 Z" id="Shape" fill="#000000"></path>
                    </g>
                </g>
            </g>
            <g id="sprinkles" transform="translate(2.000000, 2.000000)" fill="#F7A8A5">
                <ellipse id="Oval" cx="2.36356962" cy="4.34335631" rx="0.520989957" ry="0.520438644"></ellipse>
                <ellipse id="Oval" cx="4.61590794" cy="3.30227855" rx="0.520989957" ry="0.520438644"></ellipse>
                <ellipse id="Oval" cx="12.9106059" cy="3.17016411" rx="0.520989957" ry="0.520438644"></ellipse>
                <ellipse id="Oval" cx="0.54171029" cy="5.77015209" rx="0.520989957" ry="0.520438644"></ellipse>
                <ellipse id="Oval" cx="2.7808031" cy="6.59712027" rx="0.520989957" ry="0.520438644"></ellipse>
                <ellipse id="Oval" cx="5.26473711" cy="1.08820906" rx="0.520989957" ry="0.520438644"></ellipse>
                <ellipse id="Oval" cx="10.4166374" cy="3.49012562" rx="0.520989957" ry="0.520438644"></ellipse>
                <ellipse id="Oval" cx="10.4166374" cy="1.45287697" rx="0.520989957" ry="0.520438644"></ellipse>
                <ellipse id="Oval" cx="14.3505531" cy="5.90487272" rx="0.520989957" ry="0.520438644"></ellipse>
                <ellipse id="Oval" cx="2.7808031" cy="2.32374965" rx="0.520989957" ry="0.520438644"></ellipse>
                <ellipse id="Oval" cx="7.67220842" cy="2.49395473" rx="0.520989957" ry="0.520438644"></ellipse>
                <ellipse id="Oval" cx="11.9452894" cy="5.24991392" rx="0.520989957" ry="0.520438644"></ellipse>
                <ellipse id="Oval" cx="7.87671103" cy="0.56736946" rx="0.520989957" ry="0.520438644"></ellipse>
            </g>
        </g>
    </g>
</svg>