<?xml version="1.0" encoding="UTF-8" standalone="no"?>
<svg width="297px" height="100px" viewBox="0 0 297 100" version="1.1" xmlns="http://www.w3.org/2000/svg" xmlns:xlink="http://www.w3.org/1999/xlink">
    <!-- Generator: Sketch Beta 3.7.2 (28276) - http://www.bohemiancoding.com/sketch -->
    <title>glazed-logo</title>
    <desc>Created with Sketch Beta.</desc>
    <defs></defs>
    <g id="Page-1" stroke="none" stroke-width="1" fill="none" fill-rule="evenodd">
        <g id="glazed-logo">
            <g id="glaze-logo" transform="translate(0.000000, 0.266667)">
                <polygon id="Path-6" fill="#F8CAB9" points="13.6 55.1 13.6 66.2864583 20.9885417 70.246875 33.6302083 74.9822917 47.8166667 73.234375 63.5541667 65.4864583 70.5489583 52.559375 64.4583333 52.2927083 62.0385417 44.440625 57.9729167 46.6645833 53.3864583 42.9333333 50.8375 42.9333333 45.6614583 48.584375 37.3802083 51.7822917 30.003125 49.9291667 25.775 45.4125 25.5083333 50.8802083 22.6010417 56.0572917 16.971875 55.7791667"></polygon>
                <g id="noun_163279_cc">
                    <g id="Group">
                        <polygon id="Path-5" fill="#3EA1A0" points="3.56145833 35.021875 2.71666667 73.2583333 7.15208333 75.296875 13.8104167 73.165625 14.3666667 62.8135417 14.3666667 55.8875 17.296875 56.3510417 21.965625 56.3510417 25.740625 51.175 24.525 35.2416667 30.246875 27.1927083 37.9489583 24.121875 45.2927083 26.5197917 51.6510417 35.4458333 50.5614583 41.4114583 54.2447917 44.3416667 57.5791667 45.3020833 62.0510417 44.6645833 62.3291667 51.8791667 66.6604167 52.8760417 71.91875 52.134375 73.8635417 47.78125 73.1447917 29.6916667 66.7052083 16.1072917 53.7447917 4.63229167 39.8020833 2.59375 26.1364583 5.003125 15.2979167 11.1979167 8.546875 19.5354167 3.74166667 28.0354167"></polygon>
                        <path d="M75.4554667,37.18448 C74.7282667,16.37558 58.2410667,0.128082222 37.7666667,0.128082222 C18.3186667,0.128082222 1.84186667,15.5567622 0.189866667,35.2801578 C0.0914666667,35.78988 0.0410666667,36.2971556 0.0410666667,36.7905667 L0.0410666667,70.8693711 C0.0410666667,75.5017267 4.50826667,78.7305111 8.51786667,78.7305111 C12.7682667,78.7305111 16.2258667,75.2040489 16.2258667,70.8693711 L16.2258667,70.3514933 C22.5490667,74.8590689 30.0810667,77.3057356 37.8938667,77.3057356 C53.2034667,77.3057356 66.7962667,68.0703844 72.7410667,53.7345489 C74.4218667,52.2592089 75.4914667,50.0816756 75.4914667,47.6480578 L75.4914667,37.6020444 C75.4914667,37.4593222 75.4794667,37.3206778 75.4554667,37.18448 L75.4554667,37.18448 Z M11.5690667,70.8693711 C11.5690667,72.5861156 10.2010667,73.9815311 8.51786667,73.9815311 C6.66186667,73.9815311 4.69786667,72.3822267 4.69786667,70.8693711 L4.69786667,36.7905667 C4.69786667,35.1782133 5.26906667,33.3342422 5.59706667,31.7585889 C5.93706667,30.1225844 6.34666667,28.4996289 6.87386667,26.91582 C7.91146667,23.7995822 9.42506667,20.875 11.3738667,18.2505422 C15.2658667,13.00652 20.6738667,8.86431333 26.8426667,6.86457111 C30.2138667,5.77172667 34.2138667,4.87624667 37.7674667,4.87624667 C55.8146667,4.87624667 70.3290667,19.2789578 70.8122667,37.6664733 C70.8138667,37.7627089 70.8234667,37.8556822 70.8362667,37.9486556 L70.8362667,47.6496889 C70.8362667,51.8432756 64.3834667,51.9370644 64.3834667,47.6496889 L64.3834667,39.7958889 C64.3834667,38.4852911 63.3410667,37.4234378 62.0554667,37.4234378 C60.7698667,37.4234378 59.7274667,38.4852911 59.7274667,39.7958889 C59.7274667,41.6096844 58.2802667,43.0850244 56.5010667,43.0850244 C54.7234667,43.0850244 53.2778667,41.6096844 53.2778667,39.7958889 C53.2778667,38.2528578 53.2890667,36.7342933 53.0082667,35.2116511 C53.0042667,35.1928933 53.0026667,35.17332 52.9994667,35.1545622 C51.6514667,27.9010111 45.3970667,22.3951956 37.8954667,22.3951956 C29.5834667,22.3951956 22.7898667,29.1512578 22.5218667,37.5596356 C22.5218667,37.5596356 22.4890667,38.21942 22.4890667,38.58642 L22.4890667,51.5390733 C22.4890667,53.2452156 20.9314667,54.6324756 19.2578667,54.6324756 C17.8146667,54.6324756 16.6082667,53.5959044 16.3050667,52.2143533 C16.2570667,51.9941533 16.2274667,51.7715067 16.2274667,51.5390733 L16.2274667,38.5856044 C16.2274667,37.2750067 15.1850667,36.2115222 13.8994667,36.2115222 C12.6138667,36.2115222 11.5706667,37.2750067 11.5706667,38.5856044 L11.5706667,51.5382578 L11.5706667,51.8375667 C11.5690667,58.1809578 11.5690667,64.5251644 11.5690667,70.8693711 L11.5690667,70.8693711 Z M27.1866667,38.1133978 C27.1802667,37.6411911 27.2050667,37.1714311 27.2626667,36.7041178 C27.9274667,31.3214511 32.4362667,27.1417289 37.8938667,27.1417289 C43.0186667,27.1417289 47.3098667,30.8264089 48.3642667,35.73116 C48.6602667,37.1086333 48.5754667,38.87268 48.3898667,40.2623867 C48.2266667,41.4873511 47.8114667,42.63076 47.1442667,43.6632533 C45.9074667,45.58144 44.0394667,47.3952356 41.9266667,48.24586 C40.6922667,48.7425333 39.2218667,49.00922 37.8938667,49.00922 C33.5722667,49.00922 28.9810667,45.9957422 27.7298667,41.6455689 C27.4026667,40.5037911 27.2002667,39.3081867 27.1866667,38.1133978 L27.1866667,38.1133978 Z M37.8938667,72.5575711 C29.9066667,72.5575711 22.2514667,69.6525622 16.2258667,64.3514511 L16.2258667,63.7430467 L16.2258667,58.7428756 C17.1562667,59.1522844 18.1802667,59.3781933 19.2570667,59.3781933 C23.4986667,59.3781933 26.9490667,55.8615178 26.9490667,51.5382578 L26.9490667,49.0744644 C29.7394667,51.9607156 33.6146667,53.7557533 37.8946667,53.7557533 C43.6250667,53.7557533 48.6242667,50.5383867 51.2706667,45.7894067 C52.6642667,47.0527022 54.4922667,47.8299267 56.5002667,47.8299267 C57.6490667,47.8299267 58.7410667,47.57792 59.7266667,47.1244711 L59.7266667,47.6488733 C59.7266667,51.6100267 62.5554667,54.90324 66.2594667,55.5589467 C66.3898667,55.5842289 66.5202667,55.6111422 66.6546667,55.6274533 C60.7866667,66.0461756 49.9386667,72.5575711 37.8938667,72.5575711 L37.8938667,72.5575711 Z" id="Shape" fill="#000000"></path>
                    </g>
                </g>
            </g>
            <g id="glaze-text" transform="translate(86.400000, 0.000000)">
                <path d="M146.627888,70.9161058 C144.864097,70.0670096 143.394293,68.924493 142.218432,67.4885216 C141.042571,66.0525502 140.160688,64.391843 139.572757,62.5063502 C138.984827,60.6208573 138.690866,58.6417438 138.690866,56.5689503 C138.690866,55.1704391 138.953555,53.5034886 139.478939,51.5680489 C140.004324,49.6326092 140.548464,47.9157126 141.111376,46.4173077 C141.674289,44.9189028 142.381046,43.4891962 143.231668,42.128145 C144.082291,40.7670939 145.076755,39.5683879 146.215088,38.5319912 C147.353422,37.4955944 148.629337,36.6714841 150.042872,36.0596354 C151.456407,35.4477867 153.026283,35.141867 154.752547,35.141867 C156.153573,35.141867 157.454506,35.3666244 158.655386,35.8161458 C159.856265,36.2656673 160.900764,36.8962366 161.788915,37.7078726 C162.677065,38.5195086 163.371313,39.4997005 163.871679,40.6484776 C164.372046,41.7972547 164.622225,43.0833663 164.622225,44.506851 C164.622225,46.0552027 164.115612,47.7908291 163.10237,49.7137821 C162.089128,51.636735 160.90703,53.2849557 159.556041,54.6584936 C158.205051,56.0320314 156.597649,57.2557104 154.733784,58.3295673 C152.869919,59.4034242 150.84972,60.240021 148.673126,60.839383 C149.048401,61.5136652 149.417415,62.0755586 149.780181,62.5250801 C150.142947,62.9746016 150.511961,63.3242242 150.887236,63.5739583 C151.262511,63.8236925 151.656544,63.9985038 152.069346,64.0983974 C152.482148,64.1982911 152.926217,64.2482372 153.401565,64.2482372 C154.902664,64.2482372 156.485049,63.9485607 158.148767,63.3491987 C159.812486,62.7498367 161.432398,62.0006455 163.008552,61.1016026 C164.584706,60.2025596 166.073274,59.2223678 167.474299,58.1609976 C168.875325,57.0996274 170.063678,56.0944625 171.039392,55.1454728 L171.039393,61.1016021 C168.837781,63.3741829 171.339623,64.4480148 168.862809,66.1961538 C167.787022,66.9453563 166.629942,67.682061 165.391535,68.4062901 C164.153128,69.1305191 162.852195,69.7735749 161.488696,70.3354768 C160.125198,70.8973786 158.711684,71.3468933 157.248112,71.6840345 C155.784541,72.0211756 154.302227,72.1897436 152.801128,72.1897436 C150.449406,72.1897436 148.39168,71.7652019 146.627888,70.9161058 Z" id="Path" fill="#000000"></path>
                <path d="M112.384234,63.8174479 C112.584381,63.4553334 112.847069,63.1119541 113.172307,62.7872997 C113.497545,62.4626453 113.872814,62.1317525 114.298126,61.7946114 C114.723437,61.4574703 115.161251,61.0391718 115.611581,60.5397035 L127.657842,44.1322516 C127.207512,43.9324643 126.819734,43.7451665 126.494496,43.5703526 C126.169258,43.3955387 125.875297,43.2394572 125.612605,43.1021034 C125.349912,42.9647496 125.080969,42.8586142 124.805768,42.7836939 C124.530566,42.7087737 124.230351,42.6713141 123.905113,42.6713141 C123.104527,42.6713141 122.441551,42.6838006 121.916166,42.708774 C121.390782,42.7337475 120.946713,42.8211531 120.583947,42.9709936 C120.221182,43.1208341 119.895948,43.3455915 119.608238,43.6452724 C119.320527,43.9449534 119.001548,44.3694951 118.651292,44.9189103 C117.875724,46.1176342 117.225257,46.9979339 116.699873,47.5598357 C116.174488,48.1217376 115.699147,48.4026843 115.273836,48.4026843 C114.873542,48.4026843 114.592091,48.2216297 114.429471,47.8595152 C114.266852,47.4974007 114.185544,47.0166697 114.185544,46.4173077 C114.185544,46.1675735 114.198053,45.8991133 114.223071,45.6119191 C114.24809,45.3247248 114.285617,45.0312916 114.335653,44.7316106 C114.710928,42.5589234 115.248814,40.7983241 115.949327,39.4497596 C116.64984,38.1011952 117.431651,37.0585707 118.294783,36.321855 C119.157915,35.5851392 120.058561,35.0856784 120.996748,34.8234575 C121.934935,34.5612367 122.804308,34.4301282 123.604894,34.4301282 C124.205334,34.4301282 124.805765,34.5737232 125.406205,34.8609175 C126.006644,35.1481117 126.60082,35.466518 127.188751,35.8161458 C127.776681,36.1657736 128.377112,36.4841799 128.990061,36.7713742 C129.60301,37.0585685 130.234713,37.21465 130.885189,37.2396234 C131.385556,37.2645968 131.842133,37.2770833 132.254935,37.2770833 L133.399518,37.2770833 C134.400251,37.2770833 135.200825,37.2583536 135.801265,37.2208934 C136.401704,37.1834333 136.858282,37.1397305 137.171011,37.0897837 C137.48374,37.0398368 137.702647,36.996134 137.827738,36.9586739 C137.95283,36.9212138 138.052902,36.902484 138.127957,36.902484 C139.003598,36.902484 139.635301,37.2084037 140.023085,37.8202524 C140.410869,38.4321011 140.604758,39.2624547 140.604758,40.3113381 C140.604758,41.1604343 140.529704,41.8846525 140.379594,42.4840144 C140.329558,42.6838017 140.079378,42.9397754 139.629048,43.2519431 C139.178719,43.5641108 138.42818,43.857544 137.377411,44.1322516 C137.077191,44.6816667 136.576832,45.455831 135.876319,46.4547676 C135.175806,47.4537042 134.368977,48.5650046 133.455809,49.7887019 C132.54264,51.0123993 131.529413,52.398403 130.416098,53.9467548 C129.302783,55.4951066 128.302065,56.8374075 127.413915,57.9736979 C126.525764,59.1099883 125.750208,60.0964234 125.087223,60.9330329 C124.424237,61.7696423 123.896478,62.1824172 123.755004,62.6374599 C123.61353,63.0925026 123.817547,63.4740643 124.242858,63.6488782 C124.66817,63.8236921 125.168529,64.0172332 125.74395,64.2295072 C126.319372,64.4417812 126.926057,64.6353223 127.564024,64.8101362 C128.201991,64.9849501 128.75864,65.0723558 129.233988,65.0723558 C130.284758,65.0723558 131.241694,64.9162743 132.104826,64.6041066 C132.967958,64.2919389 133.768533,63.8986135 134.506573,63.4241186 C135.244613,62.9496237 135.932607,62.4439196 136.570574,61.9069912 C137.208541,61.3700628 137.821481,60.8643587 138.409411,60.3898638 C138.997342,59.9153689 139.579009,59.5220435 140.15443,59.2098758 C140.729852,58.8977081 141.330283,58.7416266 141.955741,58.7416266 C142.431089,58.7416266 142.862648,58.8540053 143.250432,59.078766 C143.638216,59.3035268 143.963449,59.5907167 144.226142,59.9403446 C144.488834,60.2899724 144.688978,60.6832978 144.826578,61.1203325 C144.964179,61.5573673 145.032979,61.9881523 145.032979,62.4127003 C145.032979,63.1369294 144.757781,63.8923639 144.207378,64.6790264 C143.656975,65.465689 142.918946,66.23361 141.993268,66.9828125 C141.06759,67.732015 139.991818,68.4437466 138.765921,69.1180288 C137.540023,69.7923111 136.257853,70.3854208 134.919373,70.8973758 C133.580893,71.4093308 132.217415,71.8151427 130.828898,72.1148237 C129.440382,72.4145047 128.133194,72.5643429 126.907296,72.5643429 C126.807223,72.5643429 126.544535,72.5143969 126.119223,72.4145032 C125.693912,72.3146095 125.131008,72.1460415 124.430495,71.9087941 C123.729982,71.6715466 122.916899,71.3656269 121.991221,70.9910256 C121.065543,70.6164244 112.521835,67.594661 112.346707,67.0202724 C112.171578,66.4458839 112.084016,65.8340444 112.084016,65.1847356 C112.084016,64.6353204 112.184087,64.1795624 112.384234,63.8174479 Z" id="Path" fill="#000000"></path>
                <path d="M123.487438,62.7312561 C122.912017,63.5304054 122.142715,64.4668944 121.179509,65.5407513 C120.216304,66.6146082 119.134278,67.6385028 117.933399,68.612466 C116.732519,69.5864292 115.109856,70.6026956 111.953933,71.5341947 C108.798009,72.4656939 106.555001,72.3770433 105.178994,72.3770433 C103.527785,72.3770433 102.151798,71.8463662 101.050992,70.784996 C99.9501855,69.7236258 98.9995036,68.1815406 98.1989174,66.1586939 C97.5984777,66.8579495 96.8604483,67.5696812 95.9848071,68.2939103 C95.1091659,69.0181393 94.1522295,69.6736816 93.1139693,70.2605569 C92.075709,70.8474322 90.9936828,71.3281632 89.8678584,71.7027644 C88.742034,72.0773657 87.6162265,72.2646635 86.4904021,72.2646635 C85.2895227,72.2646635 84.1199338,72.0211763 82.9816003,71.5341947 C81.8432667,71.0472131 80.8362944,70.347968 79.9606532,69.4364383 C79.085012,68.5249086 78.3845095,67.4136083 77.8591248,66.102504 C77.3337401,64.7913997 77.0710517,63.311747 77.0710517,61.6635016 C77.0710517,59.7904954 77.3337401,57.8675713 77.8591248,55.8946715 C78.3845095,53.9217717 79.1975927,51.7865767 80.2983988,49.4890224 C81.3992049,47.1914682 82.5813028,45.2061115 83.844728,43.5328926 C85.1081532,41.8596738 86.4903946,40.3987509 87.9914938,39.1500801 C89.492593,37.9014094 91.074978,36.908731 92.7386963,36.1720152 C94.4024146,35.4352995 96.0973804,35.0669471 97.8236445,35.0669471 C98.3990658,35.0669471 98.8493888,35.1793258 99.174627,35.4040865 C99.4998652,35.6288473 99.7688081,35.8848209 99.9814638,36.1720152 C100.19412,36.4592095 100.400518,36.7401562 100.600664,37.0148638 C100.800811,37.2895714 101.05099,37.4893557 101.35121,37.6142228 C101.65143,37.7390898 101.9579,37.8202522 102.270629,37.8577123 C102.583358,37.8951725 102.902336,37.9139022 103.227575,37.9139022 C103.502776,37.9139022 103.784228,37.907659 104.071939,37.8951723 C104.359649,37.8826856 104.641101,37.8764423 104.916303,37.8764423 C105.291578,37.8764423 105.641829,37.9139019 105.967067,37.9888221 C106.292305,38.0637424 106.580011,38.2260671 106.830195,38.4758013 C107.080378,38.7255354 107.274267,39.075158 107.411868,39.5246795 C107.549468,39.974201 107.618268,40.5860405 107.618268,41.3602163 C107.618268,42.5589403 107.493178,43.8887547 107.242995,45.3496995 C106.992812,46.8106443 106.717614,48.3090268 106.417394,49.8448918 C106.117175,51.3807569 105.329103,55.0705529 105.329103,55.0705529 C105.329103,55.0705529 104.691139,58.6791865 104.691139,60.0527244 C104.691139,61.2264749 104.230161,63.4477586 106.379867,63.7987179 C108.529573,64.1496772 109.979081,63.944864 110.975839,63.779988 C111.972596,63.615112 113.89671,61.8445606 114.48464,61.3076322 C115.072571,60.7707038 115.62922,60.2150536 116.154605,59.6406651 C117.380503,58.2921006 119.869807,55.0705529 119.869807,55.0705529 L123.487438,62.7312561 Z" id="Path" fill="#000000"></path>
                <path d="M63.8802083,70.4103966 C62.7168564,69.2241594 61.7036297,67.632128 60.8404976,65.6342548 C59.9773656,63.6363816 59.3018811,61.320132 58.8140238,58.6854367 C58.3261666,56.0507414 58.0822416,53.2849771 58.0822416,50.3880609 C58.0822416,48.1654269 58.2448583,45.7492852 58.5700964,43.1395633 C58.8953346,40.5298414 59.3706755,37.8389962 59.9961336,35.0669471 C60.6215916,32.294898 61.3658754,29.5104039 62.2290075,26.7133814 C63.0921395,23.9163589 64.0678394,21.231757 65.1561363,18.6594952 C66.2444332,16.0872334 67.4265311,13.6835782 68.7024654,11.4484575 C69.9783998,9.21333685 71.3168598,7.26543966 72.7178857,5.60470753 C74.1189117,3.9439754 75.5824614,2.63913402 77.108579,1.69014423 C78.6346965,0.741154443 80.1858091,0.266666667 81.7619632,0.266666667 C82.837751,0.266666667 83.7258881,0.510153815 84.426401,0.997135417 C85.126914,1.48411702 85.6773088,2.12717282 86.0776019,2.92632212 C86.477895,3.72547141 86.7593469,4.63074414 86.921966,5.64216747 C87.0845851,6.65359079 87.1658934,7.68372873 87.1658934,8.73261218 C87.1658934,11.0801132 86.8969505,13.4712819 86.3590566,15.9061899 C85.8211627,18.3410979 85.0956423,20.7884559 84.1824736,23.2483373 C83.2693049,25.7082188 82.2122968,28.1743065 81.0114174,30.6466747 C79.810538,33.1190428 78.5596408,35.5726441 77.2586881,38.0075521 C75.9577355,40.4424601 74.6505479,42.839872 73.3370861,45.1998598 C72.0236243,47.5598475 70.7914905,49.8636106 69.6406477,52.1112179 C69.5155561,52.3609521 69.3842119,52.6856016 69.2466112,53.0851763 C69.1090104,53.4847509 68.9776662,53.9155359 68.8525746,54.3775441 C68.727483,54.8395523 68.6023933,55.3327698 68.4773017,55.8572115 C68.3522101,56.3816533 68.2521383,56.8936006 68.1770833,57.3930689 L68.1770833,57.917508 C68.1770833,58.5668168 68.2458827,59.1973861 68.3834834,59.8092348 C68.5210842,60.4210835 68.6899553,60.9704904 68.8901019,61.457472 C69.0902485,61.9444536 69.302901,62.3315357 69.5280659,62.61873 C69.7532307,62.9059242 69.9658833,63.0495192 70.1660298,63.0495192 C70.6413779,63.0495192 71.1855182,62.9496271 71.7984671,62.7498397 C72.4114159,62.5500524 73.0618825,62.2815922 73.7498863,61.9444511 C74.4378901,61.60731 75.144647,61.2202279 75.8701783,60.7831931 C76.5957096,60.3461583 77.2962121,59.9028869 77.9717067,59.4533654 C79.5478609,58.4044819 81.1990452,57.1932895 82.9253093,55.8197516 L86.0025473,63.6863381 C83.7759168,65.2846367 81.5743377,66.7081001 79.3977438,67.9567708 C78.4470476,68.4812126 77.4650933,68.9994032 76.4518513,69.5113582 C75.4386094,70.0233132 74.4191281,70.4790712 73.393377,70.8786458 C72.3676259,71.2782205 71.3669081,71.5966268 70.3911936,71.8338742 C69.4154791,72.0711216 68.5023241,72.1897436 67.6517012,72.1897436 C66.3007119,72.1897436 65.0435602,71.5966339 63.8802083,70.4103966 Z" id="Path" fill="#000000"></path>
                <path d="M54.95872,68.44375 C54.6209727,71.5654269 54.0768324,74.6246244 53.3262828,77.6214343 C52.5757331,80.6182442 51.5812698,83.4526843 50.342863,86.1248397 C49.1044561,88.7969952 47.584616,91.144461 45.7832969,93.1673077 C43.9819779,95.1901543 41.874216,96.7946722 39.4599481,97.9809095 C37.0456803,99.1671467 34.2874518,99.7602564 31.1851801,99.7602564 C30.6097588,99.7602564 29.9217653,99.7227968 29.121179,99.6478766 C28.3205928,99.5729564 27.4824916,99.4480912 26.6068504,99.2732772 C25.7312092,99.0984633 24.8618356,98.8674627 23.9987036,98.5802684 C23.1355716,98.2930742 22.3662698,97.9372083 21.6907751,97.5126603 C21.0152805,97.0881122 20.4648857,96.5948946 20.0395742,96.0329928 C19.6142628,95.4710909 19.4016103,94.8280351 19.4016103,94.1038061 C19.4016103,93.7292049 19.4829186,93.2359873 19.6455377,92.6241386 C19.8081567,92.0122899 20.0583362,91.4191802 20.3960835,90.8447917 C20.7338308,90.2704031 21.1591359,89.7709423 21.6720115,89.3463942 C22.184887,88.9218462 22.8040812,88.7095753 23.5296124,88.7095753 C24.355217,88.7095753 25.1557912,88.846927 25.9313592,89.1216346 C26.7069271,89.3963422 27.5075013,89.7022619 28.3331059,90.039403 C29.1587105,90.3765442 30.0218296,90.6824639 30.9224891,90.9571715 C31.8231486,91.231879 32.7988485,91.3692308 33.8496179,91.3692308 C35.025479,91.3692308 36.1825589,90.7698778 37.3208925,89.5711538 C38.459226,88.3724299 39.5349977,86.8116148 40.5482396,84.8886619 C41.5614816,82.9657089 42.4871456,80.8117841 43.3252593,78.4268229 C44.163373,76.0418617 44.8701299,73.6506931 45.4455513,71.2532452 C44.2446719,72.3520755 42.9750112,73.3946999 41.6365311,74.3811498 C40.298051,75.3675998 38.7719563,76.2291697 37.0582014,76.9658854 C35.3444465,77.7026012 33.3867923,78.2894676 31.1851801,78.7265024 C28.983568,79.1635372 26.4317376,79.3820513 23.5296124,79.3820513 C20.1521392,79.3820513 16.868534,78.7015359 13.6786981,77.3404848 C10.4888623,75.9794336 7.93077746,74.1439151 6.00436681,71.8338742 C4.07795616,69.5238333 2.59564293,66.8392314 1.55738264,63.779988 C0.519122356,60.7207446 0,57.5054656 0,54.1340545 C0,49.7137599 0.531631328,45.4870728 1.59490993,41.4538662 C2.65818854,37.4206596 4.1279928,33.6747035 6.00436681,30.2158854 C7.88074082,26.7570674 10.0948289,23.6229507 12.6466976,20.8134415 C15.1985663,18.0039323 17.9505402,15.6065203 20.902702,13.6211338 C23.8548637,11.6357473 26.9508344,10.0999053 30.1907069,9.0135617 C33.4305793,7.92721813 36.6766577,7.38405449 39.9290393,7.38405449 C41.9305049,7.38405449 43.7880873,7.68373098 45.5018422,8.28309295 C47.2155972,8.88245492 48.7041649,9.81894395 49.9675901,11.0925881 C51.2310152,12.3662323 52.2192241,13.9769935 52.9322462,15.9249199 C53.6452683,17.8728463 54.001774,20.1953391 54.001774,22.8924679 C54.001774,23.9413514 53.8766843,24.9839759 53.6265011,26.0203726 C53.3763179,27.0567693 52.9635218,28.0993938 52.3881004,29.1482772 C51.5875142,30.3220278 50.8119579,31.1523814 50.0614083,31.639363 C49.3108587,32.1263446 48.5978473,32.3698317 47.9223526,32.3698317 C47.3969679,32.3698317 46.909118,32.23248 46.4587882,31.9577724 C46.0084584,31.6830649 45.6206803,31.3209558 45.2954421,30.8714343 C44.970204,30.4219128 44.71377,29.9162087 44.5261326,29.3543069 C44.3384952,28.792405 44.2446779,28.2117818 44.2446779,27.6124199 C44.2446779,27.137925 44.3197318,26.6759237 44.4698417,26.2264022 C44.6199516,25.7768808 44.7763138,25.327366 44.9389329,24.8778446 C45.1015519,24.4283231 45.2579141,23.9600786 45.408024,23.473097 C45.5581339,22.9861154 45.6331878,22.4804113 45.6331878,21.9559696 C45.6331878,19.458628 45.082793,17.5856499 43.9819869,16.3369792 C42.8811808,15.0883084 41.5051938,14.4639824 39.8539847,14.4639824 C37.8275008,14.4639824 35.694721,14.8822808 33.4555813,15.7188902 C31.2164417,16.5554996 29.021117,17.7666921 26.8695415,19.352504 C24.717966,20.9383159 22.672749,22.8862131 20.7338291,25.196254 C18.7949093,27.5062949 17.0874346,30.147194 15.6113537,33.1190304 C14.1352728,36.0908669 12.9656839,39.3685785 12.1025519,42.9522636 C11.2394198,46.5359487 10.8078603,50.3880403 10.8078603,54.5086538 C10.8078603,57.0809156 11.1268391,59.3222461 11.7648062,61.2327123 C12.4027734,63.1431786 13.5473444,64.73521 15.1985535,66.0088542 C16.8497626,67.2824984 18.5259649,68.2314739 20.2272107,68.8558093 C21.9284565,69.4801447 23.8423293,69.7923077 25.9688865,69.7923077 C29.921781,69.7923077 33.561892,69.2616306 36.8893286,68.2002604 C40.2167652,67.1388903 43.3440083,65.6467511 46.2711517,63.7237981 C46.4712983,62.9745956 46.6464239,62.2566207 46.7965338,61.5698518 C46.9466438,60.8830828 47.0216976,60.2525136 47.0216976,59.678125 C47.0216976,58.9289225 46.9216258,58.3358128 46.7214793,57.898778 C46.5213327,57.4617433 46.2523898,57.1370937 45.9146425,56.9248197 C45.5768951,56.7125457 45.176608,56.5814372 44.7137691,56.5314904 C44.2509302,56.4815436 43.7568258,56.4565705 43.231441,56.4565705 C42.2807449,56.4565705 41.4488982,56.3317053 40.7358761,56.0819712 C40.022854,55.832237 39.4161688,55.5075875 38.9158024,55.1080128 C38.415436,54.7084382 38.0401668,54.2464369 37.7899836,53.7219952 C37.5398004,53.1975535 37.4147107,52.6731196 37.4147107,52.1486779 C37.4147107,51.6242362 37.5335459,51.1185321 37.77122,50.6315505 C38.008894,50.1445689 38.3779087,49.7137839 38.8782751,49.3391827 C39.3786415,48.9645815 40.0103446,48.6586617 40.7734034,48.4214143 C41.5364621,48.1841668 42.4308537,48.0655449 43.4566048,48.0655449 C45.8833819,48.0655449 47.878563,48.3152753 49.442208,48.8147436 C51.005853,49.3142119 52.2317323,50.0509166 53.1198826,51.0248798 C54.008033,51.998843 54.6209727,53.1913057 54.95872,54.6023037 C55.2964673,56.0133017 55.4653384,57.6178195 55.4653384,59.4159054 C55.4653384,62.3128216 55.2964673,65.3220731 54.95872,68.44375 Z" id="Path" fill="#000000"></path>
                <path d="M67.3956076,42.7324117 C67.3956076,42.7324117 62.8430281,54.0535994 46.1689491,64.0649243 C29.4948702,74.0762492 27.9016857,76.637761 35.1007176,77.6833435 C68.4914734,63.1661161 69.5004396,51.7646368 69.5004396,51.7646368 L67.3956076,42.7324117 Z" id="Path-15" fill="#000000"></path>
                <path d="M86.6780386,60.0527244 C86.6780386,60.6770597 86.72182,61.282656 86.8093841,61.8695312 C86.8969482,62.4564065 87.0533104,62.9808404 87.2784753,63.4428486 C87.5036401,63.9048567 87.8038555,64.2794524 88.1791303,64.5666466 C88.5544051,64.8538409 89.029746,64.9974359 89.6051674,64.9974359 C90.5308452,64.9974359 91.3689464,64.5978672 92.119496,63.7987179 C92.8700456,62.9995687 93.5205122,62.0381066 94.0709152,60.9143029 C94.6213183,59.7904992 95.0653868,58.6292528 95.4031341,57.4305288 C95.7408814,56.2318049 95.9597884,55.2328833 96.0598617,54.433734 L98.8744087,42.1843349 C97.8486575,42.1843349 96.8479397,42.4403086 95.8722253,42.9522636 C94.8965108,43.4642186 93.9771013,44.1572205 93.1139693,45.0312901 C92.2508372,45.9053596 91.4565175,46.9042812 90.7309862,48.0280849 C90.0054549,49.1518886 89.2924435,50.5378924 88.5919305,52.1861378 C87.8914175,53.8343832 87.3973131,55.2828196 87.1096024,56.5314904 C86.8218918,57.7801612 86.6780386,58.9538941 86.6780386,60.0527244 L86.6780386,60.0527244 Z" id="Path" fill="#FFFFFF"></path>
                <path d="M147.809998,54.5835737 C148.710658,54.5835737 149.692612,54.3525731 150.755891,53.8905649 C151.819169,53.4285567 152.807378,52.835447 153.720547,52.1112179 C154.633715,51.3869889 155.528107,50.4130403 156.403748,49.1893429 C157.279389,47.9656456 157.717203,46.9542374 157.717203,46.1550881 C157.717203,45.0312844 157.510805,44.1072819 157.098003,43.3830529 C156.685201,42.6588238 156.178587,42.2967147 155.578148,42.2967147 C154.50236,42.2967147 153.582951,42.4964991 152.819892,42.8960737 C152.056833,43.2956484 151.418875,43.813839 150.906,44.4506611 C150.393124,45.0874832 149.980328,45.8117013 149.667599,46.6233373 C149.35487,47.4349733 148.99211,48.4401382 148.579308,49.6388622 C148.166505,50.8375861 147.935089,51.8240212 147.885053,52.5981971 C147.835016,53.372373 147.809998,54.0341586 147.809998,54.5835737 L147.809998,54.5835737 Z" id="Path" fill="#FFFFFF"></path>
                <path d="M67.6892285,42.2217949 C68.8150529,40.2239216 70.0096598,37.976348 71.273085,35.4790064 C72.5365101,32.9816649 73.731117,30.4094417 74.8569414,27.7622596 C75.9827658,25.1150776 76.9584657,22.4741785 77.7840702,19.8394832 C78.6096748,17.2047878 79.1350516,14.7511866 79.3602165,12.4786058 C79.3602165,11.7543767 79.3414531,11.136294 79.3039256,10.6243389 C79.2663981,10.1123839 79.1475629,9.85641026 78.9474163,9.85641026 C78.221885,9.85641026 77.4400742,10.3246548 76.6019605,11.2611579 C75.7638468,12.1976609 74.9257456,13.4650428 74.0876319,15.0633413 C73.2495182,16.6616399 72.448944,18.5221315 71.6858852,20.6448718 C70.9228264,22.7676121 70.2410874,25.0276723 69.6406477,27.4251202 C69.0402081,29.8225681 68.5648671,32.2886559 68.2146106,34.8234575 C67.8643541,37.3582592 67.6892285,39.824347 67.6892285,42.2217949 L67.6892285,42.2217949 Z" id="Path" fill="#FFFFFF"></path>
                <path d="M185.017234,41.9068517 C183.362018,42.7093807 181.888647,43.7689539 180.597077,45.0856031 C179.305507,46.4022522 178.227125,48.1389491 177.361898,50.2957458 C176.496672,52.4525424 175.838357,54.3083629 175.386935,55.8632629 C174.935512,57.4181628 174.709804,58.8225675 174.709804,60.0765191 C174.709804,60.5780997 174.766231,61.0796728 174.879087,61.5812534 C174.991942,62.082834 175.198841,62.5342498 175.49979,62.9355143 C175.800738,63.3367788 176.227075,63.6628013 176.778814,63.9135917 C177.330553,64.164382 178.045294,64.2897752 178.92306,64.2897752 C179.374483,64.2897752 179.819629,64.1769213 180.258512,63.95121 C180.697395,63.7254987 181.117463,63.4308245 181.518727,63.0671786 C181.919992,62.7035326 182.302441,62.2897348 182.666087,61.8257727 C183.029733,61.3618107 183.362025,60.8790465 183.662974,60.3774659 C184.365186,59.2238305 185.004692,57.9197404 185.58151,56.4651566 C185.506273,56.1140502 185.443576,55.5560501 185.393418,54.7911396 C185.34326,54.0262292 185.305642,52.8600717 185.280563,51.2926323 C185.255484,49.7251928 185.230405,48.4399117 185.205326,47.4367505 C185.180247,46.4335892 185.161438,45.5182183 185.148899,44.6906103 C185.136359,43.8630023 185.11755,43.1858786 185.092471,42.6592189 C185.067392,42.1325593 185.042314,41.8817727 185.017234,41.9068517 L185.017234,41.9068517 Z M198.691508,71.8698745 C197.951677,72.0830463 197.268283,72.1896306 196.641307,72.1896306 C196.290201,72.1896306 195.769819,72.1143946 195.080145,71.9639204 C194.390472,71.8134463 193.638112,71.5062327 192.823044,71.0422707 C192.007975,70.5783086 191.192919,69.9074545 190.377851,69.0296885 C189.562782,68.1519224 188.85431,66.9857649 188.252413,65.5311811 C187.324489,66.4340262 186.340152,67.2929701 185.299372,68.1080387 C184.258592,68.9231072 183.18021,69.6315792 182.064193,70.2334759 C180.948176,70.8353727 179.819637,71.3181368 178.678541,71.6817828 C177.537445,72.0454287 176.390097,72.227249 175.236461,72.227249 C173.606324,72.227249 172.19565,71.8761478 171.004396,71.1739349 C169.813142,70.471722 168.822535,69.5375421 168.032545,68.3713672 C167.242556,67.2051922 166.653208,65.8822932 166.264483,64.4026303 C165.875758,62.9229675 165.681398,61.3931695 165.681398,59.8131905 C165.681398,58.2081325 165.888297,56.5842896 166.302101,54.9416131 C166.715905,53.2989365 167.317793,51.7064419 168.107782,50.1640815 C168.897772,48.6217211 169.775525,47.0104175 170.741067,45.3301224 C171.70661,43.6498273 172.985621,42.1200293 174.57814,40.7406826 C176.170658,39.3613359 177.807041,38.3205717 179.487336,37.6183588 C181.167631,36.916146 182.960755,36.4772695 184.866761,36.3017163 C184.941998,33.0916003 185.230403,30.2326336 185.731983,27.7247305 C186.233564,25.2168273 186.898148,22.5459506 187.725756,19.71202 C188.553364,16.8780895 189.525162,14.25737 190.641179,11.849783 C191.757196,9.44219603 192.97978,7.36066766 194.308969,5.60513547 C195.638158,3.84960328 197.055102,2.47654691 198.559844,1.48592517 C200.064586,0.495303438 201.619462,-7.57912251e-15 203.22452,-7.57912251e-15 C204.403235,-7.57912251e-15 205.406381,0.307213525 206.233989,0.921649791 C207.061597,1.53608606 207.732451,2.35114235 208.246571,3.36684312 C208.760691,4.38254388 209.130601,5.56124067 209.356313,6.90296885 C209.582024,8.24469702 209.694878,9.63029271 209.694878,11.0597975 C209.694878,11.9375636 209.65726,12.8403952 209.582023,13.7683193 C209.255995,17.3044627 208.654108,20.6461935 207.776342,23.793612 C206.898575,26.9410304 205.870351,30.006896 204.691636,32.9913007 C203.512922,35.9757054 202.23391,38.9349867 200.854564,41.8692334 C198.747925,46.35838 197.406217,49.4054366 196.829399,51.0104946 C196.704004,51.361601 196.578611,51.7879381 196.453216,52.2895188 C196.32782,52.7910994 196.208697,53.3365601 196.095841,53.9259174 C195.982986,54.5152746 195.888941,55.1171623 195.813703,55.7315986 C195.738466,56.3460349 195.700848,56.9416529 195.700848,57.5184707 C195.700848,58.2457626 195.744736,58.9354256 195.832513,59.5874804 C195.920289,60.2395352 196.064492,60.8226139 196.265124,61.3367341 C196.465756,61.8508542 196.735352,62.2583824 197.073918,62.5593307 C197.412485,62.8602791 197.832553,63.010751 198.334134,63.010751 C198.810635,63.010751 199.331017,62.9167061 199.895295,62.7286133 C200.459574,62.5405206 201.055192,62.2834644 201.682167,61.957437 C202.309143,61.6314096 202.942379,61.2614994 203.581895,60.8476954 C204.22141,60.4338914 204.842107,60.0138239 205.444003,59.5874804 C206.82335,58.5843191 208.265373,57.4432403 209.770115,56.1642097 C209.770115,56.1642097 210.902854,64.8895508 198.691508,71.8698745 Z M202.697863,16.5144595 C202.848337,14.7589273 202.923573,13.367062 202.923573,12.3388217 C202.923573,10.984554 202.80445,10.0441044 202.566199,9.51744478 C202.327948,8.99078513 201.983117,8.72745925 201.531694,8.72745925 C200.729165,8.72745925 200.001884,9.23530201 199.349829,10.2510028 C198.697774,11.2667035 198.120965,12.5645239 197.619385,14.1445029 C197.117804,15.7244819 196.678928,17.4674484 196.302742,19.3734548 C195.926557,21.2794612 195.613073,23.1227423 195.362283,24.9033535 C195.111493,26.6839648 194.910864,28.2889987 194.760389,29.7185035 C194.609915,31.1480083 194.509601,32.1636938 194.459443,32.7655905 C194.359126,33.9944631 194.277621,35.1794295 194.214923,36.3205255 C194.152226,37.4616214 194.108338,38.5023856 194.083259,39.4428492 C194.05818,40.3833129 194.045641,41.2046389 194.045641,41.9068517 L194.045641,43.5244412 L194.045641,43.9006248 C195.475145,40.6403507 196.791775,37.3926649 197.995568,34.1574698 C198.497149,32.7781231 199.004992,31.3298308 199.519112,29.8125494 C200.033232,28.295268 200.503457,26.7717397 200.9298,25.2419188 C201.356144,23.7120979 201.726054,22.2073786 202.039542,20.7277157 C202.35303,19.2480529 202.572468,17.8436482 202.697863,16.5144595 L202.697863,16.5144595 Z" id="d" fill="#000000"></path>
            </g>
            <g id="sprinkles" transform="translate(8.000000, 8.000000)" fill="#F7A8A5">
                <ellipse id="Oval" cx="9.45427849" cy="17.3734252" rx="2.08395983" ry="2.08175458"></ellipse>
                <ellipse id="Oval" cx="18.4636318" cy="13.2091142" rx="2.08395983" ry="2.08175458"></ellipse>
                <ellipse id="Oval" cx="51.6424236" cy="12.6806565" rx="2.08395983" ry="2.08175458"></ellipse>
                <ellipse id="Oval" cx="2.16684116" cy="23.0806083" rx="2.08395983" ry="2.08175458"></ellipse>
                <ellipse id="Oval" cx="11.1232124" cy="26.3884811" rx="2.08395983" ry="2.08175458"></ellipse>
                <ellipse id="Oval" cx="21.0589485" cy="4.35283623" rx="2.08395983" ry="2.08175458"></ellipse>
                <ellipse id="Oval" cx="41.6665496" cy="13.9605025" rx="2.08395983" ry="2.08175458"></ellipse>
                <ellipse id="Oval" cx="41.6665496" cy="5.81150787" rx="2.08395983" ry="2.08175458"></ellipse>
                <ellipse id="Oval" cx="57.4022124" cy="23.6194909" rx="2.08395983" ry="2.08175458"></ellipse>
                <ellipse id="Oval" cx="11.1232124" cy="9.29499858" rx="2.08395983" ry="2.08175458"></ellipse>
                <ellipse id="Oval" cx="30.6888337" cy="9.97581894" rx="2.08395983" ry="2.08175458"></ellipse>
                <ellipse id="Oval" cx="47.7811575" cy="20.9996557" rx="2.08395983" ry="2.08175458"></ellipse>
                <ellipse id="Oval" cx="31.5068441" cy="2.26947784" rx="2.08395983" ry="2.08175458"></ellipse>
            </g>
        </g>
    </g>
</svg>