<?xml version="1.0" encoding="UTF-8" standalone="no"?>
<svg width="673px" height="32px" viewBox="0 0 673 32" version="1.1" xmlns="http://www.w3.org/2000/svg" xmlns:xlink="http://www.w3.org/1999/xlink">
    <!-- Generator: Sketch Beta 3.7.2 (28276) - http://www.bohemiancoding.com/sketch -->
    <title>glazed-description</title>
    <desc>Created with Sketch Beta.</desc>
    <defs></defs>
    <g id="Page-1" stroke="none" stroke-width="1" fill="none" fill-rule="evenodd">
        <g id="glazed-description">
            <g id="glazed-slogan">
                <g id="Group-3">
                    <path d="M0.258,12.998 C0.258,11.2753247 0.51299745,9.63767443 1.023,8.085 C1.53300255,6.53232557 2.27532846,5.16667256 3.25,3.988 C4.22467154,2.80932744 5.42032625,1.87433679 6.837,1.183 C8.25367375,0.49166321 9.87999082,0.146 11.716,0.146 C12.9626729,0.146 14.152661,0.32733152 15.286,0.69 C16.419339,1.05266848 17.4336622,1.58532982 18.329,2.288 C19.2243378,2.99067018 19.9779969,3.84066168 20.59,4.838 C21.2020031,5.83533832 21.609999,6.96866032 21.814,8.238 L20.386,8.238 C19.8193305,6.10732268 18.7993407,4.44133934 17.326,3.24 C15.8526593,2.03866066 13.9940112,1.438 11.75,1.438 C10.1179918,1.438 8.6786729,1.75533016 7.432,2.39 C6.1853271,3.02466984 5.14267086,3.87466134 4.304,4.94 C3.46532914,6.00533866 2.83066882,7.23499303 2.4,8.629 C1.96933118,10.023007 1.754,11.4793257 1.754,12.998 C1.754,14.539341 1.96366457,15.9956598 2.383,17.367 C2.80233543,18.7383402 3.42566253,19.9339949 4.253,20.954 C5.08033747,21.9740051 6.1173271,22.7843303 7.364,23.385 C8.6106729,23.9856697 10.0726583,24.286 11.75,24.286 C13.2006739,24.286 14.5039942,24.0480024 15.66,23.572 C16.8160058,23.0959976 17.7963293,22.4273376 18.601,21.566 C19.4056707,20.7046624 20.011998,19.6676727 20.42,18.455 C20.828002,17.2423273 20.9980003,15.8880075 20.93,14.392 L11.988,14.392 L11.988,13.1 L22.222,13.1 L22.222,25 L20.93,25 L20.93,19.832 L20.862,19.832 C20.5673319,20.7160044 20.1253363,21.5149964 19.536,22.229 C18.9466637,22.9430036 18.2496707,23.5436642 17.445,24.031 C16.6403293,24.5183358 15.7450049,24.8979986 14.759,25.17 C13.7729951,25.4420014 12.7473387,25.578 11.682,25.578 C9.84599082,25.578 8.21967375,25.2493366 6.803,24.592 C5.38632625,23.9346634 4.19067154,23.039339 3.216,21.906 C2.24132846,20.772661 1.50466916,19.4410076 1.006,17.911 C0.50733084,16.3809923 0.258,14.7433421 0.258,12.998 L0.258,12.998 Z M27.696,0.724 L27.696,25 L26.404,25 L26.404,0.724 L27.696,0.724 Z M43.404,21.532 L43.336,21.532 C43.131999,22.0533359 42.8373353,22.546331 42.452,23.011 C42.0666647,23.475669 41.5963361,23.8893315 41.041,24.252 C40.4856639,24.6146685 39.8566702,24.897999 39.154,25.102 C38.4513298,25.306001 37.6806709,25.408 36.842,25.408 C34.983324,25.408 33.5440051,25.0056707 32.524,24.201 C31.5039949,23.3963293 30.994,22.1553417 30.994,20.478 C30.994,19.4579949 31.197998,18.6250032 31.606,17.979 C32.014002,17.3329968 32.5296636,16.8230019 33.153,16.449 C33.7763365,16.0749981 34.4676629,15.8086675 35.227,15.65 C35.9863371,15.4913325 36.7173298,15.3780003 37.42,15.31 L39.426,15.14 C40.355338,15.0719997 41.0863307,14.9643341 41.619,14.817 C42.1516693,14.6696659 42.5539986,14.465668 42.826,14.205 C43.0980014,13.944332 43.2679997,13.610002 43.336,13.202 C43.4040003,12.793998 43.438,12.2840031 43.438,11.672 C43.438,11.1959976 43.3473342,10.754002 43.166,10.346 C42.9846658,9.93799796 42.7013353,9.57533492 42.316,9.258 C41.9306647,8.94066508 41.4320031,8.69133424 40.82,8.51 C40.2079969,8.32866576 39.4600044,8.238 38.576,8.238 C37.0119922,8.238 35.7483382,8.62332948 34.785,9.394 C33.8216619,10.1646705 33.2946671,11.3319922 33.204,12.896 L31.912,12.896 C32.0026671,10.9693237 32.6203276,9.52433815 33.765,8.561 C34.9096724,7.59766185 36.5359895,7.116 38.644,7.116 C40.7520105,7.116 42.2876619,7.52966253 43.251,8.357 C44.2143382,9.18433747 44.696,10.26666 44.696,11.604 L44.696,21.77 C44.696,22.0193346 44.7016666,22.2686654 44.713,22.518 C44.7243334,22.7673346 44.7639997,22.993999 44.832,23.198 C44.9000003,23.402001 45.0133325,23.5663327 45.172,23.691 C45.3306675,23.8156673 45.5573319,23.878 45.852,23.878 C46.0786678,23.878 46.395998,23.8440003 46.804,23.776 L46.804,24.864 C46.4639983,24.9546671 46.1126685,25 45.75,25 C45.2286641,25 44.8150015,24.9320007 44.509,24.796 C44.2029985,24.6599993 43.9706675,24.4786678 43.812,24.252 C43.6533325,24.0253322 43.545667,23.7590015 43.489,23.453 C43.4323331,23.1469985 43.404,22.8126685 43.404,22.45 L43.404,21.532 Z M43.404,15.072 C43.0866651,15.4573353 42.6050032,15.7179993 41.959,15.854 C41.3129968,15.9900007 40.5933373,16.0919997 39.8,16.16 L37.624,16.364 C36.9893302,16.4320003 36.3546698,16.5283327 35.72,16.653 C35.0853302,16.7776673 34.5130026,16.9873319 34.003,17.282 C33.4929975,17.5766681 33.0793349,17.9789974 32.762,18.489 C32.4446651,18.9990025 32.286,19.6619959 32.286,20.478 C32.286,21.7700065 32.6939959,22.7276635 33.51,23.351 C34.3260041,23.9743364 35.4479929,24.286 36.876,24.286 C38.3493407,24.286 39.5166624,24.0196693 40.378,23.487 C41.2393376,22.9543307 41.8966644,22.3423368 42.35,21.651 C42.8033356,20.9596632 43.0923327,20.2910032 43.217,19.645 C43.3416673,18.9989968 43.404,18.5626678 43.404,18.336 L43.404,15.072 Z M61.084,23.878 L61.084,25 L47.212,25 L47.212,23.776 L58.942,8.646 L48.13,8.646 L48.13,7.524 L60.54,7.524 L60.54,8.748 L48.776,23.878 L61.084,23.878 Z M63.804,16.432 L63.804,16.636 C63.804,17.6560051 63.9399986,18.630662 64.212,19.56 C64.4840014,20.489338 64.8863307,21.3053298 65.419,22.008 C65.9516693,22.7106702 66.6203293,23.265998 67.425,23.674 C68.2296707,24.082002 69.1646613,24.286 70.23,24.286 C71.9753421,24.286 73.3579949,23.8270046 74.378,22.909 C75.3980051,21.9909954 76.1006647,20.7160082 76.486,19.084 L77.778,19.084 C77.3926647,21.1240102 76.5596731,22.6879946 75.279,23.776 C73.9983269,24.8640054 72.3040105,25.408 70.196,25.408 C68.9039935,25.408 67.7763382,25.175669 66.813,24.711 C65.8496619,24.246331 65.0450032,23.6116707 64.399,22.807 C63.7529968,22.0023293 63.2713349,21.0503388 62.954,19.951 C62.6366651,18.8516612 62.478,17.6673397 62.478,16.398 C62.478,15.1739939 62.6423317,14.0010056 62.971,12.879 C63.2996683,11.7569944 63.7926634,10.7710042 64.45,9.921 C65.1073366,9.07099575 65.9289951,8.39100255 66.915,7.881 C67.9010049,7.37099745 69.06266,7.116 70.4,7.116 C71.6240061,7.116 72.7063286,7.3426644 73.647,7.796 C74.5876714,8.2493356 75.3753302,8.86699609 76.01,9.649 C76.6446698,10.4310039 77.1263317,11.3376615 77.455,12.369 C77.7836683,13.4003385 77.948,14.5053274 77.948,15.684 C77.948,15.7973339 77.9423334,15.9276659 77.931,16.075 C77.9196666,16.2223341 77.914,16.3413329 77.914,16.432 L63.804,16.432 Z M76.622,15.31 C76.5766664,14.3579952 76.4180014,13.4570042 76.146,12.607 C75.8739986,11.7569957 75.4716693,11.0090032 74.939,10.363 C74.4063307,9.71699677 73.7603371,9.20133526 73.001,8.816 C72.2416629,8.43066474 71.3746715,8.238 70.4,8.238 C69.3573281,8.238 68.4393373,8.43633135 67.646,8.833 C66.8526627,9.22966865 66.1840027,9.75099677 65.64,10.397 C65.0959973,11.0430032 64.6766681,11.7966624 64.382,12.658 C64.0873319,13.5193376 63.9060003,14.4033288 63.838,15.31 L76.622,15.31 Z M94.438,21.26 L94.37,21.26 C93.644663,22.6426736 92.7380054,23.6796632 91.65,24.371 C90.5619946,25.0623368 89.2360078,25.408 87.672,25.408 C86.3573268,25.408 85.2240048,25.1586692 84.272,24.66 C83.3199952,24.1613308 82.5380031,23.4926709 81.926,22.654 C81.3139969,21.8153291 80.8606681,20.8463388 80.566,19.747 C80.2713319,18.6476612 80.124,17.4973393 80.124,16.296 C80.124,15.0039935 80.2826651,13.7970056 80.6,12.675 C80.9173349,11.5529944 81.3989968,10.5840041 82.045,9.768 C82.6910032,8.95199592 83.5013285,8.30600238 84.476,7.83 C85.4506715,7.35399762 86.5953268,7.116 87.91,7.116 C88.6126702,7.116 89.3039966,7.21233237 89.984,7.405 C90.6640034,7.59766763 91.2929971,7.87533152 91.871,8.238 C92.4490029,8.60066848 92.9533312,9.05399728 93.384,9.598 C93.8146688,10.1420027 94.1433322,10.7539966 94.37,11.434 L94.438,11.434 L94.438,0.724 L95.73,0.724 L95.73,25 L94.438,25 L94.438,21.26 Z M87.944,24.286 C89.0546722,24.286 90.0123293,24.0593356 90.817,23.606 C91.6216707,23.1526644 92.2903307,22.5520037 92.823,21.804 C93.3556693,21.0559963 93.752332,20.2003381 94.013,19.237 C94.273668,18.2736618 94.404,17.2933383 94.404,16.296 C94.404,15.2759949 94.273668,14.2843381 94.013,13.321 C93.752332,12.3576618 93.3613359,11.4963371 92.84,10.737 C92.3186641,9.97766287 91.6443375,9.3713356 90.817,8.918 C89.9896625,8.4646644 89.0206722,8.238 87.91,8.238 C86.7539942,8.238 85.7680041,8.45899779 84.952,8.901 C84.1359959,9.34300221 83.4616693,9.93799626 82.929,10.686 C82.3963307,11.4340037 82.0110012,12.2953285 81.773,13.27 C81.5349988,14.2446715 81.416,15.2533281 81.416,16.296 C81.416,17.3160051 81.546332,18.3076618 81.807,19.271 C82.067668,20.2343381 82.4643307,21.0899963 82.997,21.838 C83.5296693,22.5860037 84.2039959,23.1809978 85.02,23.623 C85.8360041,24.0650022 86.810661,24.286 87.944,24.286 L87.944,24.286 Z M109.602,4.226 L109.602,0.724 L110.894,0.724 L110.894,4.226 L109.602,4.226 Z M109.602,25 L109.602,7.524 L110.894,7.524 L110.894,25 L109.602,25 Z M115.62,19.186 C115.665334,20.0020041 115.846665,20.7216635 116.164,21.345 C116.481335,21.9683364 116.894997,22.5009978 117.405,22.943 C117.915003,23.3850022 118.509997,23.7193322 119.19,23.946 C119.870003,24.1726678 120.606663,24.286 121.4,24.286 C121.96667,24.286 122.572997,24.2350005 123.219,24.133 C123.865003,24.0309995 124.465664,23.8440014 125.021,23.572 C125.576336,23.2999986 126.035332,22.9203358 126.398,22.433 C126.760668,21.9456642 126.942,21.3280037 126.942,20.58 C126.942,19.6053285 126.647336,18.8686692 126.058,18.37 C125.468664,17.8713308 124.726338,17.4860014 123.831,17.214 C122.935662,16.9419986 121.972338,16.7210008 120.941,16.551 C119.909662,16.3809991 118.946338,16.1260017 118.051,15.786 C117.155662,15.4459983 116.413336,14.9643364 115.824,14.341 C115.234664,13.7176635 114.94,12.8053393 114.94,11.604 C114.94,10.7426624 115.132665,10.0230029 115.518,9.445 C115.903335,8.86699711 116.39633,8.4080017 116.997,8.068 C117.59767,7.7279983 118.271996,7.48433407 119.02,7.337 C119.768004,7.18966593 120.515996,7.116 121.264,7.116 C122.170671,7.116 123.020663,7.21799898 123.814,7.422 C124.607337,7.62600102 125.292997,7.9546644 125.871,8.408 C126.449003,8.8613356 126.902332,9.43932982 127.231,10.142 C127.559668,10.8446702 127.724,11.6946617 127.724,12.692 L126.432,12.692 C126.432,11.8986627 126.301668,11.2186695 126.041,10.652 C125.780332,10.0853305 125.417669,9.62633509 124.953,9.275 C124.488331,8.92366491 123.93867,8.66300085 123.304,8.493 C122.66933,8.32299915 121.989337,8.238 121.264,8.238 C120.674664,8.238 120.07967,8.2946661 119.479,8.408 C118.87833,8.5213339 118.340002,8.71399864 117.864,8.986 C117.387998,9.25800136 116.997002,9.60933118 116.691,10.04 C116.384998,10.4706688 116.232,10.9919969 116.232,11.604 C116.232,12.3066702 116.401998,12.8733312 116.742,13.304 C117.082002,13.7346688 117.529664,14.080332 118.085,14.341 C118.640336,14.601668 119.263663,14.8113325 119.955,14.97 C120.646337,15.1286675 121.34333,15.2873325 122.046,15.446 C122.907338,15.6046675 123.717663,15.7916656 124.477,16.007 C125.236337,16.2223344 125.893664,16.5169981 126.449,16.891 C127.004336,17.2650019 127.440665,17.7466637 127.758,18.336 C128.075335,18.9253363 128.234,19.6733288 128.234,20.58 C128.234,21.5320048 128.018669,22.3139969 127.588,22.926 C127.157331,23.5380031 126.613337,24.0309981 125.956,24.405 C125.298663,24.7790019 124.567671,25.0396659 123.763,25.187 C122.958329,25.3343341 122.170671,25.408 121.4,25.408 C120.402662,25.408 119.479004,25.277668 118.629,25.017 C117.778996,24.756332 117.03667,24.3596693 116.402,23.827 C115.76733,23.2943307 115.268668,22.6426705 114.906,21.872 C114.543332,21.1013295 114.350667,20.2060051 114.328,19.186 L115.62,19.186 Z M152.408,21.532 L152.34,21.532 C152.135999,22.0533359 151.841335,22.546331 151.456,23.011 C151.070665,23.475669 150.600336,23.8893315 150.045,24.252 C149.489664,24.6146685 148.86067,24.897999 148.158,25.102 C147.45533,25.306001 146.684671,25.408 145.846,25.408 C143.987324,25.408 142.548005,25.0056707 141.528,24.201 C140.507995,23.3963293 139.998,22.1553417 139.998,20.478 C139.998,19.4579949 140.201998,18.6250032 140.61,17.979 C141.018002,17.3329968 141.533664,16.8230019 142.157,16.449 C142.780336,16.0749981 143.471663,15.8086675 144.231,15.65 C144.990337,15.4913325 145.72133,15.3780003 146.424,15.31 L148.43,15.14 C149.359338,15.0719997 150.090331,14.9643341 150.623,14.817 C151.155669,14.6696659 151.557999,14.465668 151.83,14.205 C152.102001,13.944332 152.272,13.610002 152.34,13.202 C152.408,12.793998 152.442,12.2840031 152.442,11.672 C152.442,11.1959976 152.351334,10.754002 152.17,10.346 C151.988666,9.93799796 151.705335,9.57533492 151.32,9.258 C150.934665,8.94066508 150.436003,8.69133424 149.824,8.51 C149.211997,8.32866576 148.464004,8.238 147.58,8.238 C146.015992,8.238 144.752338,8.62332948 143.789,9.394 C142.825662,10.1646705 142.298667,11.3319922 142.208,12.896 L140.916,12.896 C141.006667,10.9693237 141.624328,9.52433815 142.769,8.561 C143.913672,7.59766185 145.539989,7.116 147.648,7.116 C149.756011,7.116 151.291662,7.52966253 152.255,8.357 C153.218338,9.18433747 153.7,10.26666 153.7,11.604 L153.7,21.77 C153.7,22.0193346 153.705667,22.2686654 153.717,22.518 C153.728333,22.7673346 153.768,22.993999 153.836,23.198 C153.904,23.402001 154.017333,23.5663327 154.176,23.691 C154.334667,23.8156673 154.561332,23.878 154.856,23.878 C155.082668,23.878 155.399998,23.8440003 155.808,23.776 L155.808,24.864 C155.467998,24.9546671 155.116668,25 154.754,25 C154.232664,25 153.819002,24.9320007 153.513,24.796 C153.206998,24.6599993 152.974667,24.4786678 152.816,24.252 C152.657333,24.0253322 152.549667,23.7590015 152.493,23.453 C152.436333,23.1469985 152.408,22.8126685 152.408,22.45 L152.408,21.532 Z M152.408,15.072 C152.090665,15.4573353 151.609003,15.7179993 150.963,15.854 C150.316997,15.9900007 149.597337,16.0919997 148.804,16.16 L146.628,16.364 C145.99333,16.4320003 145.35867,16.5283327 144.724,16.653 C144.08933,16.7776673 143.517003,16.9873319 143.007,17.282 C142.496997,17.5766681 142.083335,17.9789974 141.766,18.489 C141.448665,18.9990025 141.29,19.6619959 141.29,20.478 C141.29,21.7700065 141.697996,22.7276635 142.514,23.351 C143.330004,23.9743364 144.451993,24.286 145.88,24.286 C147.353341,24.286 148.520662,24.0196693 149.382,23.487 C150.243338,22.9543307 150.900664,22.3423368 151.354,21.651 C151.807336,20.9596632 152.096333,20.2910032 152.221,19.645 C152.345667,18.9989968 152.408,18.5626678 152.408,18.336 L152.408,15.072 Z M157.814,7.524 L159.106,7.524 L159.106,11.264 L159.174,11.264 C159.400668,10.6066634 159.723665,10.0230025 160.143,9.513 C160.562335,9.00299745 161.049664,8.56666848 161.605,8.204 C162.160336,7.84133152 162.766663,7.56933424 163.424,7.388 C164.081337,7.20666576 164.749997,7.116 165.43,7.116 C166.450005,7.116 167.316996,7.24066542 168.031,7.49 C168.745004,7.73933458 169.328664,8.06799796 169.782,8.476 C170.235336,8.88400204 170.592332,9.34299745 170.853,9.853 C171.113668,10.3630025 171.300666,10.8786641 171.414,11.4 C171.527334,11.9213359 171.595333,12.4256642 171.618,12.913 C171.640667,13.4003358 171.652,13.8253315 171.652,14.188 L171.652,25 L170.36,25 L170.36,13.95 C170.36,13.5193312 170.326,12.9753366 170.258,12.318 C170.19,11.6606634 169.991668,11.0316697 169.663,10.431 C169.334332,9.83033033 168.83567,9.31466882 168.167,8.884 C167.49833,8.45333118 166.574673,8.238 165.396,8.238 C164.398662,8.238 163.514671,8.41933152 162.744,8.782 C161.973329,9.14466848 161.316003,9.64899677 160.772,10.295 C160.227997,10.9410032 159.814335,11.7116622 159.531,12.607 C159.247665,13.5023378 159.106,14.4826613 159.106,15.548 L159.106,25 L157.814,25 L157.814,7.524 Z M192.46,8.748 C193.480005,8.748 194.375329,8.96333118 195.146,9.394 C195.916671,9.82466882 196.556997,10.3913298 197.067,11.094 C197.577003,11.7966702 197.962332,12.5956622 198.223,13.491 C198.483668,14.3863378 198.614,15.298662 198.614,16.228 C198.614,17.157338 198.483668,18.0696622 198.223,18.965 C197.962332,19.8603378 197.577003,20.6593298 197.067,21.362 C196.556997,22.0646702 195.916671,22.6313312 195.146,23.062 C194.375329,23.4926688 193.480005,23.708 192.46,23.708 C191.439995,23.708 190.544671,23.4926688 189.774,23.062 C189.003329,22.6313312 188.363003,22.0646702 187.853,21.362 C187.342997,20.6593298 186.957668,19.8603378 186.697,18.965 C186.436332,18.0696622 186.306,17.157338 186.306,16.228 C186.306,15.298662 186.436332,14.3863378 186.697,13.491 C186.957668,12.5956622 187.342997,11.7966702 187.853,11.094 C188.363003,10.3913298 189.003329,9.82466882 189.774,9.394 C190.544671,8.96333118 191.439995,8.748 192.46,8.748 L192.46,8.748 Z M192.46,6.946 C191.12266,6.946 189.938338,7.19533084 188.907,7.694 C187.875662,8.19266916 187.00867,8.86132914 186.306,9.7 C185.60333,10.5386709 185.070668,11.5189944 184.708,12.641 C184.345332,13.7630056 184.164,14.9586603 184.164,16.228 C184.164,17.4973397 184.345332,18.6929944 184.708,19.815 C185.070668,20.9370056 185.60333,21.9173291 186.306,22.756 C187.00867,23.5946709 187.875662,24.2576642 188.907,24.745 C189.938338,25.2323358 191.12266,25.476 192.46,25.476 C193.79734,25.476 194.981662,25.2323358 196.013,24.745 C197.044338,24.2576642 197.91133,23.5946709 198.614,22.756 C199.31667,21.9173291 199.849332,20.9370056 200.212,19.815 C200.574668,18.6929944 200.756,17.4973397 200.756,16.228 C200.756,14.9586603 200.574668,13.7630056 200.212,12.641 C199.849332,11.5189944 199.31667,10.5386709 198.614,9.7 C197.91133,8.86132914 197.044338,8.19266916 196.013,7.694 C194.981662,7.19533084 193.79734,6.946 192.46,6.946 L192.46,6.946 Z M203.952,7.456 L203.952,31.46 L206.094,31.46 L206.094,21.668 L206.162,21.668 C206.388668,22.3026698 206.711665,22.8579976 207.131,23.334 C207.550335,23.8100024 208.031997,24.2066651 208.576,24.524 C209.120003,24.8413349 209.70933,25.0793325 210.344,25.238 C210.97867,25.3966675 211.61333,25.476 212.248,25.476 C213.58534,25.476 214.746995,25.2323358 215.733,24.745 C216.719005,24.2576642 217.540663,23.5890042 218.198,22.739 C218.855337,21.8889957 219.342665,20.9030056 219.66,19.781 C219.977335,18.6589944 220.136,17.4746729 220.136,16.228 C220.136,14.9813271 219.977335,13.7970056 219.66,12.675 C219.342665,11.5529944 218.855337,10.5670042 218.198,9.717 C217.540663,8.86699575 216.719005,8.19266916 215.733,7.694 C214.746995,7.19533084 213.58534,6.946 212.248,6.946 C210.819993,6.946 209.545006,7.28032999 208.423,7.949 C207.300994,8.61767001 206.490669,9.56399388 205.992,10.788 L205.924,10.788 L205.924,7.456 L203.952,7.456 Z M217.994,16.228 C217.994,17.1346712 217.886334,18.0356622 217.671,18.931 C217.455666,19.8263378 217.115669,20.6253298 216.651,21.328 C216.186331,22.0306702 215.591337,22.6029978 214.866,23.045 C214.140663,23.4870022 213.268005,23.708 212.248,23.708 C211.114661,23.708 210.157004,23.4870022 209.375,23.045 C208.592996,22.6029978 207.958336,22.0306702 207.471,21.328 C206.983664,20.6253298 206.632334,19.8263378 206.417,18.931 C206.201666,18.0356622 206.094,17.1346712 206.094,16.228 C206.094,15.2306617 206.190332,14.2786712 206.383,13.372 C206.575668,12.4653288 206.909998,11.6720034 207.386,10.992 C207.862002,10.3119966 208.496663,9.76800204 209.29,9.36 C210.083337,8.95199796 211.069327,8.748 212.248,8.748 C213.268005,8.748 214.140663,8.96899779 214.866,9.411 C215.591337,9.85300221 216.186331,10.4253298 216.651,11.128 C217.115669,11.8306702 217.455666,12.6296622 217.671,13.525 C217.886334,14.4203378 217.994,15.3213288 217.994,16.228 L217.994,16.228 Z M223.502,0.724 L223.502,4.158 L225.644,4.158 L225.644,0.724 L223.502,0.724 Z M223.502,7.456 L223.502,25 L225.644,25 L225.644,7.456 L223.502,7.456 Z M229.724,7.456 L229.724,25 L231.866,25 L231.866,14.766 C231.888667,13.9046624 232.030332,13.1056703 232.291,12.369 C232.551668,11.6323296 232.914331,10.9976693 233.379,10.465 C233.843669,9.93233067 234.41033,9.51300153 235.079,9.207 C235.74767,8.90099847 236.512662,8.748 237.374,8.748 C238.235338,8.748 238.954997,8.88399864 239.533,9.156 C240.111003,9.42800136 240.569998,9.80199762 240.91,10.278 C241.250002,10.7540024 241.487999,11.3149968 241.624,11.961 C241.760001,12.6070032 241.828,13.3039963 241.828,14.052 L241.828,25 L243.97,25 L243.97,13.712 C243.97,12.6693281 243.868001,11.7286709 243.664,10.89 C243.459999,10.0513291 243.108669,9.34300289 242.61,8.765 C242.111331,8.18699711 241.448337,7.73933492 240.621,7.422 C239.793663,7.10466508 238.768006,6.946 237.544,6.946 C236.297327,6.946 235.152672,7.26899677 234.11,7.915 C233.067328,8.56100323 232.342002,9.41666134 231.934,10.482 L231.866,10.482 L231.866,7.456 L229.724,7.456 Z M248.05,0.724 L248.05,4.158 L250.192,4.158 L250.192,0.724 L248.05,0.724 Z M248.05,7.456 L248.05,25 L250.192,25 L250.192,7.456 L248.05,7.456 Z M261.718,8.748 C262.738005,8.748 263.633329,8.96333118 264.404,9.394 C265.174671,9.82466882 265.814997,10.3913298 266.325,11.094 C266.835003,11.7966702 267.220332,12.5956622 267.481,13.491 C267.741668,14.3863378 267.872,15.298662 267.872,16.228 C267.872,17.157338 267.741668,18.0696622 267.481,18.965 C267.220332,19.8603378 266.835003,20.6593298 266.325,21.362 C265.814997,22.0646702 265.174671,22.6313312 264.404,23.062 C263.633329,23.4926688 262.738005,23.708 261.718,23.708 C260.697995,23.708 259.802671,23.4926688 259.032,23.062 C258.261329,22.6313312 257.621003,22.0646702 257.111,21.362 C256.600997,20.6593298 256.215668,19.8603378 255.955,18.965 C255.694332,18.0696622 255.564,17.157338 255.564,16.228 C255.564,15.298662 255.694332,14.3863378 255.955,13.491 C256.215668,12.5956622 256.600997,11.7966702 257.111,11.094 C257.621003,10.3913298 258.261329,9.82466882 259.032,9.394 C259.802671,8.96333118 260.697995,8.748 261.718,8.748 L261.718,8.748 Z M261.718,6.946 C260.38066,6.946 259.196338,7.19533084 258.165,7.694 C257.133662,8.19266916 256.26667,8.86132914 255.564,9.7 C254.86133,10.5386709 254.328668,11.5189944 253.966,12.641 C253.603332,13.7630056 253.422,14.9586603 253.422,16.228 C253.422,17.4973397 253.603332,18.6929944 253.966,19.815 C254.328668,20.9370056 254.86133,21.9173291 255.564,22.756 C256.26667,23.5946709 257.133662,24.2576642 258.165,24.745 C259.196338,25.2323358 260.38066,25.476 261.718,25.476 C263.05534,25.476 264.239662,25.2323358 265.271,24.745 C266.302338,24.2576642 267.16933,23.5946709 267.872,22.756 C268.57467,21.9173291 269.107332,20.9370056 269.47,19.815 C269.832668,18.6929944 270.014,17.4973397 270.014,16.228 C270.014,14.9586603 269.832668,13.7630056 269.47,12.641 C269.107332,11.5189944 268.57467,10.5386709 267.872,9.7 C267.16933,8.86132914 266.302338,8.19266916 265.271,7.694 C264.239662,7.19533084 263.05534,6.946 261.718,6.946 L261.718,6.946 Z M273.176,7.456 L273.176,25 L275.318,25 L275.318,14.766 C275.340667,13.9046624 275.482332,13.1056703 275.743,12.369 C276.003668,11.6323296 276.366331,10.9976693 276.831,10.465 C277.295669,9.93233067 277.86233,9.51300153 278.531,9.207 C279.19967,8.90099847 279.964662,8.748 280.826,8.748 C281.687338,8.748 282.406997,8.88399864 282.985,9.156 C283.563003,9.42800136 284.021998,9.80199762 284.362,10.278 C284.702002,10.7540024 284.939999,11.3149968 285.076,11.961 C285.212001,12.6070032 285.28,13.3039963 285.28,14.052 L285.28,25 L287.422,25 L287.422,13.712 C287.422,12.6693281 287.320001,11.7286709 287.116,10.89 C286.911999,10.0513291 286.560669,9.34300289 286.062,8.765 C285.563331,8.18699711 284.900337,7.73933492 284.073,7.422 C283.245663,7.10466508 282.220006,6.946 280.996,6.946 C279.749327,6.946 278.604672,7.26899677 277.562,7.915 C276.519328,8.56100323 275.794002,9.41666134 275.386,10.482 L275.318,10.482 L275.318,7.456 L273.176,7.456 Z M291.264,12.828 L293.406,12.828 C293.451334,11.3999929 293.904662,10.3630032 294.766,9.717 C295.627338,9.07099677 296.737993,8.748 298.098,8.748 C298.73267,8.748 299.327664,8.79899949 299.883,8.901 C300.438336,9.00300051 300.925665,9.18999864 301.345,9.462 C301.764335,9.73400136 302.092999,10.102331 302.331,10.567 C302.569001,11.031669 302.688,11.626663 302.688,12.352 C302.688,12.8280024 302.625667,13.2133319 302.501,13.508 C302.376333,13.8026681 302.200668,14.0349991 301.974,14.205 C301.747332,14.3750008 301.464002,14.4939997 301.124,14.562 C300.783998,14.6300003 300.387336,14.6866664 299.934,14.732 C298.777994,14.8680007 297.639006,15.0096659 296.517,15.157 C295.394994,15.3043341 294.386338,15.5593315 293.491,15.922 C292.595662,16.2846685 291.876003,16.8116632 291.332,17.503 C290.787997,18.1943368 290.516,19.1519939 290.516,20.376 C290.516,21.2600044 290.668998,22.0249968 290.975,22.671 C291.281002,23.3170032 291.700331,23.8496646 292.233,24.269 C292.765669,24.6883354 293.388996,24.9943324 294.103,25.187 C294.817004,25.3796676 295.581996,25.476 296.398,25.476 C297.259338,25.476 298.001664,25.3966675 298.625,25.238 C299.248336,25.0793325 299.803664,24.8526681 300.291,24.558 C300.778336,24.2633319 301.220331,23.8950022 301.617,23.453 C302.013669,23.0109978 302.404665,22.5066695 302.79,21.94 L302.858,21.94 C302.858,22.3933356 302.886333,22.8069981 302.943,23.181 C302.999667,23.5550019 303.118666,23.8779986 303.3,24.15 C303.481334,24.4220014 303.736332,24.6316659 304.065,24.779 C304.393668,24.9263341 304.829997,25 305.374,25 C305.668668,25 305.912332,24.9886668 306.105,24.966 C306.297668,24.9433332 306.518665,24.9093336 306.768,24.864 L306.768,23.062 C306.563999,23.1526671 306.337335,23.198 306.088,23.198 C305.249329,23.198 304.83,22.7673376 304.83,21.906 L304.83,12.59 C304.83,11.4113274 304.637335,10.4536703 304.252,9.717 C303.866665,8.98032965 303.368003,8.40800204 302.756,8 C302.143997,7.59199796 301.452671,7.31433407 300.682,7.167 C299.911329,7.01966593 299.140671,6.946 298.37,6.946 C297.349995,6.946 296.420671,7.0593322 295.582,7.286 C294.743329,7.5126678 294.012336,7.86399762 293.389,8.34 C292.765664,8.81600238 292.272668,9.42799626 291.91,10.176 C291.547332,10.9240037 291.332,11.8079949 291.264,12.828 L291.264,12.828 Z M302.688,15.412 L302.688,18.2 C302.688,19.0613376 302.523668,19.8319966 302.195,20.512 C301.866332,21.1920034 301.424336,21.7699976 300.869,22.246 C300.313664,22.7220024 299.662004,23.0846654 298.914,23.334 C298.165996,23.5833346 297.384004,23.708 296.568,23.708 C296.069331,23.708 295.582002,23.6286675 295.106,23.47 C294.629998,23.3113325 294.210668,23.0790015 293.848,22.773 C293.485332,22.4669985 293.196334,22.1043354 292.981,21.685 C292.765666,21.2656646 292.658,20.7840027 292.658,20.24 C292.658,19.3786624 292.912997,18.715669 293.423,18.251 C293.933003,17.786331 294.584663,17.4293346 295.378,17.18 C296.171337,16.9306654 297.049662,16.7436673 298.013,16.619 C298.976338,16.4943327 299.911329,16.3526675 300.818,16.194 C301.112668,16.1486664 301.452665,16.0693339 301.838,15.956 C302.223335,15.8426661 302.483999,15.6613346 302.62,15.412 L302.688,15.412 Z M312.514,7.456 L312.514,2.186 L310.372,2.186 L310.372,7.456 L307.312,7.456 L307.312,9.258 L310.372,9.258 L310.372,21.26 C310.349333,22.7560075 310.62133,23.7816639 311.188,24.337 C311.754669,24.8923361 312.751993,25.17 314.18,25.17 C314.497335,25.17 314.814665,25.1586668 315.132,25.136 C315.449335,25.1133332 315.766665,25.102 316.084,25.102 L316.084,23.3 C315.471997,23.3680003 314.860003,23.402 314.248,23.402 C313.477329,23.3566664 312.995668,23.1356686 312.803,22.739 C312.610332,22.3423313 312.514,21.7926702 312.514,21.09 L312.514,9.258 L316.084,9.258 L316.084,7.456 L312.514,7.456 Z M331.792,15.004 L320.436,15.004 C320.526667,14.2106627 320.713665,13.4343371 320.997,12.675 C321.280335,11.9156629 321.659998,11.2470029 322.136,10.669 C322.612002,10.0909971 323.189997,9.62633509 323.87,9.275 C324.550003,8.92366491 325.331996,8.748 326.216,8.748 C327.077338,8.748 327.847997,8.92366491 328.528,9.275 C329.208003,9.62633509 329.785998,10.0909971 330.262,10.669 C330.738002,11.2470029 331.106332,11.9099963 331.367,12.658 C331.627668,13.4060037 331.769333,14.1879959 331.792,15.004 L331.792,15.004 Z M320.436,16.806 L333.934,16.806 C333.979334,15.5819939 333.866001,14.3750059 333.594,13.185 C333.321999,11.994994 332.874336,10.9410046 332.251,10.023 C331.627664,9.10499541 330.817338,8.3626695 329.82,7.796 C328.822662,7.2293305 327.62134,6.946 326.216,6.946 C324.833326,6.946 323.637672,7.21233067 322.629,7.745 C321.620328,8.27766933 320.79867,8.98032897 320.164,9.853 C319.52933,10.725671 319.059002,11.7173278 318.753,12.828 C318.446998,13.9386722 318.294,15.0719942 318.294,16.228 C318.294,17.4746729 318.446998,18.6589944 318.753,19.781 C319.059002,20.9030056 319.52933,21.8889957 320.164,22.739 C320.79867,23.5890042 321.620328,24.2576642 322.629,24.745 C323.637672,25.2323358 324.833326,25.476 326.216,25.476 C328.437344,25.476 330.154327,24.9320054 331.367,23.844 C332.579673,22.7559946 333.412664,21.2146766 333.866,19.22 L331.724,19.22 C331.383998,20.5800068 330.772004,21.6679959 329.888,22.484 C329.003996,23.3000041 327.780008,23.708 326.216,23.708 C325.195995,23.708 324.323337,23.4926688 323.598,23.062 C322.872663,22.6313312 322.272002,22.0873366 321.796,21.43 C321.319998,20.7726634 320.974334,20.0303375 320.759,19.203 C320.543666,18.3756625 320.436,17.5766705 320.436,16.806 L320.436,16.806 Z M352.26,25 L352.26,0.724 L350.118,0.724 L350.118,10.788 L350.05,10.788 C349.823332,10.1533302 349.500335,9.59800238 349.081,9.122 C348.661665,8.64599762 348.180003,8.24366831 347.636,7.915 C347.091997,7.58633169 346.508336,7.34266746 345.885,7.184 C345.261664,7.02533254 344.621337,6.946 343.964,6.946 C342.62666,6.946 341.465005,7.19533084 340.479,7.694 C339.492995,8.19266916 338.671337,8.86699575 338.014,9.717 C337.356663,10.5670042 336.869335,11.5529944 336.552,12.675 C336.234665,13.7970056 336.076,14.9813271 336.076,16.228 C336.076,17.4746729 336.234665,18.6589944 336.552,19.781 C336.869335,20.9030056 337.356663,21.8889957 338.014,22.739 C338.671337,23.5890042 339.492995,24.2576642 340.479,24.745 C341.465005,25.2323358 342.62666,25.476 343.964,25.476 C344.59867,25.476 345.238997,25.3853342 345.885,25.204 C346.531003,25.0226658 347.137331,24.7676683 347.704,24.439 C348.27067,24.1103317 348.774998,23.7080024 349.217,23.232 C349.659002,22.7559976 349.993332,22.2346695 350.22,21.668 L350.288,21.668 L350.288,25 L352.26,25 Z M338.218,16.228 C338.218,15.3213288 338.325666,14.4203378 338.541,13.525 C338.756334,12.6296622 339.096331,11.8306702 339.561,11.128 C340.025669,10.4253298 340.620663,9.85300221 341.346,9.411 C342.071337,8.96899779 342.943995,8.748 343.964,8.748 C345.097339,8.748 346.054996,8.96899779 346.837,9.411 C347.619004,9.85300221 348.253664,10.4253298 348.741,11.128 C349.228336,11.8306702 349.579666,12.6296622 349.795,13.525 C350.010334,14.4203378 350.118,15.3213288 350.118,16.228 C350.118,17.1346712 350.010334,18.0356622 349.795,18.931 C349.579666,19.8263378 349.228336,20.6253298 348.741,21.328 C348.253664,22.0306702 347.619004,22.6029978 346.837,23.045 C346.054996,23.4870022 345.097339,23.708 343.964,23.708 C342.943995,23.708 342.071337,23.4870022 341.346,23.045 C340.620663,22.6029978 340.025669,22.0306702 339.561,21.328 C339.096331,20.6253298 338.756334,19.8263378 338.541,18.931 C338.325666,18.0356622 338.218,17.1346712 338.218,16.228 L338.218,16.228 Z M363.548,7.524 L365.078,7.524 L371.572,23.47 L377.556,7.524 L379.018,7.524 L371.538,26.87 C371.175332,27.7313376 370.841002,28.4736635 370.535,29.097 C370.228998,29.7203364 369.883335,30.1793319 369.498,30.474 C369.044664,30.8366685 368.506336,31.0576663 367.883,31.137 C367.259664,31.2163337 366.438005,31.256 365.418,31.256 L365.418,30.134 C366.347338,30.134 367.072664,30.0603341 367.594,29.913 C368.115336,29.7656659 368.602664,29.4653356 369.056,29.012 C369.305335,28.7626654 369.565999,28.30367 369.838,27.635 C370.110001,26.96633 370.449998,26.0540058 370.858,24.898 L363.548,7.524 Z M381.262,16.432 L381.262,16.636 C381.262,17.6560051 381.397999,18.630662 381.67,19.56 C381.942001,20.489338 382.344331,21.3053298 382.877,22.008 C383.409669,22.7106702 384.078329,23.265998 384.883,23.674 C385.687671,24.082002 386.622661,24.286 387.688,24.286 C389.433342,24.286 390.815995,23.8270046 391.836,22.909 C392.856005,21.9909954 393.558665,20.7160082 393.944,19.084 L395.236,19.084 C394.850665,21.1240102 394.017673,22.6879946 392.737,23.776 C391.456327,24.8640054 389.762011,25.408 387.654,25.408 C386.361994,25.408 385.234338,25.175669 384.271,24.711 C383.307662,24.246331 382.503003,23.6116707 381.857,22.807 C381.210997,22.0023293 380.729335,21.0503388 380.412,19.951 C380.094665,18.8516612 379.936,17.6673397 379.936,16.398 C379.936,15.1739939 380.100332,14.0010056 380.429,12.879 C380.757668,11.7569944 381.250663,10.7710042 381.908,9.921 C382.565337,9.07099575 383.386995,8.39100255 384.373,7.881 C385.359005,7.37099745 386.52066,7.116 387.858,7.116 C389.082006,7.116 390.164329,7.3426644 391.105,7.796 C392.045671,8.2493356 392.83333,8.86699609 393.468,9.649 C394.10267,10.4310039 394.584332,11.3376615 394.913,12.369 C395.241668,13.4003385 395.406,14.5053274 395.406,15.684 C395.406,15.7973339 395.400333,15.9276659 395.389,16.075 C395.377667,16.2223341 395.372,16.3413329 395.372,16.432 L381.262,16.432 Z M394.08,15.31 C394.034666,14.3579952 393.876001,13.4570042 393.604,12.607 C393.331999,11.7569957 392.929669,11.0090032 392.397,10.363 C391.864331,9.71699677 391.218337,9.20133526 390.459,8.816 C389.699663,8.43066474 388.832672,8.238 387.858,8.238 C386.815328,8.238 385.897337,8.43633135 385.104,8.833 C384.310663,9.22966865 383.642003,9.75099677 383.098,10.397 C382.553997,11.0430032 382.134668,11.7966624 381.84,12.658 C381.545332,13.5193376 381.364,14.4033288 381.296,15.31 L394.08,15.31 Z M404.824,8.646 L401.016,8.646 L401.016,20.852 C401.016,21.5546702 401.095333,22.109998 401.254,22.518 C401.412667,22.926002 401.656332,23.2376656 401.985,23.453 C402.313668,23.6683344 402.710331,23.7986664 403.175,23.844 C403.639669,23.8893336 404.177997,23.9006668 404.79,23.878 L404.79,25 C404.132663,25.0453336 403.492336,25.0396669 402.869,24.983 C402.245664,24.926333 401.696002,24.7563347 401.22,24.473 C400.743998,24.1896652 400.364335,23.7646695 400.081,23.198 C399.797665,22.6313305 399.678666,21.8493383 399.724,20.852 L399.724,8.646 L396.494,8.646 L396.494,7.524 L399.724,7.524 L399.724,2.084 L401.016,2.084 L401.016,7.524 L404.824,7.524 L404.824,8.646 Z M427.298,12.59 L429.44,12.59 C429.394666,11.6379952 429.202002,10.8106702 428.862,10.108 C428.521998,9.40532982 428.063003,8.81600238 427.485,8.34 C426.906997,7.86399762 426.238337,7.5126678 425.479,7.286 C424.719663,7.0593322 423.898004,6.946 423.014,6.946 C422.243329,6.946 421.467004,7.03666576 420.685,7.218 C419.902996,7.39933424 419.19467,7.68266474 418.56,8.068 C417.92533,8.45333526 417.409669,8.96333016 417.013,9.598 C416.616331,10.2326698 416.418,10.9919956 416.418,11.876 C416.418,12.6240037 416.542665,13.2529974 416.792,13.763 C417.041335,14.2730025 417.386998,14.7036649 417.829,15.055 C418.271002,15.4063351 418.786664,15.7009988 419.376,15.939 C419.965336,16.1770012 420.61133,16.3866658 421.314,16.568 L424.068,17.18 C424.544002,17.2933339 425.014331,17.4293325 425.479,17.588 C425.943669,17.7466675 426.357332,17.9449988 426.72,18.183 C427.082668,18.4210012 427.371666,18.7156649 427.587,19.067 C427.802334,19.4183351 427.91,19.8546641 427.91,20.376 C427.91,20.9880031 427.757002,21.5036646 427.451,21.923 C427.144998,22.3423354 426.754002,22.6879986 426.278,22.96 C425.801998,23.2320014 425.286336,23.4246661 424.731,23.538 C424.175664,23.6513339 423.637336,23.708 423.116,23.708 C421.687993,23.708 420.492338,23.3396703 419.529,22.603 C418.565662,21.8663296 418.038667,20.7726739 417.948,19.322 L415.806,19.322 C415.987334,21.4753441 416.718327,23.0393285 417.999,24.014 C419.279673,24.9886715 420.951323,25.476 423.014,25.476 C423.830004,25.476 424.657329,25.3853342 425.496,25.204 C426.334671,25.0226658 427.08833,24.7223354 427.757,24.303 C428.42567,23.8836646 428.975331,23.33967 429.406,22.671 C429.836669,22.00233 430.052,21.1920048 430.052,20.24 C430.052,19.4693295 429.904668,18.8006695 429.61,18.234 C429.315332,17.6673305 428.935669,17.1913353 428.471,16.806 C428.006331,16.4206647 427.47367,16.1090012 426.873,15.871 C426.27233,15.6329988 425.666003,15.4686671 425.054,15.378 L422.198,14.732 C421.835332,14.6413329 421.438669,14.5223341 421.008,14.375 C420.577331,14.2276659 420.180668,14.0406678 419.818,13.814 C419.455332,13.5873322 419.155001,13.3096683 418.917,12.981 C418.678999,12.6523317 418.56,12.2500024 418.56,11.774 C418.56,11.2073305 418.684665,10.7313353 418.934,10.346 C419.183335,9.96066474 419.511998,9.64900119 419.92,9.411 C420.328002,9.17299881 420.775664,9.00300051 421.263,8.901 C421.750336,8.79899949 422.231998,8.748 422.708,8.748 C423.320003,8.748 423.897997,8.82166593 424.442,8.969 C424.986003,9.11633407 425.467665,9.34866508 425.887,9.666 C426.306335,9.98333492 426.640665,10.3856642 426.89,10.873 C427.139335,11.3603358 427.275333,11.9326634 427.298,12.59 L427.298,12.59 Z M433.18,0.724 L433.18,4.158 L435.322,4.158 L435.322,0.724 L433.18,0.724 Z M433.18,7.456 L433.18,25 L435.322,25 L435.322,7.456 L433.18,7.456 Z M439.436,7.456 L439.436,25 L441.578,25 L441.578,15.208 C441.578,14.278662 441.679999,13.4230039 441.884,12.641 C442.088001,11.8589961 442.399665,11.1790029 442.819,10.601 C443.238335,10.0229971 443.78233,9.56966831 444.451,9.241 C445.11967,8.91233169 445.907329,8.748 446.814,8.748 C447.494003,8.748 448.071998,8.8613322 448.548,9.088 C449.024002,9.3146678 449.403665,9.62633135 449.687,10.023 C449.970335,10.4196686 450.174333,10.8843307 450.299,11.417 C450.423667,11.9496693 450.486,12.5106637 450.486,13.1 L450.486,25 L452.628,25 L452.628,15.072 C452.628,14.2559959 452.701666,13.4683371 452.849,12.709 C452.996334,11.9496629 453.251332,11.2753363 453.614,10.686 C453.976668,10.0966637 454.463997,9.62633509 455.076,9.275 C455.688003,8.92366491 456.458662,8.748 457.388,8.748 C458.929341,8.748 460.005997,9.12766287 460.618,9.887 C461.230003,10.6463371 461.536,11.7513261 461.536,13.202 L461.536,25 L463.678,25 L463.678,13.1 C463.678,8.99731282 461.740019,6.946 457.864,6.946 C456.707994,6.946 455.620005,7.2293305 454.6,7.796 C453.579995,8.3626695 452.809336,9.22399422 452.288,10.38 C451.970665,9.22399422 451.341671,8.3626695 450.401,7.796 C449.460329,7.2293305 448.412006,6.946 447.256,6.946 C445.827993,6.946 444.655005,7.25199694 443.737,7.864 C442.818995,8.47600306 442.07667,9.32599456 441.51,10.414 L441.408,10.414 L441.408,7.456 L439.436,7.456 Z M467.758,7.456 L467.758,31.46 L469.9,31.46 L469.9,21.668 L469.968,21.668 C470.194668,22.3026698 470.517665,22.8579976 470.937,23.334 C471.356335,23.8100024 471.837997,24.2066651 472.382,24.524 C472.926003,24.8413349 473.51533,25.0793325 474.15,25.238 C474.78467,25.3966675 475.41933,25.476 476.054,25.476 C477.39134,25.476 478.552995,25.2323358 479.539,24.745 C480.525005,24.2576642 481.346663,23.5890042 482.004,22.739 C482.661337,21.8889957 483.148665,20.9030056 483.466,19.781 C483.783335,18.6589944 483.942,17.4746729 483.942,16.228 C483.942,14.9813271 483.783335,13.7970056 483.466,12.675 C483.148665,11.5529944 482.661337,10.5670042 482.004,9.717 C481.346663,8.86699575 480.525005,8.19266916 479.539,7.694 C478.552995,7.19533084 477.39134,6.946 476.054,6.946 C474.625993,6.946 473.351006,7.28032999 472.229,7.949 C471.106994,8.61767001 470.296669,9.56399388 469.798,10.788 L469.73,10.788 L469.73,7.456 L467.758,7.456 Z M481.8,16.228 C481.8,17.1346712 481.692334,18.0356622 481.477,18.931 C481.261666,19.8263378 480.921669,20.6253298 480.457,21.328 C479.992331,22.0306702 479.397337,22.6029978 478.672,23.045 C477.946663,23.4870022 477.074005,23.708 476.054,23.708 C474.920661,23.708 473.963004,23.4870022 473.181,23.045 C472.398996,22.6029978 471.764336,22.0306702 471.277,21.328 C470.789664,20.6253298 470.438334,19.8263378 470.223,18.931 C470.007666,18.0356622 469.9,17.1346712 469.9,16.228 C469.9,15.2306617 469.996332,14.2786712 470.189,13.372 C470.381668,12.4653288 470.715998,11.6720034 471.192,10.992 C471.668002,10.3119966 472.302663,9.76800204 473.096,9.36 C473.889337,8.95199796 474.875327,8.748 476.054,8.748 C477.074005,8.748 477.946663,8.96899779 478.672,9.411 C479.397337,9.85300221 479.992331,10.4253298 480.457,11.128 C480.921669,11.8306702 481.261666,12.6296622 481.477,13.525 C481.692334,14.4203378 481.8,15.3213288 481.8,16.228 L481.8,16.228 Z M487.308,0.724 L487.308,25 L489.45,25 L489.45,0.724 L487.308,0.724 Z M506.178,15.004 L494.822,15.004 C494.912667,14.2106627 495.099665,13.4343371 495.383,12.675 C495.666335,11.9156629 496.045998,11.2470029 496.522,10.669 C496.998002,10.0909971 497.575997,9.62633509 498.256,9.275 C498.936003,8.92366491 499.717996,8.748 500.602,8.748 C501.463338,8.748 502.233997,8.92366491 502.914,9.275 C503.594003,9.62633509 504.171998,10.0909971 504.648,10.669 C505.124002,11.2470029 505.492332,11.9099963 505.753,12.658 C506.013668,13.4060037 506.155333,14.1879959 506.178,15.004 L506.178,15.004 Z M494.822,16.806 L508.32,16.806 C508.365334,15.5819939 508.252001,14.3750059 507.98,13.185 C507.707999,11.994994 507.260336,10.9410046 506.637,10.023 C506.013664,9.10499541 505.203338,8.3626695 504.206,7.796 C503.208662,7.2293305 502.00734,6.946 500.602,6.946 C499.219326,6.946 498.023672,7.21233067 497.015,7.745 C496.006328,8.27766933 495.18467,8.98032897 494.55,9.853 C493.91533,10.725671 493.445002,11.7173278 493.139,12.828 C492.832998,13.9386722 492.68,15.0719942 492.68,16.228 C492.68,17.4746729 492.832998,18.6589944 493.139,19.781 C493.445002,20.9030056 493.91533,21.8889957 494.55,22.739 C495.18467,23.5890042 496.006328,24.2576642 497.015,24.745 C498.023672,25.2323358 499.219326,25.476 500.602,25.476 C502.823344,25.476 504.540327,24.9320054 505.753,23.844 C506.965673,22.7559946 507.798664,21.2146766 508.252,19.22 L506.11,19.22 C505.769998,20.5800068 505.158004,21.6679959 504.274,22.484 C503.389996,23.3000041 502.166008,23.708 500.602,23.708 C499.581995,23.708 498.709337,23.4926688 497.984,23.062 C497.258663,22.6313312 496.658002,22.0873366 496.182,21.43 C495.705998,20.7726634 495.360334,20.0303375 495.145,19.203 C494.929666,18.3756625 494.822,17.5766705 494.822,16.806 L494.822,16.806 Z M518.622,8.646 L518.622,7.524 L521.75,7.524 L521.75,3.92 C521.75,3.30799694 521.851999,2.78100221 522.056,2.339 C522.260001,1.89699779 522.537665,1.54000136 522.889,1.268 C523.240335,0.99599864 523.648331,0.79200068 524.113,0.656 C524.577669,0.51999932 525.070664,0.452 525.592,0.452 C525.977335,0.452 526.48733,0.5086661 527.122,0.622 L527.122,1.744 C526.48733,1.6306661 525.977335,1.574 525.592,1.574 C524.866663,1.574 524.260336,1.73833169 523.773,2.067 C523.285664,2.39566831 523.042,3.04732846 523.042,4.022 L523.042,7.524 L526.68,7.524 L526.68,8.646 L523.042,8.646 L523.042,25 L521.75,25 L521.75,8.646 L518.622,8.646 Z M530.012,11.4 L530.114,11.4 C530.272667,10.8333305 530.561665,10.3006692 530.981,9.802 C531.400335,9.30333084 531.91033,8.87266848 532.511,8.51 C533.11167,8.14733152 533.78033,7.86966763 534.517,7.677 C535.25367,7.48433237 536.018663,7.39933322 536.812,7.422 L536.812,8.714 C536.131997,8.62333288 535.355671,8.6913322 534.483,8.918 C533.610329,9.1446678 532.777337,9.64332948 531.984,10.414 C531.666665,10.7540017 531.389001,11.0826651 531.151,11.4 C530.912999,11.7173349 530.714667,12.0686647 530.556,12.454 C530.397333,12.8393353 530.272667,13.2699976 530.182,13.746 C530.091333,14.2220024 530.034667,14.7886634 530.012,15.446 L530.012,25 L528.72,25 L528.72,7.524 L530.012,7.524 L530.012,11.4 Z M549.766,21.532 L549.698,21.532 C549.493999,22.0533359 549.199335,22.546331 548.814,23.011 C548.428665,23.475669 547.958336,23.8893315 547.403,24.252 C546.847664,24.6146685 546.21867,24.897999 545.516,25.102 C544.81333,25.306001 544.042671,25.408 543.204,25.408 C541.345324,25.408 539.906005,25.0056707 538.886,24.201 C537.865995,23.3963293 537.356,22.1553417 537.356,20.478 C537.356,19.4579949 537.559998,18.6250032 537.968,17.979 C538.376002,17.3329968 538.891664,16.8230019 539.515,16.449 C540.138336,16.0749981 540.829663,15.8086675 541.589,15.65 C542.348337,15.4913325 543.07933,15.3780003 543.782,15.31 L545.788,15.14 C546.717338,15.0719997 547.448331,14.9643341 547.981,14.817 C548.513669,14.6696659 548.915999,14.465668 549.188,14.205 C549.460001,13.944332 549.63,13.610002 549.698,13.202 C549.766,12.793998 549.8,12.2840031 549.8,11.672 C549.8,11.1959976 549.709334,10.754002 549.528,10.346 C549.346666,9.93799796 549.063335,9.57533492 548.678,9.258 C548.292665,8.94066508 547.794003,8.69133424 547.182,8.51 C546.569997,8.32866576 545.822004,8.238 544.938,8.238 C543.373992,8.238 542.110338,8.62332948 541.147,9.394 C540.183662,10.1646705 539.656667,11.3319922 539.566,12.896 L538.274,12.896 C538.364667,10.9693237 538.982328,9.52433815 540.127,8.561 C541.271672,7.59766185 542.897989,7.116 545.006,7.116 C547.114011,7.116 548.649662,7.52966253 549.613,8.357 C550.576338,9.18433747 551.058,10.26666 551.058,11.604 L551.058,21.77 C551.058,22.0193346 551.063667,22.2686654 551.075,22.518 C551.086333,22.7673346 551.126,22.993999 551.194,23.198 C551.262,23.402001 551.375333,23.5663327 551.534,23.691 C551.692667,23.8156673 551.919332,23.878 552.214,23.878 C552.440668,23.878 552.757998,23.8440003 553.166,23.776 L553.166,24.864 C552.825998,24.9546671 552.474668,25 552.112,25 C551.590664,25 551.177002,24.9320007 550.871,24.796 C550.564998,24.6599993 550.332667,24.4786678 550.174,24.252 C550.015333,24.0253322 549.907667,23.7590015 549.851,23.453 C549.794333,23.1469985 549.766,22.8126685 549.766,22.45 L549.766,21.532 Z M549.766,15.072 C549.448665,15.4573353 548.967003,15.7179993 548.321,15.854 C547.674997,15.9900007 546.955337,16.0919997 546.162,16.16 L543.986,16.364 C543.35133,16.4320003 542.71667,16.5283327 542.082,16.653 C541.44733,16.7776673 540.875003,16.9873319 540.365,17.282 C539.854997,17.5766681 539.441335,17.9789974 539.124,18.489 C538.806665,18.9990025 538.648,19.6619959 538.648,20.478 C538.648,21.7700065 539.055996,22.7276635 539.872,23.351 C540.688004,23.9743364 541.809993,24.286 543.238,24.286 C544.711341,24.286 545.878662,24.0196693 546.74,23.487 C547.601338,22.9543307 548.258664,22.3423368 548.712,21.651 C549.165336,20.9596632 549.454333,20.2910032 549.579,19.645 C549.703667,18.9989968 549.766,18.5626678 549.766,18.336 L549.766,15.072 Z M555.206,7.524 L556.498,7.524 L556.498,11.094 L556.566,11.094 C556.702001,10.5499973 556.939998,10.0343358 557.28,9.547 C557.620002,9.05966423 558.033664,8.63466848 558.521,8.272 C559.008336,7.90933152 559.55233,7.62600102 560.153,7.422 C560.75367,7.21799898 561.382663,7.116 562.04,7.116 C562.878671,7.116 563.603997,7.22366559 564.216,7.439 C564.828003,7.65433441 565.349331,7.93766491 565.78,8.289 C566.210669,8.64033509 566.550665,9.03699779 566.8,9.479 C567.049335,9.92100221 567.219333,10.3686644 567.31,10.822 L567.378,10.822 C567.899336,9.59799388 568.596329,8.67433645 569.469,8.051 C570.341671,7.42766355 571.491993,7.116 572.92,7.116 C573.713337,7.116 574.44433,7.23499881 575.113,7.473 C575.78167,7.71100119 576.359664,8.07366423 576.847,8.561 C577.334336,9.04833577 577.713999,9.66599626 577.986,10.414 C578.258001,11.1620037 578.394,12.0459949 578.394,13.066 L578.394,25 L577.102,25 L577.102,13.032 C577.102,11.9213278 576.932002,11.0486698 576.592,10.414 C576.251998,9.77933016 575.849669,9.29766831 575.385,8.969 C574.920331,8.64033169 574.455669,8.43633373 573.991,8.357 C573.526331,8.27766627 573.169335,8.238 572.92,8.238 C572.126663,8.238 571.39567,8.37399864 570.727,8.646 C570.05833,8.91800136 569.480336,9.32599728 568.993,9.87 C568.505664,10.4140027 568.126001,11.0883293 567.854,11.893 C567.581999,12.6976707 567.446,13.6213281 567.446,14.664 L567.446,25 L566.154,25 L566.154,13.032 C566.154,11.9439946 565.989668,11.0770032 565.661,10.431 C565.332332,9.78499677 564.947002,9.30333492 564.505,8.986 C564.062998,8.66866508 563.609669,8.46466712 563.145,8.374 C562.680331,8.28333288 562.312001,8.238 562.04,8.238 C561.427997,8.238 560.793337,8.36266542 560.136,8.612 C559.478663,8.86133458 558.878003,9.24666406 558.334,9.768 C557.789997,10.2893359 557.348002,10.9579959 557.008,11.774 C556.667998,12.5900041 556.498,13.5533278 556.498,14.664 L556.498,25 L555.206,25 L555.206,7.524 Z M582.746,16.432 L582.746,16.636 C582.746,17.6560051 582.881999,18.630662 583.154,19.56 C583.426001,20.489338 583.828331,21.3053298 584.361,22.008 C584.893669,22.7106702 585.562329,23.265998 586.367,23.674 C587.171671,24.082002 588.106661,24.286 589.172,24.286 C590.917342,24.286 592.299995,23.8270046 593.32,22.909 C594.340005,21.9909954 595.042665,20.7160082 595.428,19.084 L596.72,19.084 C596.334665,21.1240102 595.501673,22.6879946 594.221,23.776 C592.940327,24.8640054 591.246011,25.408 589.138,25.408 C587.845994,25.408 586.718338,25.175669 585.755,24.711 C584.791662,24.246331 583.987003,23.6116707 583.341,22.807 C582.694997,22.0023293 582.213335,21.0503388 581.896,19.951 C581.578665,18.8516612 581.42,17.6673397 581.42,16.398 C581.42,15.1739939 581.584332,14.0010056 581.913,12.879 C582.241668,11.7569944 582.734663,10.7710042 583.392,9.921 C584.049337,9.07099575 584.870995,8.39100255 585.857,7.881 C586.843005,7.37099745 588.00466,7.116 589.342,7.116 C590.566006,7.116 591.648329,7.3426644 592.589,7.796 C593.529671,8.2493356 594.31733,8.86699609 594.952,9.649 C595.58667,10.4310039 596.068332,11.3376615 596.397,12.369 C596.725668,13.4003385 596.89,14.5053274 596.89,15.684 C596.89,15.7973339 596.884333,15.9276659 596.873,16.075 C596.861667,16.2223341 596.856,16.3413329 596.856,16.432 L582.746,16.432 Z M595.564,15.31 C595.518666,14.3579952 595.360001,13.4570042 595.088,12.607 C594.815999,11.7569957 594.413669,11.0090032 593.881,10.363 C593.348331,9.71699677 592.702337,9.20133526 591.943,8.816 C591.183663,8.43066474 590.316672,8.238 589.342,8.238 C588.299328,8.238 587.381337,8.43633135 586.588,8.833 C585.794663,9.22966865 585.126003,9.75099677 584.582,10.397 C584.037997,11.0430032 583.618668,11.7966624 583.324,12.658 C583.029332,13.5193376 582.848,14.4033288 582.78,15.31 L595.564,15.31 Z M604.234,23.504 L604.302,23.504 L609.062,7.524 L610.796,7.524 L615.59,23.504 L615.658,23.504 L620.554,7.524 L621.982,7.524 L616.372,25 L614.774,25 L609.98,9.156 L609.912,9.156 L605.084,25 L603.452,25 L597.91,7.524 L599.304,7.524 L604.234,23.504 Z M623.002,16.262 C623.002,15.0153271 623.177665,13.8423388 623.529,12.743 C623.880335,11.6436612 624.395997,10.6746709 625.076,9.836 C625.756003,8.99732914 626.594662,8.33433577 627.592,7.847 C628.589338,7.35966423 629.733994,7.116 631.026,7.116 C632.318006,7.116 633.462662,7.35966423 634.46,7.847 C635.457338,8.33433577 636.295997,8.99732914 636.976,9.836 C637.656003,10.6746709 638.171665,11.6436612 638.523,12.743 C638.874335,13.8423388 639.05,15.0153271 639.05,16.262 C639.05,17.5086729 638.874335,18.6873278 638.523,19.798 C638.171665,20.9086722 637.656003,21.8776625 636.976,22.705 C636.295997,23.5323375 635.457338,24.1896642 634.46,24.677 C633.462662,25.1643358 632.318006,25.408 631.026,25.408 C629.733994,25.408 628.589338,25.1643358 627.592,24.677 C626.594662,24.1896642 625.756003,23.5323375 625.076,22.705 C624.395997,21.8776625 623.880335,20.9086722 623.529,19.798 C623.177665,18.6873278 623.002,17.5086729 623.002,16.262 L623.002,16.262 Z M624.294,16.262 C624.294,17.3046719 624.441332,18.3076618 624.736,19.271 C625.030668,20.2343381 625.461331,21.0899963 626.028,21.838 C626.59467,22.5860037 627.297329,23.1809978 628.136,23.623 C628.974671,24.0650022 629.937995,24.286 631.026,24.286 C632.114005,24.286 633.077329,24.0650022 633.916,23.623 C634.754671,23.1809978 635.457331,22.5860037 636.024,21.838 C636.59067,21.0899963 637.021332,20.2343381 637.316,19.271 C637.610668,18.3076618 637.758,17.3046719 637.758,16.262 C637.758,15.2193281 637.610668,14.2163381 637.316,13.253 C637.021332,12.2896618 636.59067,11.4340037 636.024,10.686 C635.457331,9.93799626 634.754671,9.34300221 633.916,8.901 C633.077329,8.45899779 632.114005,8.238 631.026,8.238 C629.937995,8.238 628.974671,8.45899779 628.136,8.901 C627.297329,9.34300221 626.59467,9.93799626 626.028,10.686 C625.461331,11.4340037 625.030668,12.2896618 624.736,13.253 C624.441332,14.2163381 624.294,15.2193281 624.294,16.262 L624.294,16.262 Z M643.368,11.4 L643.47,11.4 C643.628667,10.8333305 643.917665,10.3006692 644.337,9.802 C644.756335,9.30333084 645.26633,8.87266848 645.867,8.51 C646.46767,8.14733152 647.13633,7.86966763 647.873,7.677 C648.60967,7.48433237 649.374663,7.39933322 650.168,7.422 L650.168,8.714 C649.487997,8.62333288 648.711671,8.6913322 647.839,8.918 C646.966329,9.1446678 646.133337,9.64332948 645.34,10.414 C645.022665,10.7540017 644.745001,11.0826651 644.507,11.4 C644.268999,11.7173349 644.070667,12.0686647 643.912,12.454 C643.753333,12.8393353 643.628667,13.2699976 643.538,13.746 C643.447333,14.2220024 643.390667,14.7886634 643.368,15.446 L643.368,25 L642.076,25 L642.076,7.524 L643.368,7.524 L643.368,11.4 Z M651.596,0.724 L652.888,0.724 L652.888,16.806 L663.666,7.524 L665.536,7.524 L657.886,14.052 L666.08,25 L664.312,25 L656.866,15.038 L652.888,18.404 L652.888,25 L651.596,25 L651.596,0.724 Z" id="Glazed-is-an-opinion" fill="#3EA1A0"></path>
                    <ellipse id="Oval" fill="#F7A8A5" cx="670.08396" cy="22.8917521" rx="2.08395983" ry="2.08175458"></ellipse>
                </g>
            </g>
        </g>
    </g>
</svg>