<?xml version="1.0" encoding="UTF-8" standalone="no"?>
<svg width="570px" height="100px" viewBox="0 0 570 100" version="1.1" xmlns="http://www.w3.org/2000/svg" xmlns:xlink="http://www.w3.org/1999/xlink">
    <!-- Generator: Sketch Beta 3.7.2 (28276) - http://www.bohemiancoding.com/sketch -->
    <title>Group 6</title>
    <desc>Created with Sketch Beta.</desc>
    <defs>
        <path d="M35.5269119,40.3553391 L1.58578644,6.41421356 C0.804737854,5.63316498 0.804737854,4.36683502 1.58578644,3.58578644 C2.36683502,2.80473785 3.63316498,2.80473785 4.41421356,3.58578644 L38.3553391,37.5269119 L72.2964646,3.58578644 C73.0775131,2.80473785 74.3438431,2.80473785 75.1248917,3.58578644 C75.9059403,4.36683502 75.9059403,5.63316498 75.1248917,6.41421356 L41.1837662,40.3553391 L75.1248917,74.2964646 C75.9059403,75.0775131 75.9059403,76.3438431 75.1248917,77.1248917 C74.3438431,77.9059403 73.0775131,77.9059403 72.2964646,77.1248917 L38.3553391,43.1837662 L4.41421356,77.1248917 C3.63316498,77.9059403 2.36683502,77.9059403 1.58578644,77.1248917 C0.804737854,76.3438431 0.804737854,75.0775131 1.58578644,74.2964646 L35.5269119,40.3553391 Z" id="path-1"></path>
        <path d="M42.5269119,40.3553391 L8.58578644,6.41421356 C7.80473785,5.63316498 7.80473785,4.36683502 8.58578644,3.58578644 C9.36683502,2.80473785 10.633165,2.80473785 11.4142136,3.58578644 L45.3553391,37.5269119 L79.2964646,3.58578644 C80.0775131,2.80473785 81.3438431,2.80473785 82.1248917,3.58578644 C82.9059403,4.36683502 82.9059403,5.63316498 82.1248917,6.41421356 L48.1837662,40.3553391 L82.1248917,74.2964646 C82.9059403,75.0775131 82.9059403,76.3438431 82.1248917,77.1248917 C81.3438431,77.9059403 80.0775131,77.9059403 79.2964646,77.1248917 L45.3553391,43.1837662 L11.4142136,77.1248917 C10.633165,77.9059403 9.36683502,77.9059403 8.58578644,77.1248917 C7.80473785,76.3438431 7.80473785,75.0775131 8.58578644,74.2964646 L42.5269119,40.3553391 Z" id="path-2"></path>
    </defs>
    <g id="Page-1" stroke="none" stroke-width="1" fill="none" fill-rule="evenodd">
        <g id="Group-6" transform="translate(7.000000, 0.000000)">
            <g id="Group-4" transform="translate(0.000000, 10.000000)">
                <g id="AngularJS_logo">
                    <g id="Group">
                        <polygon id="Shape" fill="#B3B3B3" points="37.4125843 0.393258427 0.248988764 13.4719101 6.12179775 62.1622472 37.4521348 79.3820225 68.9438202 61.9289888 74.814382 13.2404494"></polygon>
                        <polygon id="Shape" fill="#A6120D" points="71.1074157 16.054382 37.3258427 4.53438202 37.3258427 75.2678652 65.6364045 59.5995506"></polygon>
                        <polygon id="Shape" fill="#DD1B16" points="4.41932584 16.2620225 9.45168539 59.8076404 37.3253933 75.2678652 37.3253933 4.53303371"></polygon>
                        <path d="M46.6247191,42.1892135 L37.3258427,46.5375281 L27.5249438,46.5375281 L22.9177528,58.0611236 L14.3483146,58.2197753 L37.3258427,7.10292135 L46.6247191,42.1892135 L46.6247191,42.1892135 Z M45.7258427,40 L37.3874157,23.4925843 L30.5478652,39.7159551 L37.3253933,39.7159551 L45.7258427,40 L45.7258427,40 Z" id="Shape" fill="#F2F2F2"></path>
                        <polygon id="Shape" fill="#B3B3B3" points="37.3253933 7.10292135 37.3869663 23.4925843 45.1478652 39.7285393 37.3429213 39.7285393 37.3253933 46.527191 48.1177528 46.5375281 53.1617978 58.221573 61.3613483 58.3734831"></polygon>
                    </g>
                </g>
                <g id="Combined-Shape" stroke-linecap="round">
                    <use stroke="#000000" stroke-width="15" xlink:href="#path-1"></use>
                    <use stroke="#F7A8A5" stroke-width="4" xlink:href="#path-1"></use>
                </g>
            </g>
            <g id="Group-3" transform="translate(99.000000, 10.000000)">
                <g id="logo">
                    <ellipse id="Oval" fill="#00D8FF" cx="45.0048423" cy="39.8537526" rx="8.37667904" ry="8.41375262"></ellipse>
                    <path d="M45.0048423,22.7468344 C56.2516698,22.7468344 66.6996846,24.3677987 74.5774397,27.0918239 C84.0690167,30.3738365 89.9048237,35.3489308 89.9048237,39.8537526 C89.9048237,44.54826 83.7198701,49.8332914 73.5273284,53.2253249 C65.8212245,55.7898532 55.6811132,57.1283857 45.0048423,57.1283857 C34.0589054,57.1283857 23.6937106,55.8718658 15.902616,53.1969811 C6.04335807,49.8121593 0.104860853,44.4585325 0.104860853,39.8537526 C0.104860853,35.3854927 5.67684601,30.4489727 15.0350093,27.1718239 C22.9421521,24.4030189 33.6481447,22.7468344 45.0048423,22.7468344 L45.0048423,22.7468344 Z" id="Shape" stroke="#00D8FF" stroke-width="4.0167364"></path>
                    <path d="M30.1785529,31.3496017 C35.7971243,21.5637736 42.4147124,13.2826834 48.6995176,7.78901468 C56.2718738,1.16997904 63.4780519,-1.42238994 67.3632468,0.828008386 C71.4120779,3.17316562 72.8804638,11.1951363 70.7139518,21.7581551 C69.0759184,29.7444025 65.1646753,39.2360587 59.8311317,48.5256184 C54.3628386,58.0498113 48.1010761,66.4407547 41.9017625,71.8836059 C34.0570686,78.7713208 26.4731911,81.2637317 22.5016698,78.9633543 C18.6480334,76.7310692 17.1741373,69.4168553 19.0228942,59.637065 C20.5849536,51.3737526 24.5050464,41.231195 30.1785529,31.3496017 L30.1785529,31.3496017 Z" id="Shape" stroke="#00D8FF" stroke-width="4.0167364"></path>
                    <path d="M30.1927458,48.5504403 C24.5579777,38.7740042 20.7200371,28.8796646 19.1202412,20.6670021 C17.1926716,10.7719916 18.5555288,3.20637317 22.4370501,0.949433962 C26.4818738,-1.40259958 34.1345455,1.32578616 42.1635807,8.48654088 C48.2341558,13.9003774 54.4676994,22.044109 59.8167718,31.3247799 C65.3009276,40.8397484 69.4113729,50.4793291 71.010167,58.5922013 C73.0334137,68.8585325 71.3957143,76.7027254 67.4280334,79.0098113 C63.5780705,81.2484696 56.5330241,78.8783229 49.0207792,72.3852411 C42.673525,66.8991195 35.8827829,58.4224738 30.1927458,48.5504403 L30.1927458,48.5504403 Z" id="Shape" stroke="#00D8FF" stroke-width="4.0167364"></path>
                </g>
                <g id="Combined-Shape" stroke-linecap="round">
                    <use stroke="#000000" stroke-width="15" xlink:href="#path-2"></use>
                    <use stroke="#F7A8A5" stroke-width="4" xlink:href="#path-2"></use>
                </g>
            </g>
            <g id="Group-5" transform="translate(212.000000, 0.000000)">
                <path d="M0,80.0006642 L0,0 L13.6123864,0 L23.6543108,32.8036196 L23.6543108,0 L37.489851,0 L37.489851,80.0006642 L23.7658877,80.0006642 L13.7239633,45.0212943 L13.7239633,80.0006642 L0,80.0006642 Z M44.2960442,71.520817 L44.2960442,18.9680794 L58.0200075,18.9680794 L58.0200075,66.165124 L67.950355,66.165124 L67.950355,18.9680794 L81.7858952,18.9680794 L81.7858952,71.520817 C81.7858952,73.8267519 80.9676725,75.8165207 79.3312026,77.4901831 C77.6947326,79.1638455 75.7049638,80.0006642 73.3618364,80.0006642 L52.7758914,80.0006642 C50.432764,80.0006642 48.4336972,79.1638455 46.7786311,77.4901831 C45.1235649,75.8165207 44.2960442,73.8267519 44.2960442,71.520817 L44.2960442,71.520817 Z M88.7036653,80.0006642 L88.7036653,18.9680794 L117.769458,18.9680794 C120.112585,18.9680794 122.102354,19.7956001 123.738824,21.4506662 C125.375294,23.1057324 126.193516,25.1047992 126.193516,27.4479266 L126.193516,80.0006642 L112.357976,80.0006642 L112.357976,32.6920427 L102.427629,32.6920427 L102.427629,80.0006642 L88.7036653,80.0006642 Z M132.99971,71.40924 L132.99971,54.8400648 L146.83525,51.6601221 L146.83525,66.165124 L156.877174,66.165124 L156.877174,18.9680794 L170.712714,18.9680794 L170.712714,71.40924 C170.712714,73.7523674 169.875896,75.7700302 168.202233,77.4622889 C166.528571,79.1545476 164.520206,80.0006642 162.177079,80.0006642 L141.479557,80.0006642 C139.136429,80.0006642 137.137363,79.1545476 135.482296,77.4622889 C133.82723,75.7700302 132.99971,73.7523674 132.99971,71.40924 L132.99971,71.40924 Z M177.630485,71.520817 L177.630485,18.9680794 L191.354448,18.9680794 L191.354448,66.165124 L201.284795,66.165124 L201.284795,18.9680794 L215.120336,18.9680794 L215.120336,71.520817 C215.120336,73.8267519 214.302113,75.8165207 212.665643,77.4901831 C211.029173,79.1638455 209.039404,80.0006642 206.696277,80.0006642 L186.110332,80.0006642 C183.767204,80.0006642 181.768138,79.1638455 180.113071,77.4901831 C178.458005,75.8165207 177.630485,73.8267519 177.630485,71.520817 L177.630485,71.520817 Z M222.038106,71.520817 L222.038106,27.4479266 C222.038106,25.1047992 222.865626,23.1057324 224.520693,21.4506662 C226.175759,19.7956001 228.174826,18.9680794 230.517953,18.9680794 L251.103898,18.9680794 C253.447025,18.9680794 255.436794,19.7956001 257.073264,21.4506662 C258.709734,23.1057324 259.527957,25.1047992 259.527957,27.4479266 L259.527957,38.9961397 L245.803993,42.1760824 L245.803993,32.6920427 L235.762069,32.6920427 L235.762069,66.2767009 L245.803993,66.2767009 L245.803993,55.342161 L259.527957,52.1064298 L259.527957,71.520817 C259.527957,73.8639444 258.709734,75.8630112 257.073264,77.5180773 C255.436794,79.1731435 253.447025,80.0006642 251.103898,80.0006642 L230.517953,80.0006642 C228.174826,80.0006642 226.175759,79.1731435 224.520693,77.5180773 C222.865626,75.8630112 222.038106,73.8639444 222.038106,71.520817 L222.038106,71.520817 Z M266.33415,80.0006642 L266.33415,18.9680794 L280.058113,18.9680794 L280.058113,42.5108132 L281.564402,42.5108132 L291.606326,18.9680794 L305.776597,18.9680794 L292.777884,49.3727949 L305.776597,80.0006642 L291.941057,80.0006642 L281.675979,56.2347765 L280.058113,56.2347765 L280.058113,80.0006642 L266.33415,80.0006642 Z M310.40704,71.520817 L310.40704,64.6030468 L324.131004,61.2557387 L324.131004,66.165124 L334.061351,66.165124 L334.061351,56.2347765 L318.886887,56.2347765 C316.54376,56.2347765 314.544693,55.4072558 312.889627,53.7521897 C311.234561,52.0971235 310.40704,50.0980567 310.40704,47.7549293 L310.40704,27.3363497 C310.40704,25.0304148 311.234561,23.0592419 312.889627,21.422772 C314.544693,19.7863021 316.54376,18.9680794 318.886887,18.9680794 L339.472832,18.9680794 C341.81596,18.9680794 343.805729,19.7863021 345.442199,21.422772 C347.078669,23.0592419 347.896891,25.0304148 347.896891,27.3363497 L347.896891,34.1983314 L334.061351,37.3782741 L334.061351,32.6920427 L324.131004,32.6920427 L324.131004,42.5108132 L339.472832,42.5108132 C341.81596,42.5108132 343.805729,43.3383339 345.442199,44.9934001 C347.078669,46.6484662 347.896891,48.647533 347.896891,50.9906604 L347.896891,71.520817 C347.896891,73.8267519 347.078669,75.8165207 345.442199,77.4901831 C343.805729,79.1638455 341.81596,80.0006642 339.472832,80.0006642 L318.886887,80.0006642 C316.54376,80.0006642 314.544693,79.1638455 312.889627,77.4901831 C311.234561,75.8165207 310.40704,73.8267519 310.40704,71.520817 L310.40704,71.520817 Z" id="Nunjucks" fill="#000000"></path>
                <g id="Group-2" transform="translate(0.000000, 84.000000)">
                    <path d="M7.17915506,15.5 L343.450778,15.5 C347.415716,15.5 350.629933,12.1421356 350.629933,8 C350.629933,3.85786438 347.415716,0.5 343.450778,0.5 L7.17915506,0.5 C3.21421721,0.5 0,3.85786438 0,8 C0,12.1421356 3.21421721,15.5 7.17915506,15.5 L7.17915506,15.5 Z" id="Line" fill="#000000"></path>
                    <path d="M7.17915506,10 L343.450778,10 C344.508095,10 345.36522,9.1045695 345.36522,8 C345.36522,6.8954305 344.508095,6 343.450778,6 L7.17915506,6 C6.1218383,6 5.26471371,6.8954305 5.26471371,8 C5.26471371,9.1045695 6.1218383,10 7.17915506,10 L7.17915506,10 Z" id="Line" fill="#3EA1A0"></path>
                </g>
            </g>
        </g>
    </g>
</svg>