<svg width="18" height="18" xmlns="http://www.w3.org/2000/svg"><path d="M9 0C4.03 0 0 4.131 0 9.228c0 4.077 2.579 7.535 6.155 8.756.45.085.614-.2.614-.445 0-.219-.007-.8-.012-1.57-2.503.558-3.031-1.236-3.031-1.236-.41-1.067-1-1.35-1-1.35-.817-.572.062-.561.062-.561.903.065 1.378.951 1.378.951.803 1.41 2.107 1.003 2.62.766.082-.596.314-1.002.571-1.233-1.998-.233-4.1-1.025-4.1-4.56 0-1.008.351-1.832.927-2.477-.093-.233-.402-1.172.089-2.442 0 0 .755-.248 2.474.946A8.42 8.42 0 019 4.463a8.43 8.43 0 012.253.31c1.719-1.194 2.473-.946 2.473-.946.491 1.27.182 2.209.09 2.442.577.645.925 1.47.925 2.476 0 3.545-2.105 4.326-4.11 4.554.323.285.611.848.611 1.709 0 1.233-.01 2.228-.01 2.531 0 .247.162.534.618.444C15.424 16.76 18 13.303 18 9.228 18 4.131 13.97 0 9 0" fill="#161514" fill-rule="evenodd"/></svg>