<?xml version="1.0" encoding="UTF-8"?>
<svg width="150px" height="150px" viewBox="0 0 150 150" version="1.1" xmlns="http://www.w3.org/2000/svg" xmlns:xlink="http://www.w3.org/1999/xlink">
    <!-- Generator: Sketch Beta 48 (47232) - http://www.bohemiancoding.com/sketch -->
    <title>Group 13</title>
    <desc>Created with Sketch Beta.</desc>
    <defs>
        <linearGradient x1="11.1112112%" y1="10.4407971%" x2="105.424324%" y2="106.380221%" id="linearGradient-1">
            <stop stop-color="#A2C63F" offset="0%"></stop>
            <stop stop-color="#8DC63F" offset="100%"></stop>
        </linearGradient>
    </defs>
    <g id="Page-1" stroke="none" stroke-width="1" fill="none" fill-rule="evenodd">
        <g id="Group-13" transform="translate(5.000000, 0.000000)">
            <g id="Group-9">
                <path d="M122.117881,138.721805 L122.177672,138.365651 L122.670946,138.262762 L122.999795,136.165414 L122.454204,136.165414 L122.282305,136.703601 L121.931034,136.703601 L122.087985,135.714286 L124.614147,135.714286 L124.457196,136.703601 L124.105925,136.703601 L124.105925,136.165414 L123.560334,136.165414 L123.231484,138.262762 L123.694863,138.365651 L123.635072,138.721805 L122.117881,138.721805 Z M127.06557,138.262762 L127.334628,136.537396 L126.460188,137.867036 L126.079021,137.914523 L125.615643,136.569054 L125.354058,138.262762 L125.795015,138.365651 L125.735224,138.721805 L124.442248,138.721805 L124.494565,138.365651 L124.898153,138.262762 L125.227003,136.149584 L124.85331,136.094183 L124.905627,135.738029 L125.929544,135.714286 L126.400397,137.22596 L127.349576,135.738029 L128.32865,135.714286 L128.276334,136.070439 L127.887693,136.149584 L127.558844,138.262762 L127.910115,138.365651 L127.850324,138.721805 L126.572296,138.721805 L126.632086,138.365651 L127.06557,138.262762 Z" id="™" fill="#452A3C"></path>
                <g id="Lad-Revision" fill-rule="nonzero">
                    <g id="Group" transform="translate(0.000000, 10.298507)">
                        <path d="M70.0005447,0.125024682 C31.5046304,0.125024682 0.186848249,31.3757593 0.186848249,69.7895929 C0.186848249,108.202611 31.5046304,139.454433 70.0005447,139.454433 C108.49537,139.454433 139.813424,108.202611 139.813424,69.7895929 C139.813152,31.3757593 108.49537,0.125024682 70.0005447,0.125024682 Z" id="Shape" fill="#4C3142"></path>
                        <path d="M134.985875,69.7895929 C134.985875,105.602098 105.891479,134.635547 70.0005447,134.635547 C34.1090661,134.635547 5.01412451,105.602098 5.01412451,69.7895929 C5.01412451,33.9751856 34.1087938,4.94119287 70.0005447,4.94119287 C105.891206,4.94146466 134.985875,33.9751856 134.985875,69.7895929 Z" id="Shape" fill="url(#linearGradient-1)"></path>
                    </g>
                    <g id="Group" transform="translate(20.641026, 0.000000)">
                        <g transform="translate(14.180479, 104.797839)" id="Shape">
                            <g transform="translate(0.000000, 3.800958)">
                                <path d="M70.6659619,26.2293245 C69.9899348,23.2002325 69.2850014,20.7573026 68.5555249,18.9225259 C61.2124911,0.431680218 48.8072992,0.194934841 35.6641769,0.194934841 L35.325209,0.194934841 C22.0048307,0.223170528 9.4444716,0.493310036 2.1584325,19.0604464 C1.43031945,20.9174858 0.730294659,23.3967963 0.0616305426,26.4712283 C10.1916737,32.9496895 22.244808,36.7077509 35.1793136,36.7077509 C48.2722588,36.7080224 60.4592896,32.8546656 70.6659619,26.2293245 Z" fill="#4C3142"></path>
                                <path d="M68.3229105,27.6799329 C67.6556099,24.5460431 66.9269514,21.8538789 66.1393894,19.8727654 C59.4647471,3.06574404 48.5482328,2.7535225 35.3312084,2.77985771 C22.1150021,2.80917938 11.1840346,3.16728392 4.57838575,20.0028124 C3.79327808,22.0056457 3.07089177,24.7309326 2.41286301,27.9025604 C12.0359541,33.4986564 23.2300786,36.7082939 35.1787682,36.7082939 C47.2848066,36.7080224 58.6150092,33.4128634 68.3229105,27.6799329 Z" fill="#68515A"></path>
                                <path d="M5.93534849,21.352967 C12.5407246,4.51852445 23.4725103,4.16041992 36.6881711,4.13191273 C45.8773941,4.11236495 53.9542676,4.25815883 60.2681258,9.99733376 C53.7740119,2.92836656 45.1926406,2.76112442 35.3314811,2.77958621 C22.1152748,2.80890789 11.1843073,3.16701242 4.57865845,20.0025409 C3.79355079,22.0053742 3.07116447,24.7306611 2.41313571,27.9022889 C2.89827171,28.1846458 3.38695283,28.4610297 3.88026987,28.7311692 C4.50830146,25.7821689 5.19387307,23.245301 5.93534849,21.352967 Z" fill="#725B65"></path>
                                <path d="M25.1507154,35.9421294 C28.4193158,36.4454848 31.7686358,36.7080224 35.1790409,36.7080224 C38.4146444,36.7080224 41.5940714,36.4693765 44.7034141,36.0154336 L44.7034141,7.32960431 L25.1507154,7.32960431 L25.1507154,35.9421294 Z" fill="#FFFFFF"></path>
                            </g>
                            <g transform="translate(23.997733, 0.000000)" fill="#4C3142">
                                <path d="M21.6623176,0.188961907 C21.1144603,0.188961907 20.6702295,0.768064992 20.6702295,1.48155909 L20.6702295,40.3224619 C21.3342577,40.2255374 21.996377,40.1223686 22.6535876,40.0058964 L22.6535876,1.48155909 C22.6535876,0.768064992 22.2093568,0.188961907 21.6623176,0.188961907 Z"></path>
                                <path d="M1.17207111,0.188961907 C0.622850262,0.188961907 0.178619493,0.768064992 0.178619493,1.48155909 L0.178619493,40.0835445 C0.836920952,40.1951298 1.49904023,40.2958551 2.16388665,40.3878926 L2.16388653,1.48155909 C2.16415923,0.768064992 1.71883765,0.188961907 1.17207111,0.188961907 Z"></path>
                            </g>
                        </g>
                        <g transform="translate(38.178212, 92.580474)" id="Shape">
                            <path d="M11.4450099,26.8974786 C17.7910469,26.8836322 22.7550326,23.0454792 22.7452153,18.1585334 L22.72449,8.7753258 C22.7152182,3.90195478 17.7485055,0.0852500557 11.4171944,0.0852500557 C5.04034212,0.0980104143 0.0763564244,3.93534891 0.086173679,8.82229478 L0.104990084,18.2055023 C0.115898144,23.0799593 5.08261085,26.8977501 11.4114676,26.8977501 L11.4450099,26.8977501 L11.4450099,26.8974786 Z" fill="#4C3142"></path>
                            <path d="M2.6272064,18.2003439 C2.63566015,21.6277219 6.58083298,24.3975343 11.4390105,24.3869459 C16.2982788,24.377172 20.2306347,21.5905268 20.222999,18.1642348 L20.2028191,8.78102723 C20.1960016,5.3539207 16.2530103,2.58383688 11.391015,2.59578275 C6.53501912,2.60555664 2.60075436,5.39193027 2.6081173,8.81849382 L2.6272064,18.2003439 Z" fill="#FFDFAC"></path>
                        </g>
                        <g transform="translate(12.271568, 16.832814)" id="Shape">
                            <path d="M37.3230203,92.3670779 C57.7936322,92.3670779 74.4486046,75.787028 74.4486046,55.4054773 L74.4486046,36.9751754 C74.4486046,16.5947107 57.7939049,0.0130318556 37.3230203,0.0130318556 C16.8510448,0.0130318556 0.19607239,16.5944392 0.19607239,36.9751754 L0.19607239,55.4054773 C0.196345091,75.787028 16.8510448,92.3670779 37.3230203,92.3670779 Z" fill="#4C3142"></path>
                            <path d="M2.64575011,55.4054773 C2.64575011,74.4718966 18.1709201,89.9306638 37.3230203,89.9306638 C56.4740296,89.9306638 71.9983815,74.4718966 71.9983815,55.4054773 L71.9983815,36.9751754 C71.9983815,17.9076701 56.4737569,2.45053186 37.3230203,2.45053186 C18.1709201,2.45053186 2.64575011,17.9076701 2.64575011,36.9751754 L2.64575011,55.4054773 Z" fill="#FFDFAC"></path>
                        </g>
                        <path d="M44.6987782,99.439303 C44.8116766,99.1821954 45.0123849,98.9766721 45.2657246,98.8523265 C45.576877,98.7016457 45.9417517,98.6959443 46.2616305,98.8319642 C46.2894461,98.8466251 49.2722553,100.063746 52.7772879,98.3660754 C56.5217524,96.5530185 57.0919712,93.9447469 57.1437845,93.6746074 C57.2013246,93.2860952 57.4478467,92.9526969 57.7955412,92.7854547 C58.0153386,92.6787564 58.2583156,92.6407468 58.4985657,92.6795709 C58.8110816,92.7276259 59.0867828,92.8929675 59.2735834,93.1484462 C59.4631109,93.3998524 59.5427398,93.7150604 59.4911992,94.020223 C59.468565,94.1844787 58.869167,98.0492384 53.8170987,100.495426 C49.2891628,102.68695 45.4677964,101.073715 45.3131747,101.00204 C44.7140494,100.743303 44.4386209,100.0499 44.6987782,99.439303 Z" id="Shape" fill="#4C3142"></path>
                        <g transform="translate(30.269868, 63.530296)" fill="#4C3142" id="Shape">
                            <path d="M38.6019904,6.42389034 C38.6019904,9.93000251 36.9033326,10.7450365 34.8100758,10.7450365 C32.7143646,10.7450365 31.019252,9.93000251 31.019252,6.42389034 C31.019252,2.91886417 32.7146373,0.0765621519 34.8100758,0.0765621519 C36.9033326,0.0765621519 38.6019904,2.91886417 38.6019904,6.42389034 Z"></path>
                            <path d="M0.0463592577,6.42389034 C0.0463592577,9.93000251 1.745017,10.7450365 3.83718303,10.7450365 C5.93343958,10.7450365 7.6288249,9.93000251 7.6288249,6.42389034 C7.6288249,2.91886417 5.93316688,0.0765621519 3.83718303,0.0765621519 C1.7447443,0.0765621519 0.0463592577,2.91886417 0.0463592577,6.42389034 Z"></path>
                        </g>
                        <g transform="translate(15.271285, 69.503230)">
                            <g transform="translate(0.000000, 5.429940)">
                                <path d="M13.5876257,27.8159529 C8.98851466,27.8159529 5.52138759,26.3531271 2.91681541,23.5844008 C1.21870307,21.7784028 0.263156963,19.3802698 0.0755383199,16.4576047 C0.0466319592,15.9968743 0.0354511971,15.5331574 0.042814138,15.0721555 L0.0897187987,11.8815229 L2.74883128,13.6633577 C4.77445814,15.0202996 6.20314138,15.707187 7.66236719,15.707187 C7.6640034,15.707187 7.6645488,15.707187 7.6645488,15.707187 C10.4951905,15.706101 12.4379161,13.0351136 14.6868855,9.9395049 C17.452897,6.13447455 20.5892371,1.81984434 26.3287859,1.81984434 C28.5529395,1.81984434 30.9393505,2.48012503 33.5913727,3.82647861 L35.8910646,0.40805998 L35.8910646,3.26475134 C38.1054009,2.27948875 40.135391,1.79731009 42.0429381,1.79731009 C47.7328552,1.79731009 50.8547422,6.01908833 53.6093002,9.74457006 C55.845998,12.7690466 57.778361,15.3813906 60.5896409,15.3813906 C62.0633199,15.3813906 63.8495148,14.6885303 65.8961397,13.316113 L68.5568884,11.5361787 L68.6029749,14.7268114 C68.6103379,15.2765928 68.5939758,15.8225732 68.5519797,16.3538928 C68.4126293,18.0955461 67.9910327,19.6609977 67.2989163,21.0073513 C65.0409477,25.3955572 60.7227192,27.7152275 54.808096,27.7152275 C47.639864,27.7152275 38.886418,24.10296 34.156683,19.3930302 C29.4064953,24.1597029 20.6833192,27.8159529 13.5876257,27.8159529 Z" id="Shape" fill="#4C3142"></path>
                                <path d="M34.1558649,6.10135192 C34.1553195,6.10135192 34.1539559,6.10135192 34.1539559,6.10026593 C34.1525924,6.10135192 34.14932,6.10135192 34.14932,6.10135192 C14.4362728,-5.32812848 18.0427504,25.9863347 1.77965009,15.0979478 C1.77310526,15.5304425 1.78401332,15.9461044 1.80910186,16.3473769 C1.9781768,18.9833412 2.83282335,20.9636403 4.18542286,22.4028458 C11.7681612,30.464949 28.7451941,23.788295 34.1539559,16.7820436 C39.9248654,24.2522834 60.034966,31.3348254 65.7532441,20.218924 C66.3267354,19.1027999 66.6965186,17.7778946 66.8203251,16.2173299 C66.8576852,15.749812 66.8729565,15.2624749 66.8650482,14.7526036 C50.6022206,25.6409905 53.8727298,-5.32812848 34.1558649,6.10135192 Z" id="Shape" fill="#8F604F"></path>
                                <path d="M65.7532441,17.9098421 C60.034966,29.0252005 39.9248654,21.9434729 34.1539559,14.4735047 C28.7441033,21.4781271 11.7673431,28.1564101 4.18515016,20.0924064 C3.0408946,18.8755569 2.25796855,17.2650368 1.93999858,15.2013881 C1.88627638,15.1650075 1.8344631,15.1337854 1.77992279,15.0976763 C1.77337796,15.530171 1.78428602,15.9458329 1.80937456,16.3471054 C1.9784495,18.9830697 2.83309605,20.9633688 4.18515016,22.4025743 C11.7676158,30.4646775 28.744376,23.7880235 34.1539559,16.7817721 C39.9248654,24.2520119 60.034966,31.3345539 65.7532441,20.2186525 C66.3267354,19.1025284 66.6957005,17.7776231 66.8203251,16.2170584 C66.8568671,15.7495405 66.8729565,15.2622034 66.8650482,14.7523321 C66.8121441,14.7876267 66.7603308,14.8177629 66.7085175,14.8530575 C66.5290799,16.0107207 66.2062013,17.0272054 65.7532441,17.9098421 Z" id="Shape" fill="#6D413F"></path>
                                <path d="M34.3543916,7.22073402 C34.3543916,7.21856204 34.3571186,7.21856204 34.357664,7.21666156 C34.357664,7.21856204 34.3598456,7.21856204 34.3609364,7.22073402 C41.0524862,3.34131349 45.2927221,3.98204639 48.5067821,6.32072149 C45.3821682,3.36982067 41.2627391,1.98328553 34.1561376,6.10135192 C34.1555922,6.10135192 34.1542286,6.10135192 34.1542286,6.10026593 C34.1528651,6.10135192 34.1495927,6.10135192 34.1495927,6.10135192 C25.4695035,1.06861216 21.2439935,4.3246756 17.8469507,8.61487107 C21.3503471,4.69825546 25.8916454,2.31315438 34.3543916,7.22073402 Z" id="Shape" fill="#BF956C"></path>
                                <g id="XMLID_128_" transform="translate(21.543420, 0.000000)" fill="#BF956C">
                                    <path d="M4.48812155,6.09836545 L12.1215824,1.98328553 C12.1232186,1.986272 12.1254002,1.98898697 12.1267637,1.99387391 L12.6105362,3.25443445 L13.0945814,1.99387391 C13.0959449,1.98898697 13.0989446,1.986272 13.0997627,1.98328553 L20.7329508,6.09836545 C22.526236,7.06516624 23.999915,8.54238138 25.0279997,10.3719996 C23.999915,8.15902762 22.526236,6.37149142 20.7329508,5.20215388 L13.0997627,0.221270049 C13.0989446,0.226699989 13.0959449,0.231043941 13.0945814,0.234844899 L12.6105362,1.76092949 L12.1267637,0.234844899 C12.1254002,0.231043941 12.1232186,0.226699989 12.1215824,0.221270049 L4.48812155,5.20215388 C2.69401827,6.37149142 1.22170279,8.15902762 0.194708882,10.3719996 C1.22170279,8.54238138 2.69401827,7.06489474 4.48812155,6.09836545 Z" id="XMLID_138_"></path>
                                </g>
                            </g>
                            <g id="XMLID_129_" transform="translate(24.815838, 0.000000)">
                                <g id="XMLID_136_" transform="translate(0.818105, 0.000000)" fill="#FFDFAC">
                                    <path d="M15.3192804,1.34336712 C15.3192804,1.34336712 22.0585529,15.2410267 8.52137697,15.2410267 C-5.01743519,15.2410267 1.72156467,1.34336712 1.72156467,1.34336712 C6.01606814,-0.387969202 10.8137059,-0.414032914 15.128662,1.26979143 L15.3192804,1.34336712 Z" id="XMLID_137_"></path>
                                </g>
                                <g id="XMLID_134_" transform="translate(0.000000, 1.085988)" fill="#4C3142">
                                    <path d="M16.1373849,0.257379149 C16.1373849,0.257379149 16.2251948,0.387154712 16.370272,0.639375418 C16.5148038,0.892410615 16.7291472,1.26409 16.9590346,1.75902902 C17.1913763,2.25261055 17.4618962,2.86130681 17.7081456,3.58919024 C17.9557586,4.3151732 18.1919181,5.15599939 18.3386315,6.10868233 C18.4828906,7.0597363 18.5379763,8.13296391 18.339995,9.28166769 C18.240459,9.85506934 18.0607487,10.4412313 17.7978644,11.0184339 C17.528708,11.5926501 17.157834,12.1473184 16.7002408,12.6346555 C16.2404661,13.1219926 15.6939722,13.539555 15.1060278,13.8724103 C14.5164471,14.2060801 13.8862339,14.4583008 13.2434764,14.6415613 C11.9576888,15.0208426 10.6353591,15.1307989 9.33975421,15.1435593 L8.85952685,15.1345999 C8.71090452,15.1337854 8.53637555,15.1218395 8.37030033,15.1131516 C8.03296855,15.0984908 7.71063536,15.0650966 7.38203003,15.030888 C6.7286372,14.9602988 6.07551707,14.8275368 5.433305,14.6434618 C4.79082023,14.4593868 4.16087973,14.2087951 3.57184445,13.8743108 C2.98308188,13.5398265 2.43576994,13.1257936 1.97626788,12.636556 C1.51676583,12.1484044 1.14616447,11.5934646 0.877553478,11.0203344 C0.613851112,10.4439463 0.435231619,9.85615532 0.333786655,9.28383966 C0.136350758,8.13323541 0.191709166,7.0600078 0.335968267,6.10895383 C0.483499788,5.15599939 0.719386599,4.31381572 0.967272277,3.58783276 C1.21461255,2.86130681 1.48431435,2.25288204 1.71856495,1.75930051 C1.94736152,1.26436149 2.16334112,0.892682112 2.30650942,0.639646915 C2.45185933,0.386068724 2.53966922,0.257650646 2.53966922,0.257650646 C2.53966922,0.257650646 2.49303726,0.406430998 2.4114995,0.684172421 C2.32668933,0.96055636 2.22088114,1.37078832 2.09025712,1.89124805 C1.961542,2.4103503 1.82982717,3.04646775 1.71011121,3.77435119 C1.59475846,4.50142014 1.49713132,5.32351303 1.48131463,6.20805023 C1.46440714,7.08960097 1.53776385,8.03956895 1.79328517,8.95940076 C1.9252727,9.4163302 2.10116518,9.86321425 2.33677929,10.2772472 C2.58193795,10.6874791 2.86936535,11.0749053 3.22769514,11.4026022 C3.58711574,11.7294846 3.99589531,12.0172714 4.45485196,12.2499443 C4.91408131,12.4788163 5.41830642,12.6569183 5.94734736,12.7948388 C6.4769337,12.9338452 7.03269939,13.0239822 7.60182745,13.0845261 C7.88598243,13.1108613 8.17668225,13.139097 8.4553832,13.1469704 C8.59800609,13.1537578 8.73108443,13.1627172 8.89143292,13.1616312 L9.33948151,13.1684186 C10.5080075,13.1673326 11.6694433,13.0717657 12.7307976,12.7975537 C13.2587477,12.6577328 13.7629728,12.4807168 14.2246565,12.2507588 C14.682795,12.0169999 15.0937562,11.7321995 15.4518133,11.4053172 C15.8101431,11.0757198 16.0978432,10.6880221 16.3430018,10.2794191 C16.5791614,9.86348574 16.7542357,9.4163302 16.8875868,8.95967225 C17.1431081,8.03984044 17.2156467,7.08987247 17.1987392,6.20614975 C17.1829225,5.32378453 17.0850227,4.50169164 16.9691245,3.77462269 C16.8496813,3.04673925 16.7176937,2.41089329 16.5887059,1.89043356 C16.4575365,1.37133131 16.352001,0.959741869 16.2674635,0.684715415 C16.184835,0.406159501 16.1373849,0.257379149 16.1373849,0.257379149 Z" id="XMLID_135_"></path>
                                </g>
                                <g id="XMLID_130_" transform="translate(1.636209, 2.986467)" fill="#FFBF93">
                                    <path d="M14.2374734,0.111585264 C15.1720215,3.49525228 15.5521674,9.13560231 7.70327242,9.13560231 C-0.145895311,9.13560231 0.233705199,3.49525228 1.16770789,0.111585264 C0.0452684516,2.99624081 -2.52957926,11.7712951 7.70327242,11.7712951 C17.935306,11.7712951 15.3599129,2.99624081 14.2374734,0.111585264 Z" id="XMLID_131_"></path>
                                </g>
                            </g>
                        </g>
                        <g id="XMLID_283_">
                            <g id="Group" transform="translate(5.999433, 44.797004)">
                                <path d="M0.386418048,9.21949488 C0.231250885,10.2291922 0.75020187,11.198165 1.70820229,11.687131 C7.74990438,14.7697079 13.770063,16.8626782 19.5993306,17.9071271 L19.6574161,17.91853 L19.7163196,17.9258604 C35.6028191,19.9254358 49.5894071,14.4449975 50.3019762,9.80837185 C50.3128843,9.73561066 50.3216107,9.66176348 50.3281555,9.59063127 C50.3974217,8.71939742 50.4415994,8.14165182 50.4658698,7.7821898 C50.6324904,5.40034668 49.144631,4.96948095 48.4983284,4.8934618 C47.2929877,4.75472683 46.1991819,5.59039458 45.9995644,6.80072817 C43.6971455,6.31149059 40.6982469,4.4419623 38.6213522,3.14637865 C38.0544057,2.79261807 37.5253648,2.46220623 37.047319,2.18012085 L35.5591869,1.29639814 L34.316486,2.49858682 C31.6131959,5.11093089 16.1990154,6.10976832 9.61736436,6.5362901 C7.53501558,6.67040961 5.73682179,6.78796781 4.44012608,6.91204194 C2.59502762,7.08905798 0.686117014,7.27286144 0.386418048,9.21949488 Z" id="Shape" fill="#FFBF93"></path>
                                <path d="M0.0379055107,9.91697065 C-0.0613578411,10.9334554 0.509406432,11.871749 1.4935862,12.3083162 C7.69618218,15.0577662 13.8226944,16.8176097 19.7002302,17.5422352 L19.758861,17.5495656 L19.81831,17.5530951 C35.7912558,18.6825226 49.4549653,12.4456936 49.9111949,7.77757435 C49.9185579,7.70399866 49.9226484,7.62987998 49.9245573,7.55847628 C49.9455553,6.68507045 49.9575542,6.10596736 49.9627355,5.74487636 C49.9973686,3.35706031 48.4893292,3.00791518 47.8383907,2.96854812 C46.6273233,2.89497243 45.5826038,3.78982652 45.44898,5.00966251 C43.1231088,4.64667103 40.0249469,2.9427559 37.8812403,1.76418746 C37.2954774,1.44164903 36.7481655,1.14137336 36.2559392,0.884265705 L34.7206297,0.0844355647 L33.5458316,1.35259802 C30.9914365,4.108021 15.6555213,5.94768462 9.10659442,6.73312542 C7.0340629,6.98154517 5.24623176,7.19629929 3.9579898,7.39259161 C2.12489021,7.66979004 0.229614676,7.95703386 0.0379055107,9.91697065 Z" id="Shape" fill="#4C3142"></path>
                                <path d="M19.9778403,15.3102584 C14.7561517,14.6662675 8.89116022,13.1238931 2.4114995,10.2528124 C0.108535203,9.23279823 30.4277624,8.03169553 35.2071292,2.87759663 C38.1108549,4.39254984 42.9483071,7.47023975 46.5272418,7.32390287 C46.9076604,7.30978503 47.2668083,7.26363054 47.6019585,7.18381043 C47.6019585,7.18381043 47.7865774,2.54718479 47.6652252,7.50390538 C47.6071398,9.8398655 36.1223155,16.4513603 19.9778403,15.3102584 Z" id="Shape" fill="#8F604F"></path>
                                <g transform="translate(2.181612, 5.158443)" fill="#BF956C" id="Shape">
                                    <path d="M17.9055815,9.03134746 C32.4062119,10.0573346 43.1405617,4.82966 45.2210016,2.06120517 C45.2861772,2.04844481 45.3559888,2.04084289 45.4200737,2.02536757 C45.4200737,2.02536757 45.4241642,1.91242482 45.4315271,1.74029572 C45.4604335,1.68708231 45.4797953,1.63658387 45.5013387,1.58581393 C45.4958847,1.80925596 45.490158,2.05984768 45.4836131,2.34546252 C45.4255277,4.68142264 33.9407034,11.2929174 17.7962282,10.1518155 C12.5745396,9.50782468 6.70954809,7.96545027 0.229887378,5.09436957 C-0.166075223,4.91898251 0.400598527,4.73843701 1.63457289,4.53372828 C7.60264556,7.04860492 13.0343144,8.43106761 17.9055815,9.03134746 Z"></path>
                                </g>
                            </g>
                            <g id="Group" transform="translate(63.266752, 32.036645)">
                                <path d="M22.2971667,41.5699905 C23.183174,41.304195 23.7735727,40.5103378 23.8019337,39.545709 C23.9810986,33.4573889 23.3615208,27.7719704 21.9576534,22.6477361 L21.9429275,22.5964232 L21.9265654,22.5459248 C17.4098102,8.90455836 7.51647188,-0.300004177 3.45131038,0.918474326 C3.38749823,0.937750613 3.32450418,0.958655881 3.26505525,0.981190131 C2.52548874,1.26191802 2.03708032,1.45115143 1.73301813,1.57006711 C-0.277337442,2.3565939 -0.0542676016,3.72901119 0.136078056,4.28177907 C0.488408415,5.31265315 1.59503117,5.87356594 2.66074869,5.56595985 C3.15270222,7.62037759 2.78619139,10.7740867 2.53203357,12.9563795 C2.46276739,13.5531299 2.39786443,14.1088842 2.35205057,14.6059952 L2.20615526,16.1532566 L3.6694716,16.6940786 C6.84971667,17.872104 13.6345304,29.968924 16.5306205,35.1330683 C17.447443,36.7677517 18.2393682,38.1784501 18.843402,39.179731 C19.7032299,40.6067192 20.5916915,42.0817624 22.2971667,41.5699905 Z" id="Shape" fill="#FFBF93"></path>
                                <path d="M22.5608691,42.3149783 C23.46542,42.1262879 24.1229034,41.3842866 24.2330748,40.4256307 C24.9341904,34.3755917 24.8041118,28.6581366 23.8442024,23.431548 L23.8343852,23.3805065 L23.8221136,23.3291936 C20.4927008,9.35334289 11.4226484,-0.65810871 7.26940431,0.209595678 C7.20395594,0.223985019 7.13905298,0.239460348 7.07714974,0.257379149 C6.31767602,0.475119737 5.81372362,0.620642125 5.50148038,0.713494097 C3.43031237,1.3273488 3.53557515,2.71334094 3.67710724,3.28022667 C3.9399915,4.33743595 4.99507366,4.98957173 6.08315271,4.77481761 C6.39730486,6.86317248 5.76136492,9.97398502 5.32067927,12.1266847 C5.20096331,12.7155617 5.08861028,13.2637141 4.99970959,13.7551236 L4.72237215,15.2833802 L6.13332979,15.9477333 C9.20149455,17.3918259 14.9238632,30.020237 17.3680868,35.4118957 C18.1403775,37.1187973 18.8084962,38.591397 19.3241748,39.6415474 C20.0580146,41.1347809 20.8163975,42.6790557 22.5608691,42.3149783 Z" id="Shape" fill="#4C3142"></path>
                                <path d="M21.8417552,23.7967114 C22.6947655,28.43931 22.943742,33.8722363 22.2120839,40.1935008 C21.9516539,42.4395954 12.7417056,16.8148947 7.00270222,14.1148572 C7.52847075,11.2201562 8.88161567,6.25094676 7.7908096,3.22755625 C7.67572957,2.90610381 7.5388334,2.61017209 7.38012112,2.34546252 C7.38012112,2.34546252 3.32723119,3.43715193 7.63836946,2.20482708 C9.67135926,1.62436651 18.4760731,9.67099438 21.8417552,23.7967114 Z" id="Shape" fill="#8F604F"></path>
                                <g transform="translate(5.454030, 2.171976)" fill="#BF956C" id="Shape">
                                    <path d="M1.92609081,0.173758075 C1.92799972,0.17783053 1.92909052,0.181631488 1.93290834,0.184889452 C2.09462034,0.137648975 2.29123814,0.0800916128 2.51976201,0.0149323346 C2.39568282,0.00407245489 2.28005737,0.00651592782 2.18433914,0.0331226331 C-2.12707182,1.26544748 1.92609081,0.173758075 1.92609081,0.173758075 Z"></path>
                                    <path d="M2.54512325,11.735186 C3.06980096,8.84048507 4.42349129,3.87154712 3.33268522,0.848156605 C3.2388759,0.588876977 3.12897719,0.351045611 3.00707961,0.12733209 C2.88899986,0.0863360437 2.77664683,0.0521274226 2.67220215,0.0328511361 C2.48322,0.0833495767 2.21188199,0.155839274 1.95199745,0.223985019 C2.09871087,0.475934228 2.22851679,0.753675652 2.33650659,1.05558031 C3.42731265,4.07897082 2.07416773,9.04790878 1.54839921,11.9428812 C7.28767531,14.6426473 16.4973509,40.2676195 16.7577808,38.0215248 C16.8055036,37.597718 16.8491359,37.1777122 16.8903138,36.7620503 C14.4330004,31.9351053 7.29803797,13.9712352 2.54512325,11.735186 Z"></path>
                                </g>
                            </g>
                            <path d="M49.3589744,0.246519269 C28.2576038,0.246519269 11.0902252,17.3380694 11.0902252,38.3467782 C11.0902252,39.8948541 11.1856708,41.4193097 11.3670173,42.9187876 L13.9069592,42.9187876 L84.8115349,42.9187876 L87.3506587,42.9187876 C87.5320052,41.4195812 87.6282689,39.8948541 87.6282689,38.3467782 C87.6279962,17.3380694 70.4600722,0.246519269 49.3589744,0.246519269 Z" id="Shape" fill="#4C3142"></path>
                            <g id="Group" transform="translate(13.362374, 2.714970)">
                                <path d="M35.9966001,0.0445255068 C16.2546466,0.0445255068 0.251703499,15.977598 0.251703499,35.6318083 C0.251703499,37.1809701 0.351512254,38.7073262 0.544584927,40.2038177 L71.4491606,40.2038177 C71.6408698,38.7073262 71.7414967,37.1809701 71.7414967,35.6318083 C71.7414967,15.977598 55.7385536,0.0445255068 35.9966001,0.0445255068 Z" id="Shape" fill="#68515A"></path>
                                <path d="M1.94845233,36.6455781 C1.94845233,16.9908248 17.9522135,1.05829528 37.6933489,1.05829528 C44.0669287,1.05829528 50.0494546,2.72067136 55.2318742,5.63166212 C49.6777624,2.09514229 43.0775676,0.0447970038 35.9966001,0.0447970038 C16.2546466,0.0447970038 0.251703499,15.9778695 0.251703499,35.6320798 C0.251703499,37.1812416 0.351512254,38.7075977 0.544584927,40.2040892 L2.12625372,40.2040892 C2.00981017,39.0342086 1.94845233,37.8464093 1.94845233,36.6455781 Z" id="Shape" fill="#867376"></path>
                            </g>
                            <rect id="Rectangle-path" fill="#4C3142" x="11.1046784" y="35.6356093" width="76.5077738" height="19.0615324"></rect>
                            <rect id="XMLID_424_" fill="#8BC53F" x="13.8409654" y="38.3380903" width="71.0362906" height="13.6560272"></rect>
                            <g id="Group" transform="translate(0.000000, 42.625028)">
                                <path d="M6.70763918,12.7921238 C3.01471526,12.7921238 0.0100899561,10.1390552 0.0100899561,6.46244292 C0.0100899561,2.78501615 3.01471526,0.131676041 6.70763918,0.131676041 L92.0103095,0.131676041 C95.7040516,0.131676041 98.7084042,2.78501615 98.7084042,6.46244292 C98.7084042,10.1390552 95.7040516,12.7921238 92.0103095,12.7921238 L6.70763918,12.7921238 Z" id="Shape" fill="#4C3142"></path>
                                <path d="M96.333174,6.46244292 C96.333174,8.83885609 94.3975386,10.4276565 92.0100368,10.4276565 L6.70763918,10.4276565 C4.32041011,10.4276565 2.38422935,8.8385846 2.38422935,6.46244292 C2.38422935,4.08467225 4.32041011,2.49641485 6.70763918,2.49641485 L92.0103095,2.49641485 C94.3975386,2.49614335 96.333174,4.08467225 96.333174,6.46244292 Z" id="Shape" fill="#68515A"></path>
                            </g>
                        </g>
                        <path d="M62.4470109,61.5003133 C62.4470109,61.5003133 62.570272,61.4511723 62.7595268,61.3442025 C62.8538816,61.2885456 62.9705978,61.2220288 63.0903138,61.165829 C63.2160292,61.1055566 63.329473,61.0368679 63.4805497,60.9768671 C63.6204455,60.9103503 63.7608868,60.8327022 63.911418,60.7803032 C64.0573134,60.7110715 64.2102989,60.6722474 64.3561942,60.62012 C64.5064528,60.5888979 64.6460759,60.5370419 64.784881,60.527268 C64.8557834,60.5215666 64.9250496,60.4995754 64.9943158,60.5052768 L65.0960334,60.4995754 L65.1492102,60.4965889 L65.1775712,60.4925164 L65.1846614,60.4925164 L65.1933879,60.4925164 L65.1966603,60.4925164 L65.1980238,60.4917019 C65.1655723,60.4917019 65.2760164,60.4946884 65.1235763,60.4881725 L65.4516362,60.5101637 L65.5334467,60.5150507 C65.5405369,60.5196661 65.5579898,60.5212951 65.5691706,60.5248246 C65.5882597,60.530526 65.6149844,60.5356845 65.640073,60.5367704 C65.6842506,60.5367704 65.7499717,60.5473588 65.8263281,60.5698931 C65.8942308,60.5913413 65.9722234,60.5964998 66.0450347,60.621206 C66.1862941,60.6717044 66.3439156,60.7121575 66.4857204,60.7816607 C66.6400694,60.8327022 66.7780564,60.9122508 66.9201339,60.9763241 C67.06712,61.0341529 67.1903811,61.1158735 67.3163692,61.1718019 C67.4431754,61.2402191 67.5492563,61.298048 67.6392478,61.344474 C67.8265937,61.4476428 67.9539453,61.5000418 67.9539453,61.5000418 C67.9539453,61.5000418 67.9664896,61.3727097 67.9463097,61.1517111 C67.9321292,61.0393114 67.9242209,60.8992189 67.8721349,60.7580405 C67.8265937,60.6095316 67.7895063,60.4311581 67.6967878,60.263373 C67.5307126,59.9183003 67.2550113,59.5306026 66.8246883,59.2156661 C66.7267885,59.1296015 66.597528,59.0739446 66.4761758,59.0028124 L66.2888299,58.903716 L66.0532158,58.8298688 L65.8129657,58.7592796 C65.7235196,58.7348449 65.6501629,58.7220845 65.6021674,58.7220845 L65.2768345,58.6848895 L65.1974784,58.680274 L65.194206,58.680274 L65.1846614,58.680274 L65.1723899,58.6848895 L65.1429381,58.6862469 L65.0853981,58.6903194 L64.9754994,58.7022653 L64.7513387,58.724528 C64.5972624,58.7324014 64.4639113,58.8019047 64.3204703,58.8390997 C64.1792109,58.8727654 64.0458599,58.9341237 63.9258712,59.0063419 C63.8056099,59.0753021 63.6763493,59.1296015 63.5787222,59.2181095 C63.1508535,59.534132 62.8751523,59.9202008 62.7090771,60.2669024 C62.6152677,60.4311581 62.5713628,60.62012 62.5228219,60.7669999 C62.468827,60.9160517 62.468827,61.0441983 62.4601006,61.1519826 C62.4388299,61.3680942 62.4470109,61.5003133 62.4470109,61.5003133 Z" id="Shape" fill="#4C3142"></path>
                        <g transform="translate(35.178496, 112.671252)" id="Shape">
                            <path d="M1.90454739,15.7142459 C1.57266964,15.7142459 1.2421554,15.618136 0.955818813,15.433518 C0.471773622,15.1153236 0.180255702,14.5753161 0.180255702,13.9981134 L0.180255702,1.74545417 C0.180255702,1.14164485 0.497952968,0.582361049 1.01799476,0.273125975 C1.28987817,0.110499276 1.59694008,0.0274211963 1.90427468,0.0274211963 C2.18352104,0.0274211963 2.46222199,0.0961099354 2.7166525,0.231043941 L13.6607097,6.05329695 C13.749065,6.08098964 13.8338752,6.11682724 13.9151402,6.16189575 L14.4158202,6.42714831 L26.0639928,0.231043941 C26.3176052,0.0961099354 26.5971242,0.0274211963 26.8758252,0.0274211963 C26.8840062,0.0274211963 26.9170031,0.0274211963 26.9254569,0.0274211963 C27.2333369,0.0274211963 27.5387626,0.110770773 27.8109187,0.270953999 C28.3317786,0.581275061 28.650294,1.14083036 28.650294,1.74545417 L28.650294,13.9981134 C28.650294,14.577488 28.3568671,15.1164096 27.8720038,15.433518 C27.5859399,15.6194935 27.2562438,15.7142459 26.9254569,15.7142459 C26.8793703,15.7142459 26.8346473,15.7131599 26.7899242,15.7090875 C26.5856708,15.7014856 26.3827808,15.6564171 26.1916171,15.5730675 L14.4147294,10.4941733 L2.64002337,15.5730675 C2.42022595,15.6691774 2.18733886,15.7142459 1.95472447,15.7142459 C1.94627072,15.7142459 1.91272843,15.7142459 1.90454739,15.7142459 Z" fill="#4C3142"></path>
                            <g transform="translate(1.636209, 1.628982)">
                                <polygon fill="#8DC63F" points="25.2398888 0.14172143 25.2398888 0.11647221 12.7785203 6.74425679 11.4670987 6.04650952 11.4387378 6.05926988 0.268338292 0.11647221 0.268338292 12.3691315 0.318788072 12.3484977 0.318788072 12.3691315 12.7785203 6.99566301 25.2398888 12.3691315 25.2398888 12.3484977 25.2892478 12.3691315 25.2892478 0.11647221"></polygon>
                                <polygon fill="#39B54A" opacity="0.2" points="1.28633305 11.9512976 1.28633305 0.791685231 12.4578233 6.73339691 12.4853662 6.72280853 13.7962424 7.42028431 25.2892478 1.30644353 25.2892478 0.11647221 25.2398888 0.14172143 25.2398888 0.11647221 12.7785203 6.74425679 11.4670987 6.04650952 11.4387378 6.05926988 0.268338292 0.11647221 0.268338292 12.3691315 0.318788072 12.3484977 0.318788072 12.3691315"></polygon>
                            </g>
                            <path d="M14.416911,14.2769409 C11.5156396,14.2769409 9.15458989,11.6901175 9.15458989,8.50925874 C9.15458989,5.33030046 11.5156396,2.7445631 14.416911,2.7445631 C17.3157281,2.7445631 19.6759598,5.33030046 19.6759598,8.50925874 C19.6759598,11.6901175 17.3157281,14.2769409 14.416911,14.2769409 Z" fill="#4C3142"></path>
                            <path d="M17.95085,8.50925874 C17.95085,10.7477514 16.3694539,12.5599939 14.416911,12.5599939 C12.4632774,12.5599939 10.8796997,10.7477514 10.8796997,8.50925874 C10.8796997,6.274567 12.4632774,4.46069559 14.416911,4.46069559 C16.3694539,4.46069559 17.95085,6.2742955 17.95085,8.50925874 Z" fill="#8DC63F"></path>
                            <path d="M15.3882738,23.3870224 C15.3882738,23.921057 14.9530422,24.3565382 14.4150021,24.3565382 C13.8780528,24.3565382 13.4428212,23.921057 13.4428212,23.3870224 C13.4428212,22.8516304 13.8783255,22.4175067 14.4150021,22.4175067 C14.9530422,22.4172352 15.3882738,22.8516304 15.3882738,23.3870224 Z" fill="#4C3142"></path>
                            <path d="M15.3882738,29.5744389 C15.3882738,30.1095595 14.9530422,30.5439547 14.4150021,30.5439547 C13.8780528,30.5439547 13.4428212,30.109288 13.4428212,29.5744389 C13.4428212,29.0401328 13.8783255,28.6057376 14.4150021,28.6057376 C14.9530422,28.6054661 15.3882738,29.0401328 15.3882738,29.5744389 Z" fill="#4C3142"></path>
                            <path d="M15.3882738,17.19852 C15.3882738,17.7336406 14.9530422,18.1669498 14.4150021,18.1669498 C13.8780528,18.1669498 13.4428212,17.7333691 13.4428212,17.19852 C13.4428212,16.6642139 13.8783255,16.2300902 14.4150021,16.2300902 C14.9530422,16.2298187 15.3882738,16.6642139 15.3882738,17.19852 Z" fill="#4C3142"></path>
                        </g>
                        <polygon id="Shape" fill="#FFFFFF" points="68.3809959 127.880785 69.5339779 129.869772 70.6875053 131.858759 68.3809959 131.858759 66.0750319 131.858759 67.2277412 129.869772"></polygon>
                        <polygon id="Shape" fill="#FFFFFF" points="70.4167127 126.376692 72.0578304 129.032204 73.6986754 131.687444 70.4167127 131.687444 67.1350227 131.687444 68.7764131 129.032204"></polygon>
                        <rect id="Rectangle-path" fill="#4C3142" x="65.6667977" y="131.21694" width="8.05805709" height="1.1829124"></rect>
                    </g>
                    <g id="Group" transform="translate(74.487179, 56.865672)">
                        <path d="M11.2014597,1.70517553 C8.41075842,1.70517553 5.90307383,2.94690561 4.19659407,4.90644734 C3.66975595,5.51171957 3.21779425,6.18505781 2.85963083,6.91317427 C2.75177634,7.13201598 2.6520312,7.35628127 2.56120636,7.58298718 C2.40929101,7.96399411 2.28062249,8.35666176 2.17979611,8.75963422 C1.99679487,9.48910658 1.8984013,10.2530187 1.8984013,11.0380828 C1.8984013,16.1845239 6.07147822,20.3718037 11.2014597,20.3718037 C14.4898054,20.3718037 17.3818736,18.6517133 19.0369941,16.0608661 C19.2583797,15.7151125 19.4584106,15.3533593 19.6327618,14.9780471 C19.736021,14.7575783 19.8317115,14.5316859 19.9182113,14.3022682 C20.1955514,13.5576098 20.3809855,12.7690204 20.4607275,11.9506012 C20.4893806,11.6506769 20.5061399,11.3469561 20.5061399,11.038354 C20.5061399,5.89245533 16.333063,1.70517553 11.2014597,1.70517553 Z" id="Shape" fill="#CCF2FF" opacity="0.4"></path>
                        <path d="M22.200726,11.0380828 C22.200726,4.94468362 17.276452,0.00515240698 11.20173,0.00515240698 C5.12808928,0.00515240698 0.204355885,4.94468362 0.204355885,11.0380828 C0.204355885,17.1320244 5.12808928,22.072098 11.20173,22.072098 C14.8363454,22.072098 18.0581943,20.3023818 20.0606657,17.5759449 L20.0606657,37.664095 C20.0606657,38.0746605 20.4793791,38.4057704 20.9962156,38.4057704 C21.5144038,38.4057704 21.9333874,38.0743893 21.9333874,37.664095 L21.9333874,14.0351566 C21.9333874,13.9367185 22.200726,11.9763633 22.200726,11.0380828 Z M11.2014597,20.3718037 C6.07120791,20.3718037 1.8984013,16.1845239 1.8984013,11.0380828 C1.8984013,5.89218415 6.07147822,1.70517553 11.2014597,1.70517553 C16.3327927,1.70517553 20.5061399,5.89218415 20.5061399,11.0380828 C20.5061399,16.1845239 16.333063,20.3718037 11.2014597,20.3718037 Z" id="Shape" fill="#4C3142"></path>
                        <path d="M11.2014597,1.70517553 C11.1322598,1.70517553 11.0641412,1.70978558 10.9954819,1.7108703 C16.0224745,1.83127391 20.0755329,5.96702964 20.0755329,11.038354 C20.0755329,11.3472272 20.0593142,11.6506769 20.0301205,11.9506012 C19.9501081,12.7690204 19.7649444,13.5576098 19.4876043,14.3022682 C19.4019154,14.5316859 19.3067655,14.7578495 19.2029657,14.9780471 C19.0283441,15.3533593 18.8283133,15.7151125 18.6074683,16.0608661 C16.9839744,18.6010027 14.1692153,20.3015682 10.9592601,20.3658377 C11.0408943,20.3688207 11.1206364,20.3718037 11.2014597,20.3718037 C14.4898054,20.3718037 17.3818736,18.6517133 19.0369941,16.0608661 C19.2583797,15.7151125 19.4584106,15.3533593 19.6327618,14.9780471 C19.736021,14.7575783 19.8317115,14.5316859 19.9182113,14.3022682 C20.1955514,13.5576098 20.3809855,12.7690204 20.4607275,11.9506012 C20.4893806,11.6506769 20.5061399,11.3469561 20.5061399,11.038354 C20.5061399,5.89245533 16.333063,1.70517553 11.2014597,1.70517553 Z" id="Shape" fill="#CCF2FF" opacity="0.7"></path>
                    </g>
                </g>
            </g>
        </g>
    </g>
</svg>