<svg width="150" height="150" xmlns="http://www.w3.org/2000/svg"><defs><linearGradient x1="11.111%" y1="10.441%" x2="105.424%" y2="106.38%" id="a"><stop stop-color="#A2C63F" offset="0%"/><stop stop-color="#8DC63F" offset="100%"/></linearGradient></defs><g fill="none" fill-rule="evenodd"><path d="M127.118 138.722l.06-.356.493-.103.329-2.098h-.546l-.172.539h-.351l.157-.99h2.526l-.157.99h-.351v-.539h-.546l-.329 2.098.464.103-.06.356h-1.517zm4.948-.46l.269-1.725-.875 1.33-.381.048-.463-1.346-.262 1.694.441.103-.06.356h-1.293l.053-.356.403-.103.329-2.113-.374-.056.053-.356 1.024-.024.47 1.512.95-1.488.979-.024-.053.356-.388.08-.33 2.113.352.103-.06.356h-1.278l.06-.356.434-.103z" fill="#452A3C"/><g fill-rule="nonzero"><path d="M75 10.424c-38.495 0-69.813 31.25-69.813 69.664 0 38.413 31.318 69.665 69.814 69.665 38.494 0 69.812-31.252 69.812-69.665 0-38.414-31.318-69.664-69.812-69.664z" fill="#4C3142"/><path d="M134.986 69.79c0 35.812-29.095 64.846-64.985 64.846-35.892 0-64.987-29.034-64.987-64.846C5.014 33.975 34.11 4.94 70.001 4.94c35.89 0 64.985 29.034 64.985 64.849z" fill="url(#a)" transform="translate(5 10.299)"/><path d="M110.487 134.828c-.676-3.029-1.38-5.472-2.11-7.307-7.343-18.49-19.748-18.727-32.891-18.727h-.34c-13.32.028-25.88.298-33.166 18.865-.728 1.857-1.428 4.337-2.097 7.411 10.13 6.478 22.183 10.237 35.118 10.237 13.093 0 25.28-3.854 35.486-10.479z" fill="#4C3142"/><path d="M108.144 136.279c-.667-3.134-1.396-5.826-2.183-7.807-6.675-16.807-17.591-17.12-30.808-17.093-13.216.029-24.147.387-30.753 17.223-.785 2.002-1.508 4.728-2.166 7.9 9.623 5.595 20.818 8.805 32.766 8.805 12.106 0 23.437-3.295 33.144-9.028z" fill="#68515A"/><path d="M45.757 129.952c6.605-16.835 17.537-17.193 30.753-17.221 9.189-.02 17.266.126 23.58 5.865-6.494-7.069-15.076-7.236-24.937-7.218-13.216.03-24.147.388-30.753 17.223-.785 2.003-1.507 4.728-2.165 7.9.485.282.973.559 1.467.829.628-2.949 1.313-5.486 2.055-7.378z" fill="#725B65"/><path d="M64.972 144.54a65.859 65.859 0 0019.553.074v-28.686H64.972v28.613z" fill="#FFF"/><g fill="#4C3142"><path d="M85.482 104.987c-.548 0-.993.579-.993 1.292v38.841c.664-.097 1.327-.2 1.984-.316v-38.525c0-.713-.444-1.292-.991-1.292zM64.991 104.987c-.549 0-.993.579-.993 1.292v38.602c.658.112 1.32.213 1.985.305v-38.907c0-.713-.445-1.292-.992-1.292z"/></g><path d="M75.264 119.478c6.346-.014 11.31-3.852 11.3-8.739l-.02-9.383c-.01-4.874-4.976-8.69-11.308-8.69-6.376.012-11.34 3.85-11.33 8.737l.018 9.383c.011 4.874 4.978 8.692 11.307 8.692h.033z" fill="#4C3142"/><path d="M66.446 110.78c.009 3.428 3.954 6.198 8.812 6.187 4.86-.01 8.792-2.796 8.784-6.222l-.02-9.383c-.007-3.428-3.95-6.198-8.812-6.186-4.856.01-8.79 2.796-8.783 6.223l.02 9.382z" fill="#FFDFAC"/><path d="M75.236 109.2c20.47 0 37.125-16.58 37.125-36.962v-18.43c0-20.38-16.655-36.962-37.125-36.962-20.472 0-37.127 16.581-37.127 36.962v18.43c0 20.382 16.655 36.962 37.127 36.962z" fill="#4C3142"/><path d="M40.558 72.238c0 19.067 15.526 34.525 34.678 34.525 19.15 0 34.675-15.458 34.675-34.525v-18.43c0-19.068-15.525-34.525-34.675-34.525-19.152 0-34.678 15.457-34.678 34.525v18.43z" fill="#FFDFAC"/><path d="M70.34 99.44c.113-.258.313-.463.567-.588.31-.15.676-.156.996-.02.027.015 3.01 1.232 6.515-.466 3.745-1.813 4.315-4.421 4.367-4.691.057-.389.304-.722.652-.89.22-.106.462-.144.703-.105.312.048.588.213.775.468.19.252.269.567.217.872-.022.164-.622 4.03-5.674 6.475-4.528 2.192-8.35.579-8.504.507a1.186 1.186 0 01-.614-1.563z" fill="#4C3142"/><g fill="#4C3142"><path d="M94.513 69.954c0 3.506-1.699 4.321-3.792 4.321-2.096 0-3.79-.815-3.79-4.32 0-3.506 1.695-6.348 3.79-6.348 2.093 0 3.792 2.842 3.792 6.347zM55.957 69.954c0 3.506 1.699 4.321 3.791 4.321 2.096 0 3.792-.815 3.792-4.32 0-3.506-1.696-6.348-3.792-6.348-2.092 0-3.79 2.842-3.79 6.347z"/></g><path d="M54.5 102.75c-4.6 0-8.066-1.464-10.67-4.232-1.699-1.806-2.655-4.205-2.842-7.127a17.66 17.66 0 01-.033-1.386l.047-3.19 2.66 1.782c2.025 1.356 3.453 2.043 4.913 2.043h.002c2.83 0 4.773-2.672 7.022-5.767 2.766-3.805 5.903-8.12 11.642-8.12 2.224 0 4.61.66 7.263 2.007l2.3-3.419v2.857c2.214-.985 4.244-1.468 6.151-1.468 5.69 0 8.812 4.222 11.567 7.948 2.236 3.024 4.169 5.637 6.98 5.637 1.474 0 3.26-.693 5.306-2.066l2.661-1.78.046 3.191c.008.55-.009 1.096-.05 1.627-.14 1.742-.562 3.307-1.254 4.654-2.258 4.388-6.576 6.707-12.49 6.707-7.169 0-15.922-3.612-20.652-8.322-4.75 4.767-13.473 8.423-20.57 8.423z" fill="#4C3142"/><path d="M75.068 81.035s-.002 0-.002-.002c-.001.002-.004.002-.004.002-19.713-11.43-16.107 19.885-32.37 8.996-.007.433.004.848.03 1.25.168 2.636 1.023 4.616 2.376 6.055 7.582 8.062 24.56 1.385 29.968-5.62 5.771 7.47 25.881 14.552 31.6 3.436.573-1.116.943-2.44 1.067-4.002.037-.467.052-.954.044-1.464-16.262 10.888-12.992-20.081-32.709-8.651z" fill="#8F604F"/><path d="M106.666 92.843c-5.719 11.115-25.829 4.034-31.6-3.436-5.41 7.004-22.386 13.683-29.969 5.619-1.144-1.217-1.927-2.828-2.245-4.891-.053-.037-.105-.068-.16-.104-.006.432.005.848.03 1.25.169 2.635 1.023 4.616 2.375 6.055 7.583 8.062 24.56 1.385 29.97-5.621 5.77 7.47 25.88 14.553 31.599 3.437.573-1.116.942-2.441 1.067-4.002.036-.467.052-.955.044-1.464-.053.035-.104.065-.156.1-.18 1.158-.502 2.174-.955 3.057z" fill="#6D413F"/><path d="M75.267 82.154c0-.002.002-.002.003-.004 0 .002.002.002.003.004 6.692-3.88 10.932-3.239 14.146-.9-3.125-2.951-7.244-4.338-14.35-.22h-.007c-8.68-5.032-12.906-1.776-16.303 2.514 3.504-3.917 8.045-6.302 16.508-1.394z" fill="#BF956C"/><path d="M66.944 81.032l7.633-4.116c.002.003.004.006.005.011l.484 1.26.484-1.26.005-.01 7.634 4.115c1.793.966 3.267 2.444 4.295 4.273-1.028-2.213-2.502-4-4.295-5.17l-7.634-4.98c0 .005-.003.01-.005.013l-.484 1.526-.484-1.526c0-.004-.003-.008-.005-.014l-7.633 4.981c-1.794 1.17-3.267 2.957-4.294 5.17 1.027-1.83 2.5-3.307 4.294-4.273z" fill="#BF956C"/><g><path d="M81.866 70.847s6.739 13.897-6.798 13.897c-13.54 0-6.8-13.897-6.8-13.897a18.185 18.185 0 0113.407-.074l.19.074z" fill="#FFDFAC"/><path d="M81.866 70.847s.087.13.232.382c.145.253.36.624.59 1.12.232.493.502 1.102.748 1.83.248.725.484 1.566.63 2.519.145.951.2 2.024.002 3.173-.1.573-.28 1.16-.542 1.737a6.253 6.253 0 01-1.098 1.616 6.806 6.806 0 01-1.594 1.238c-.59.333-1.22.586-1.862.769-1.286.38-2.608.489-3.904.502l-.48-.01c-.149 0-.323-.012-.49-.02-.337-.015-.66-.049-.988-.083a11.616 11.616 0 01-1.949-.387 8.512 8.512 0 01-1.861-.77 6.784 6.784 0 01-1.596-1.237 6.228 6.228 0 01-1.098-1.616 7.21 7.21 0 01-.544-1.737c-.198-1.15-.142-2.224.002-3.175.148-.953.384-1.795.631-2.52.248-.727.517-1.336.752-1.83.229-.494.444-.866.588-1.12a6.31 6.31 0 01.233-.381s-.047.149-.128.426c-.085.277-.191.687-.322 1.207-.128.52-.26 1.156-.38 1.884-.115.727-.213 1.549-.229 2.433-.016.882.057 1.832.312 2.752.132.457.308.903.544 1.317.245.41.533.798.89 1.126.36.327.769.614 1.228.847.46.229.963.407 1.492.545.53.14 1.086.23 1.655.29.284.026.575.054.854.062.142.007.275.016.436.015l.448.007c1.168-.001 2.33-.097 3.39-.371a7.87 7.87 0 001.495-.547 5.57 5.57 0 001.227-.845c.358-.33.646-.718.891-1.126.236-.416.411-.863.545-1.32.255-.92.328-1.87.31-2.754a17.392 17.392 0 00-.229-2.431 24.293 24.293 0 00-.38-1.884c-.131-.52-.237-.931-.321-1.206-.083-.279-.13-.427-.13-.427z" fill="#4C3142"/><path d="M81.602 72.601c.934 3.384 1.315 9.024-6.534 9.024-7.85 0-7.47-5.64-6.536-9.024-1.122 2.885-3.697 11.66 6.536 11.66 10.232 0 7.656-8.775 6.534-11.66z" fill="#FFBF93"/></g><g><path d="M32.027 54.016c-.155 1.01.364 1.98 1.322 2.468 6.041 3.083 12.062 5.176 17.89 6.22l.059.012.059.007c15.886 2 29.873-3.481 30.585-8.118.011-.072.02-.146.027-.217.069-.872.113-1.45.137-1.809.167-2.382-1.32-2.813-1.967-2.889a2.273 2.273 0 00-2.499 1.908c-2.302-.49-5.301-2.359-7.378-3.655-.567-.353-1.096-.684-1.574-.966l-1.488-.884-1.243 1.203c-2.703 2.612-18.118 3.61-24.7 4.037-2.082.134-3.88.252-5.176.376-1.846.177-3.754.36-4.054 2.307z" fill="#FFBF93"/><path d="M31.678 54.714c-.099 1.016.472 1.955 1.456 2.391 6.203 2.75 12.33 4.51 18.207 5.234l.058.008.06.003c15.973 1.13 29.636-5.107 30.093-9.775.007-.074.011-.148.013-.22.021-.873.033-1.452.038-1.813.035-2.388-1.473-2.737-2.124-2.776a2.271 2.271 0 00-2.39 2.04c-2.325-.362-5.424-2.066-7.567-3.245a87.355 87.355 0 00-1.626-.88l-1.535-.8-1.175 1.269c-2.554 2.755-17.89 4.595-24.439 5.38-2.072.249-3.86.463-5.149.66-1.833.277-3.728.564-3.92 2.524z" fill="#4C3142"/><path d="M51.618 60.107c-5.221-.644-11.086-2.186-17.566-5.057-2.303-1.02 28.016-2.221 32.796-7.375 2.903 1.515 7.74 4.592 11.32 4.446.38-.014.74-.06 1.074-.14 0 0 .185-4.637.064.32-.058 2.336-11.543 8.947-27.688 7.806z" fill="#8F604F"/><path d="M51.728 58.987c14.5 1.026 25.235-4.202 27.315-6.97.065-.013.135-.02.2-.036l.01-.285c.03-.053.049-.104.07-.155l-.017.76c-.058 2.336-11.543 8.947-27.688 7.806-5.221-.644-11.086-2.186-17.566-5.057-.396-.176.17-.356 1.405-.56 5.968 2.514 11.4 3.897 16.27 4.497z" fill="#BF956C"/><path d="M111.205 73.607c.886-.266 1.476-1.06 1.505-2.025.179-6.088-.44-11.773-1.845-16.898l-.014-.05-.017-.051c-4.516-13.642-14.41-22.846-18.475-21.628-.064.02-.127.04-.186.063-.74.28-1.228.47-1.532.589-2.01.786-1.787 2.159-1.597 2.711.352 1.031 1.459 1.592 2.525 1.285.491 2.054.125 5.208-.13 7.39-.068.597-.133 1.153-.18 1.65l-.145 1.547 1.463.54c3.18 1.179 9.965 13.276 12.861 18.44.917 1.634 1.71 3.045 2.313 4.046.86 1.427 1.748 2.902 3.454 2.39z" fill="#FFBF93"/><path d="M111.469 74.352c.904-.19 1.562-.931 1.672-1.89.701-6.05.57-11.767-.389-16.994l-.01-.05-.012-.052c-3.33-13.976-12.4-23.987-16.553-23.12-.065.015-.13.03-.192.048-.76.218-1.263.363-1.576.456-2.07.614-1.966 2-1.824 2.567.263 1.057 1.318 1.71 2.406 1.494.314 2.089-.322 5.2-.763 7.352-.12.59-.232 1.137-.32 1.629l-.278 1.528 1.411.664c3.068 1.444 8.79 14.073 11.235 19.465.772 1.706 1.44 3.179 1.956 4.23.734 1.492 1.492 3.037 3.237 2.673z" fill="#4C3142"/><path d="M110.75 55.833c.853 4.643 1.102 10.076.37 16.397-.26 2.246-9.47-23.378-15.21-26.078.526-2.895 1.88-7.864.789-10.888a4.978 4.978 0 00-.411-.882s-4.053 1.092.258-.14c2.033-.581 10.838 7.466 14.204 21.591z" fill="#8F604F"/><g fill="#BF956C"><path d="M96.288 34.382c.002.004.003.008.007.012.161-.048.358-.105.587-.17a.97.97 0 00-.336.018c-4.311 1.232-.258.14-.258.14zM96.907 45.944c.525-2.895 1.878-7.864.787-10.887a5.188 5.188 0 00-.325-.721 2.345 2.345 0 00-.335-.095l-.72.192c.147.252.276.53.384.831 1.091 3.024-.262 7.993-.788 10.888 5.74 2.7 14.95 28.324 15.21 26.078.047-.424.09-.844.132-1.26-2.457-4.826-9.592-22.79-14.345-25.026z"/></g><path d="M75 .247c-21.101 0-38.269 17.091-38.269 38.1 0 1.548.096 3.072.277 4.572H112.992c.181-1.5.277-3.024.277-4.572 0-21.009-17.168-38.1-38.269-38.1z" fill="#4C3142"/><g><path d="M75 2.76c-19.742 0-35.745 15.933-35.745 35.587 0 1.549.1 3.075.293 4.572h70.905c.191-1.497.292-3.023.292-4.572 0-19.654-16.003-35.588-35.745-35.588z" fill="#68515A"/><path d="M40.952 39.36c0-19.654 16.004-35.587 35.745-35.587a35.702 35.702 0 0117.538 4.574A35.697 35.697 0 0075 2.76c-19.742 0-35.745 15.933-35.745 35.587 0 1.55.1 3.076.293 4.572h1.582a35.93 35.93 0 01-.178-3.558z" fill="#867376"/></g><path fill="#4C3142" d="M36.746 35.636h76.508v19.062H36.746z"/><path fill="#8BC53F" d="M39.482 38.338h71.036v13.656H39.482z"/><g><path d="M32.349 55.417c-3.693 0-6.698-2.653-6.698-6.33s3.005-6.33 6.698-6.33h85.302c3.694 0 6.698 2.653 6.698 6.33s-3.004 6.33-6.698 6.33H32.35z" fill="#4C3142"/><path d="M121.974 49.087c0 2.377-1.935 3.966-4.323 3.966H32.35c-2.388 0-4.324-1.59-4.324-3.966 0-2.377 1.936-3.966 4.324-3.966h85.302c2.388 0 4.323 1.589 4.323 3.966z" fill="#68515A"/></g></g><path d="M88.088 61.5s.123-.049.313-.156c.094-.055.21-.122.33-.178.126-.06.24-.13.39-.19.14-.066.28-.143.431-.196.146-.069.3-.108.445-.16.15-.031.29-.083.429-.093.07-.005.14-.027.21-.022l.101-.005.053-.003.029-.004h.019l.001-.001c-.032 0 .078.003-.074-.004l.328.022.081.005c.008.005.025.006.036.01a.31.31 0 00.071.012c.044 0 .11.01.186.033.068.021.146.026.22.051.14.05.298.091.44.16.154.052.292.131.434.195.147.058.27.14.396.196.127.068.233.126.323.172.188.104.315.156.315.156s.013-.127-.008-.348c-.014-.113-.022-.253-.074-.394-.045-.148-.082-.327-.175-.495a2.81 2.81 0 00-.872-1.047c-.098-.086-.227-.142-.349-.213l-.187-.1-.236-.073-.24-.07a.887.887 0 00-.21-.038l-.326-.037-.08-.005H90.826l-.012.005-.029.001-.058.004-.11.012-.224.023c-.154.007-.287.077-.43.114a1.406 1.406 0 00-.395.167c-.12.07-.25.124-.347.212a2.823 2.823 0 00-.87 1.049c-.094.164-.138.353-.186.5-.054.15-.054.277-.063.385-.021.216-.013.348-.013.348z" fill="#4C3142"/><g><path d="M62.724 128.385c-.332 0-.662-.096-.949-.28a1.72 1.72 0 01-.775-1.436v-12.252a1.728 1.728 0 012.536-1.514l10.944 5.822c.089.027.173.063.255.108l.5.265 11.649-6.196a1.73 1.73 0 01.811-.203h.05a1.716 1.716 0 011.725 1.718v12.252a1.716 1.716 0 01-1.725 1.716c-.046 0-.09 0-.136-.005a1.65 1.65 0 01-.598-.136l-11.777-5.079-11.774 5.08c-.22.095-.453.14-.686.14h-.05z" fill="#4C3142"/><path fill="#8DC63F" d="M87.696 114.442v-.025l-12.462 6.627-1.311-.697-.029.013-11.17-5.943v12.252l.05-.02v.02l12.46-5.373 12.462 5.373v-.02l.049.02v-12.252z"/><path fill="#39B54A" opacity=".2" d="M63.742 126.252v-11.16l11.172 5.942.027-.011 1.311.698 11.493-6.114v-1.19l-.05.025v-.025l-12.46 6.627-1.312-.697-.029.013-11.17-5.943v12.252l.05-.02v.02z"/><path d="M75.236 126.948c-2.9 0-5.262-2.587-5.262-5.767s2.361-5.765 5.262-5.765c2.9 0 5.26 2.586 5.26 5.765 0 3.18-2.36 5.767-5.26 5.767z" fill="#4C3142"/><path d="M78.77 121.18c0 2.239-1.581 4.051-3.534 4.051-1.953 0-3.537-1.812-3.537-4.05 0-2.235 1.584-4.05 3.537-4.05 1.953 0 3.534 1.815 3.534 4.05z" fill="#8DC63F"/><path d="M76.208 136.058a.972.972 0 01-1.946 0c0-.535.436-.97.973-.97a.97.97 0 01.973.97zM76.208 142.246c0 .535-.435.97-.973.97a.971.971 0 01-.973-.97c0-.535.436-.969.973-.969a.97.97 0 01.973.969zM76.208 129.87a.97.97 0 01-.973.968.97.97 0 01-.973-.968.97.97 0 01.973-.969.97.97 0 01.973.969z" fill="#4C3142"/></g><path fill="#FFF" d="M94.022 127.88l1.153 1.99 1.154 1.989H91.716l1.153-1.99z"/><path fill="#FFF" d="M96.058 126.377l1.64 2.655 1.642 2.655h-6.564l1.641-2.655z"/><path fill="#4C3142" d="M91.308 131.217h8.058v1.183h-8.058z"/><g><path d="M90.689 58.57a9.271 9.271 0 00-7.005 3.202 9.335 9.335 0 00-2.298 6.132c0 5.146 4.173 9.333 9.303 9.333 3.288 0 6.18-1.72 7.835-4.31a9.484 9.484 0 00.881-1.759 9.323 9.323 0 00.588-3.264c0-5.146-4.173-9.333-9.304-9.333z" fill="#CCF2FF" opacity=".4"/><path d="M101.688 67.904c0-6.094-4.924-11.033-11-11.033-6.073 0-10.996 4.94-10.996 11.033 0 6.094 4.923 11.034 10.997 11.034a10.97 10.97 0 008.859-4.496V94.53c0 .41.419.741.935.741.519 0 .938-.33.938-.741V70.9c0-.098.267-2.058.267-2.996zm-11 9.333c-5.13 0-9.302-4.187-9.302-9.333s4.173-9.333 9.303-9.333c5.131 0 9.304 4.187 9.304 9.333s-4.173 9.333-9.304 9.333z" fill="#4C3142"/><path d="M90.689 58.57c-.07 0-.138.005-.206.007 5.027.12 9.08 4.256 9.08 9.327a9.4 9.4 0 01-.873 3.94 9.308 9.308 0 01-.595 1.083c-1.624 2.54-4.439 4.24-7.649 4.305.082.002.162.005.243.005 3.288 0 6.18-1.72 7.835-4.31a9.484 9.484 0 00.881-1.759 9.323 9.323 0 00.588-3.264c0-5.146-4.173-9.333-9.304-9.333z" fill="#CCF2FF" opacity=".7"/></g></g></g></svg>